G04 #@! TF.GenerationSoftware,KiCad,Pcbnew,8.0.6*
G04 #@! TF.CreationDate,2025-11-17T16:53:35-08:00*
G04 #@! TF.ProjectId,DAQ,4441512e-6b69-4636-9164-5f7063625858,2*
G04 #@! TF.SameCoordinates,Original*
G04 #@! TF.FileFunction,Soldermask,Bot*
G04 #@! TF.FilePolarity,Negative*
%FSLAX46Y46*%
G04 Gerber Fmt 4.6, Leading zero omitted, Abs format (unit mm)*
G04 Created by KiCad (PCBNEW 8.0.6) date 2025-11-17 16:53:35*
%MOMM*%
%LPD*%
G01*
G04 APERTURE LIST*
G04 Aperture macros list*
%AMRoundRect*
0 Rectangle with rounded corners*
0 $1 Rounding radius*
0 $2 $3 $4 $5 $6 $7 $8 $9 X,Y pos of 4 corners*
0 Add a 4 corners polygon primitive as box body*
4,1,4,$2,$3,$4,$5,$6,$7,$8,$9,$2,$3,0*
0 Add four circle primitives for the rounded corners*
1,1,$1+$1,$2,$3*
1,1,$1+$1,$4,$5*
1,1,$1+$1,$6,$7*
1,1,$1+$1,$8,$9*
0 Add four rect primitives between the rounded corners*
20,1,$1+$1,$2,$3,$4,$5,0*
20,1,$1+$1,$4,$5,$6,$7,0*
20,1,$1+$1,$6,$7,$8,$9,0*
20,1,$1+$1,$8,$9,$2,$3,0*%
G04 Aperture macros list end*
%ADD10RoundRect,0.102000X0.754000X-0.754000X0.754000X0.754000X-0.754000X0.754000X-0.754000X-0.754000X0*%
%ADD11C,1.712000*%
%ADD12C,4.420000*%
%ADD13C,5.000000*%
%ADD14RoundRect,0.076200X-0.892500X-0.892500X0.892500X-0.892500X0.892500X0.892500X-0.892500X0.892500X0*%
%ADD15C,1.937400*%
%ADD16R,0.863600X0.965200*%
%ADD17RoundRect,0.102000X0.735000X-0.555000X0.735000X0.555000X-0.735000X0.555000X-0.735000X-0.555000X0*%
%ADD18RoundRect,0.102000X-0.590000X-0.885000X0.590000X-0.885000X0.590000X0.885000X-0.590000X0.885000X0*%
%ADD19RoundRect,0.102000X0.490000X-0.460000X0.490000X0.460000X-0.490000X0.460000X-0.490000X-0.460000X0*%
%ADD20RoundRect,0.102000X-0.430000X-0.490000X0.430000X-0.490000X0.430000X0.490000X-0.430000X0.490000X0*%
%ADD21R,0.249999X0.599999*%
%ADD22R,0.599999X0.249999*%
%ADD23R,2.100001X2.100001*%
%ADD24C,0.499999*%
%ADD25RoundRect,0.102000X0.485000X-0.490000X0.485000X0.490000X-0.485000X0.490000X-0.485000X-0.490000X0*%
%ADD26R,0.655600X0.800000*%
%ADD27RoundRect,0.102000X0.430000X0.490000X-0.430000X0.490000X-0.430000X-0.490000X0.430000X-0.490000X0*%
%ADD28C,2.750000*%
%ADD29C,2.722358*%
%ADD30R,1.750000X1.750000*%
%ADD31C,1.750000*%
G04 APERTURE END LIST*
D10*
X164997500Y-84986750D03*
D11*
X164997500Y-87266750D03*
X164997500Y-89546750D03*
X164997500Y-91826750D03*
X164997500Y-94106750D03*
X167537500Y-83846750D03*
X167537500Y-86126750D03*
X167537500Y-88406750D03*
X167537500Y-90686750D03*
X167537500Y-92966750D03*
X170077500Y-84986750D03*
X170077500Y-87266750D03*
X170077500Y-89546750D03*
X170077500Y-91826750D03*
X170077500Y-94106750D03*
D12*
X167537500Y-101786750D03*
X167537500Y-76796750D03*
D13*
X83800000Y-43900000D03*
X83800000Y-135200000D03*
D10*
X164997500Y-52136750D03*
D11*
X164997500Y-54416750D03*
X164997500Y-56696750D03*
X164997500Y-58976750D03*
X164997500Y-61256750D03*
X167537500Y-50996750D03*
X167537500Y-53276750D03*
X167537500Y-55556750D03*
X167537500Y-57836750D03*
X167537500Y-60116750D03*
X170077500Y-52136750D03*
X170077500Y-54416750D03*
X170077500Y-56696750D03*
X170077500Y-58976750D03*
X170077500Y-61256750D03*
D12*
X167537500Y-68936750D03*
X167537500Y-43946750D03*
D13*
X159400000Y-43800000D03*
D10*
X164997500Y-118126750D03*
D11*
X164997500Y-120406750D03*
X164997500Y-122686750D03*
X164997500Y-124966750D03*
X164997500Y-127246750D03*
X167537500Y-116986750D03*
X167537500Y-119266750D03*
X167537500Y-121546750D03*
X167537500Y-123826750D03*
X167537500Y-126106750D03*
X170077500Y-118126750D03*
X170077500Y-120406750D03*
X170077500Y-122686750D03*
X170077500Y-124966750D03*
X170077500Y-127246750D03*
D12*
X167537500Y-134926750D03*
X167537500Y-109936750D03*
D13*
X159400000Y-135200000D03*
D14*
X91595000Y-44700000D03*
D15*
X89055000Y-44700000D03*
D16*
X121295002Y-132802600D03*
X121295002Y-131050000D03*
D17*
X108675000Y-79265685D03*
X108675000Y-77465685D03*
X109445002Y-118562000D03*
X109445002Y-116762000D03*
D18*
X114485000Y-88324999D03*
X117375000Y-88324999D03*
X118750002Y-110100000D03*
X121640002Y-110100000D03*
D19*
X111125000Y-79140685D03*
X111125000Y-77590685D03*
D18*
X109965002Y-113200000D03*
X112855002Y-113200000D03*
X120995002Y-127800000D03*
X123885002Y-127800000D03*
D20*
X123920000Y-116900000D03*
X125450000Y-116900000D03*
D21*
X117650002Y-116700000D03*
X118150001Y-116700000D03*
X118650003Y-116700000D03*
X119150001Y-116700000D03*
X119650003Y-116700000D03*
X120150002Y-116700000D03*
X120650001Y-116700000D03*
X121150003Y-116700000D03*
D22*
X121800004Y-117350001D03*
X121800004Y-117850000D03*
X121800004Y-118350002D03*
X121800004Y-118850000D03*
X121800004Y-119350002D03*
X121800004Y-119850001D03*
X121800004Y-120350000D03*
X121800004Y-120850002D03*
D21*
X121150003Y-121500000D03*
X120650001Y-121500000D03*
X120150002Y-121500000D03*
X119650003Y-121500000D03*
X119150001Y-121500000D03*
X118650003Y-121500000D03*
X118150001Y-121500000D03*
X117650002Y-121500000D03*
D22*
X117000003Y-120850002D03*
X117000003Y-120350000D03*
X117000003Y-119850001D03*
X117000003Y-119350002D03*
X117000003Y-118850000D03*
X117000003Y-118350002D03*
X117000003Y-117850000D03*
X117000003Y-117350001D03*
D23*
X119400001Y-119100000D03*
D24*
X119400001Y-118299999D03*
X120200002Y-119100000D03*
X119400001Y-119100000D03*
X118600000Y-119100000D03*
X119400001Y-119900001D03*
D16*
X128275000Y-64774999D03*
X128275000Y-66527599D03*
D18*
X114355002Y-124523700D03*
X117245002Y-124523700D03*
X125575000Y-71027599D03*
X128465000Y-71027599D03*
D25*
X114145002Y-122056000D03*
X114145002Y-120568000D03*
D16*
X116650002Y-105652600D03*
X116650002Y-103900000D03*
D18*
X125300002Y-111500000D03*
X128190002Y-111500000D03*
D16*
X125875000Y-64774999D03*
X125875000Y-66527599D03*
D26*
X119244400Y-68599999D03*
X120900000Y-68599999D03*
D18*
X110230000Y-71001299D03*
X113120000Y-71001299D03*
X109955002Y-110100000D03*
X112845002Y-110100000D03*
D16*
X112700002Y-105652600D03*
X112700002Y-103900000D03*
D21*
X117650001Y-77300000D03*
X118150000Y-77300000D03*
X118650002Y-77300000D03*
X119150000Y-77300000D03*
X119650002Y-77300000D03*
X120150001Y-77300000D03*
X120650000Y-77300000D03*
X121150002Y-77300000D03*
D22*
X121800003Y-77950001D03*
X121800003Y-78450000D03*
X121800003Y-78950002D03*
X121800003Y-79450000D03*
X121800003Y-79950002D03*
X121800003Y-80450001D03*
X121800003Y-80950000D03*
X121800003Y-81450002D03*
D21*
X121150002Y-82100000D03*
X120650000Y-82100000D03*
X120150001Y-82100000D03*
X119650002Y-82100000D03*
X119150000Y-82100000D03*
X118650002Y-82100000D03*
X118150000Y-82100000D03*
X117650001Y-82100000D03*
D22*
X117000002Y-81450002D03*
X117000002Y-80950000D03*
X117000002Y-80450001D03*
X117000002Y-79950002D03*
X117000002Y-79450000D03*
X117000002Y-78950002D03*
X117000002Y-78450000D03*
X117000002Y-77950001D03*
D23*
X119400000Y-79700000D03*
D24*
X119400000Y-78899999D03*
X120200001Y-79700000D03*
X119400000Y-79700000D03*
X118599999Y-79700000D03*
X119400000Y-80500001D03*
D16*
X125550002Y-103900000D03*
X125550002Y-105652600D03*
D25*
X113325000Y-82665685D03*
X113325000Y-81177685D03*
D16*
X123750002Y-132802600D03*
X123750002Y-131050000D03*
D18*
X121225000Y-88337156D03*
X124115000Y-88337156D03*
D16*
X117030000Y-94677599D03*
X117030000Y-92924999D03*
D26*
X126247200Y-68651299D03*
X127902800Y-68651299D03*
D19*
X111895002Y-118462000D03*
X111895002Y-116912000D03*
D26*
X110847200Y-68601299D03*
X112502800Y-68601299D03*
D16*
X118900000Y-66552599D03*
X118900000Y-64799999D03*
D26*
X119422202Y-107700000D03*
X121077802Y-107700000D03*
D27*
X128315000Y-84800000D03*
X126785000Y-84800000D03*
D19*
X125825000Y-82346685D03*
X125825000Y-80796685D03*
X125745002Y-121875000D03*
X125745002Y-120325000D03*
D16*
X123915000Y-94689756D03*
X123915000Y-92937156D03*
D18*
X121225000Y-85237156D03*
X124115000Y-85237156D03*
D17*
X128275000Y-82446685D03*
X128275000Y-80646685D03*
D16*
X152200000Y-65696500D03*
X152200000Y-63943900D03*
D18*
X120995002Y-124500000D03*
X123885002Y-124500000D03*
D19*
X111075000Y-82715685D03*
X111075000Y-81165685D03*
D16*
X127950002Y-103900000D03*
X127950002Y-105652600D03*
D18*
X110285000Y-74101299D03*
X113175000Y-74101299D03*
D16*
X119050002Y-105652600D03*
X119050002Y-103900000D03*
D18*
X125300002Y-108400000D03*
X128190002Y-108400000D03*
D28*
X141000000Y-63700000D03*
X92000000Y-63700000D03*
D29*
X141000000Y-121700000D03*
D28*
X92000000Y-121700000D03*
D30*
X93270000Y-68570000D03*
D31*
X90730000Y-68570000D03*
X93270000Y-71110000D03*
X90730000Y-71110000D03*
X93270000Y-73650000D03*
X90730000Y-73650000D03*
X93270000Y-76190000D03*
X90730000Y-76190000D03*
X93270000Y-78730000D03*
X90730000Y-78730000D03*
X93270000Y-81270000D03*
X90730000Y-81270000D03*
X93270000Y-83810000D03*
X90730000Y-83810000D03*
X93270000Y-86350000D03*
X90730000Y-86350000D03*
X93270000Y-88890000D03*
X90730000Y-88890000D03*
X93270000Y-91430000D03*
X90730000Y-91430000D03*
X93270000Y-93970000D03*
X90730000Y-93970000D03*
X93270000Y-96510000D03*
X90730000Y-96510000D03*
X93270000Y-99050000D03*
X90730000Y-99050000D03*
X93270000Y-101590000D03*
X90730000Y-101590000D03*
X93270000Y-104130000D03*
X90730000Y-104130000D03*
X93270000Y-106670000D03*
X90730000Y-106670000D03*
X93270000Y-109210000D03*
X90730000Y-109210000D03*
X93270000Y-111750000D03*
X90730000Y-111750000D03*
X93270000Y-114290000D03*
X90730000Y-114290000D03*
X93270000Y-116830000D03*
X90730000Y-116830000D03*
D25*
X113375000Y-79090685D03*
X113375000Y-77602685D03*
D18*
X125575000Y-74127599D03*
X128465000Y-74127599D03*
D25*
X114145002Y-118400000D03*
X114145002Y-116912000D03*
D16*
X110475000Y-66601299D03*
X110475000Y-64848699D03*
D17*
X108675000Y-82821685D03*
X108675000Y-81021685D03*
D18*
X114350002Y-127823700D03*
X117240002Y-127823700D03*
D16*
X116600000Y-66576299D03*
X116600000Y-64823699D03*
D20*
X123935000Y-77475000D03*
X125465000Y-77475000D03*
D16*
X121300000Y-66552599D03*
X121300000Y-64799999D03*
D17*
X128145002Y-122000000D03*
X128145002Y-120200000D03*
D26*
X110600002Y-107700000D03*
X112255602Y-107700000D03*
D17*
X109445002Y-122212000D03*
X109445002Y-120412000D03*
D16*
X121450002Y-105652600D03*
X121450002Y-103900000D03*
D19*
X111895002Y-122112000D03*
X111895002Y-120562000D03*
D18*
X118600000Y-70999999D03*
X121490000Y-70999999D03*
D26*
X116785600Y-90724999D03*
X115130000Y-90724999D03*
D16*
X121515000Y-94689756D03*
X121515000Y-92937156D03*
D18*
X118750002Y-113200000D03*
X121640002Y-113200000D03*
D26*
X123570600Y-90737156D03*
X121915000Y-90737156D03*
D25*
X123495002Y-121850000D03*
X123495002Y-120362000D03*
D16*
X114650002Y-132826300D03*
X114650002Y-131073700D03*
X151550000Y-97843900D03*
X151550000Y-99596500D03*
D18*
X114430000Y-85224999D03*
X117320000Y-85224999D03*
D27*
X128130000Y-124100000D03*
X126600000Y-124100000D03*
D16*
X114630000Y-94677599D03*
X114630000Y-92924999D03*
D25*
X123575000Y-82334685D03*
X123575000Y-80846685D03*
D16*
X110300002Y-105652600D03*
X110300002Y-103900000D03*
X117050002Y-132826300D03*
X117050002Y-131073700D03*
X112875000Y-66577599D03*
X112875000Y-64824999D03*
D18*
X118600000Y-74099999D03*
X121490000Y-74099999D03*
M02*
