M48
; DRILL file {KiCad 8.0.6} date 2025-11-17T16:53:50-0800
; FORMAT={-:-/ absolute / metric / decimal}
; #@! TF.CreationDate,2025-11-17T16:53:50-08:00
; #@! TF.GenerationSoftware,Kicad,Pcbnew,8.0.6
; #@! TF.FileFunction,Plated,1,2,PTH
FMAT,2
METRIC
; #@! TA.AperFunction,Plated,PTH,ComponentDrill
T1C0.200
; #@! TA.AperFunction,Plated,PTH,ComponentDrill
T2C0.203
; #@! TA.AperFunction,Plated,PTH,ViaDrill
T3C0.300
; #@! TA.AperFunction,Plated,PTH,ComponentDrill
T4C1.000
; #@! TA.AperFunction,Plated,PTH,ComponentDrill
T5C1.016
; #@! TA.AperFunction,Plated,PTH,ComponentDrill
T6C1.190
; #@! TA.AperFunction,Plated,PTH,ComponentDrill
T7C2.500
; #@! TA.AperFunction,Plated,PTH,ComponentDrill
T8C3.200
%
G90
G05
T1
X98.175Y-49.25
X98.175Y-50.45
X98.675Y-47.925
X98.675Y-51.775
X99.175Y-49.25
X99.175Y-50.45
X108.1Y-49.25
X108.1Y-50.45
X108.6Y-47.925
X108.6Y-51.775
X109.1Y-49.25
X109.1Y-50.45
X118.0Y-49.25
X118.0Y-50.45
X118.5Y-47.925
X118.5Y-51.775
X119.0Y-49.25
X119.0Y-50.45
T2
X118.6Y-79.7
X118.6Y-119.1
X119.4Y-78.9
X119.4Y-79.7
X119.4Y-80.5
X119.4Y-118.3
X119.4Y-119.1
X119.4Y-119.9
X120.2Y-79.7
X120.2Y-119.1
T3
X81.0Y-41.0
X81.0Y-51.0
X81.0Y-61.0
X81.0Y-71.0
X81.0Y-81.0
X81.0Y-91.0
X81.0Y-101.0
X81.0Y-111.0
X81.0Y-121.0
X81.0Y-131.0
X83.5Y-56.0
X83.5Y-66.0
X83.5Y-76.0
X83.5Y-86.0
X83.5Y-96.0
X83.5Y-106.0
X83.5Y-116.0
X83.5Y-126.0
X86.0Y-41.0
X86.0Y-51.0
X86.0Y-61.0
X86.0Y-71.0
X86.0Y-81.0
X86.0Y-91.0
X86.0Y-101.0
X86.0Y-111.0
X86.0Y-121.0
X86.0Y-131.0
X88.5Y-56.0
X88.5Y-76.0
X88.5Y-86.0
X88.5Y-126.0
X88.5Y-136.0
X89.2Y-106.0
X89.2Y-116.0
X89.3Y-96.0
X91.0Y-41.0
X91.0Y-51.0
X91.0Y-131.0
X91.2Y-61.0
X92.3Y-56.0
X93.5Y-66.0
X93.5Y-136.0
X93.6Y-125.6
X94.988Y-48.087
X96.0Y-41.0
X96.0Y-61.0
X96.0Y-111.0
X96.0Y-121.0
X96.0Y-131.0
X96.4Y-81.0
X96.4Y-101.0
X96.7Y-71.0
X97.4Y-111.3
X98.3Y-75.7
X98.5Y-66.0
X98.5Y-96.0
X98.5Y-106.0
X98.5Y-116.0
X98.5Y-125.5
X98.5Y-136.0
X98.775Y-41.8
X99.2Y-85.9
X100.7Y-101.0
X100.8Y-121.0
X101.0Y-41.0
X101.0Y-61.0
X101.0Y-71.0
X101.0Y-81.0
X101.0Y-111.0
X101.0Y-131.0
X101.9Y-94.4
X102.0Y-125.5
X102.25Y-46.15
X102.375Y-48.075
X102.5Y-93.6
X103.1Y-92.8
X103.2Y-75.5
X103.3Y-66.0
X103.5Y-46.0
X103.5Y-56.0
X103.5Y-136.0
X103.7Y-123.7
X103.7Y-124.6
X103.7Y-125.5
X104.05Y-80.05
X104.8Y-116.1
X104.913Y-48.037
X105.0Y-71.0
X105.0Y-86.0
X105.0Y-96.0
X105.0Y-101.0
X105.0Y-106.0
X105.0Y-111.0
X105.2Y-121.0
X105.7Y-61.0
X106.0Y-41.0
X106.0Y-131.0
X106.8Y-81.0
X106.8Y-82.8
X108.5Y-66.0
X108.5Y-86.0
X108.5Y-96.0
X108.5Y-106.0
X108.5Y-136.0
X108.725Y-41.815
X110.8Y-120.412
X111.0Y-41.0
X111.0Y-60.6
X111.0Y-101.0
X111.0Y-131.0
X111.5Y-110.2
X111.7Y-71.0
X112.175Y-46.15
X112.3Y-48.075
X112.8Y-86.0
X113.0Y-96.0
X113.0Y-116.1
X113.5Y-46.0
X113.5Y-56.0
X113.5Y-136.0
X114.0Y-105.9
X114.6Y-66.0
X114.788Y-47.987
X115.1Y-81.0
X115.5Y-111.0
X115.6Y-71.0
X115.6Y-120.2
X115.85Y-131.0
X116.0Y-41.0
X116.0Y-60.6
X116.0Y-101.0
X116.6Y-74.7
X116.65Y-113.8
X116.7Y-62.6
X116.7Y-101.8
X117.9Y-106.1
X118.45Y-136.35
X118.6Y-41.805
X118.7Y-96.0
X118.9Y-86.0
X119.35Y-114.8
X119.5Y-75.5
X119.9Y-131.0
X121.0Y-41.0
X121.0Y-61.0
X121.0Y-101.0
X121.0Y-111.6
X121.3Y-63.3
X121.45Y-102.4
X122.075Y-46.15
X122.1Y-56.1
X122.175Y-48.025
X122.6Y-116.05
X122.7Y-71.0
X122.734Y-76.705
X122.825Y-77.5
X122.85Y-116.9
X122.9Y-96.0
X123.5Y-66.0
X123.5Y-106.0
X123.5Y-136.3
X125.9Y-100.8
X126.0Y-41.0
X126.0Y-61.0
X126.0Y-91.0
X126.55Y-125.325
X126.735Y-116.925
X126.75Y-83.5
X126.8Y-131.0
X127.0Y-71.0
X127.0Y-136.0
X127.4Y-96.0
X127.605Y-76.105
X127.75Y-79.35
X127.8Y-117.6
X128.35Y-77.488
X128.5Y-56.0
X128.5Y-116.0
X128.95Y-78.75
X129.097Y-118.221
X129.3Y-106.1
X129.4Y-126.0
X129.6Y-78.088
X129.7Y-117.525
X130.0Y-119.1
X130.7Y-122.0
X130.9Y-60.4
X130.9Y-82.5
X131.0Y-41.0
X131.0Y-51.0
X131.0Y-71.0
X131.0Y-100.8
X131.0Y-111.0
X131.0Y-131.0
X131.6Y-121.0
X131.7Y-81.0
X131.9Y-126.0
X132.0Y-91.1
X132.6Y-43.95
X132.6Y-49.05
X132.9Y-96.0
X133.0Y-55.0
X133.1Y-86.0
X133.5Y-46.0
X133.5Y-66.0
X133.5Y-76.0
X133.5Y-106.0
X133.5Y-116.0
X133.5Y-136.0
X135.2Y-91.1
X136.0Y-41.0
X136.0Y-51.0
X136.0Y-61.0
X136.0Y-71.0
X136.0Y-81.0
X136.0Y-111.0
X136.0Y-131.0
X136.4Y-101.0
X136.8Y-121.1
X137.4Y-86.0
X138.5Y-76.0
X138.5Y-96.0
X138.5Y-106.0
X138.5Y-116.0
X138.5Y-126.0
X138.5Y-136.0
X138.6Y-66.0
X139.0Y-46.0
X139.0Y-52.5
X139.7Y-131.0
X141.0Y-51.0
X141.0Y-81.0
X141.0Y-90.4
X141.0Y-101.0
X141.0Y-111.0
X142.8Y-116.5
X143.5Y-66.0
X143.5Y-76.0
X143.5Y-86.0
X143.5Y-96.0
X143.5Y-106.0
X143.5Y-136.0
X144.7Y-126.0
X146.0Y-81.0
X146.0Y-90.4
X146.0Y-101.0
X146.0Y-111.0
X146.0Y-121.0
X146.0Y-131.0
X147.3Y-116.1
X147.5Y-61.6
X148.3Y-66.0
X148.5Y-76.0
X148.5Y-86.0
X148.5Y-96.0
X148.5Y-106.0
X150.1Y-83.65
X150.1Y-101.3
X150.1Y-108.7
X151.0Y-51.0
X151.0Y-81.0
X151.0Y-90.3
X151.0Y-121.0
X151.2Y-61.0
X151.6Y-52.5
X151.8Y-71.0
X152.25Y-117.0
X152.8Y-86.0
X153.0Y-96.0
X153.0Y-106.0
X153.5Y-46.0
X153.5Y-56.0
X153.5Y-116.0
X153.5Y-136.0
X153.7Y-66.5
X154.2Y-76.0
X154.55Y-69.397
X154.588Y-61.498
X154.588Y-65.688
X154.588Y-77.448
X154.588Y-85.448
X154.588Y-102.47
X154.6Y-81.765
X154.6Y-89.656
X154.6Y-93.656
X154.6Y-97.896
X154.602Y-106.655
X154.688Y-110.97
X154.7Y-115.179
X154.795Y-123.14
X154.8Y-118.821
X155.5Y-51.0
X155.811Y-91.532
X156.0Y-41.0
X156.0Y-121.0
X156.0Y-131.0
X156.6Y-76.0
X156.922Y-102.435
X156.938Y-61.498
X156.938Y-77.448
X156.938Y-85.434
X156.95Y-81.779
X156.95Y-89.656
X156.95Y-93.642
X156.95Y-97.896
X156.952Y-106.655
X157.05Y-110.821
X157.05Y-115.179
X157.155Y-118.89
X158.2Y-86.0
X158.5Y-66.0
X158.5Y-96.0
X158.5Y-116.0
X158.5Y-126.0
X158.7Y-56.0
X159.45Y-106.0
X159.8Y-76.1
X160.0Y-81.0
X160.1Y-121.1
X160.2Y-101.0
X160.4Y-71.0
X161.0Y-41.0
X161.0Y-131.0
X161.4Y-61.0
X161.5Y-51.0
X161.5Y-110.9
X161.6Y-91.0
X162.8Y-66.0
X163.1Y-86.0
X163.5Y-46.0
X163.5Y-106.0
X163.5Y-136.0
X163.9Y-126.1
X164.1Y-68.5
X164.1Y-76.1
X164.2Y-116.0
X164.3Y-96.0
X165.4Y-63.3
X165.6Y-71.0
X165.95Y-131.55
X166.0Y-41.0
X168.5Y-66.0
X168.5Y-106.0
X168.5Y-116.0
X169.2Y-96.1
X171.0Y-41.0
X171.0Y-51.0
X171.0Y-101.0
X171.0Y-111.0
X171.0Y-131.0
X171.7Y-71.0
X172.0Y-81.0
X172.9Y-116.0
X173.5Y-46.0
X173.5Y-56.0
X173.5Y-66.0
X173.5Y-76.0
X173.5Y-86.0
X173.5Y-96.0
X173.5Y-106.0
X173.5Y-126.0
X173.5Y-136.0
X176.0Y-41.0
X176.0Y-51.0
X176.0Y-61.0
X176.0Y-71.0
X176.0Y-81.0
X176.0Y-91.0
X176.0Y-101.0
X176.0Y-111.0
X176.0Y-121.0
X176.0Y-131.0
T4
X164.998Y-52.137
X164.998Y-54.417
X164.998Y-56.697
X164.998Y-58.977
X164.998Y-61.257
X164.998Y-84.987
X164.998Y-87.267
X164.998Y-89.547
X164.998Y-91.827
X164.998Y-94.107
X164.998Y-118.127
X164.998Y-120.407
X164.998Y-122.687
X164.998Y-124.967
X164.998Y-127.247
X167.537Y-50.997
X167.537Y-53.277
X167.537Y-55.557
X167.537Y-57.837
X167.537Y-60.117
X167.537Y-83.847
X167.537Y-86.127
X167.537Y-88.407
X167.537Y-90.687
X167.537Y-92.967
X167.537Y-116.987
X167.537Y-119.267
X167.537Y-121.547
X167.537Y-123.827
X167.537Y-126.107
X170.077Y-52.137
X170.077Y-54.417
X170.077Y-56.697
X170.077Y-58.977
X170.077Y-61.257
X170.077Y-84.987
X170.077Y-87.267
X170.077Y-89.547
X170.077Y-91.827
X170.077Y-94.107
X170.077Y-118.127
X170.077Y-120.407
X170.077Y-122.687
X170.077Y-124.967
X170.077Y-127.247
T5
X90.73Y-68.57
X90.73Y-71.11
X90.73Y-73.65
X90.73Y-76.19
X90.73Y-78.73
X90.73Y-81.27
X90.73Y-83.81
X90.73Y-86.35
X90.73Y-88.89
X90.73Y-91.43
X90.73Y-93.97
X90.73Y-96.51
X90.73Y-99.05
X90.73Y-101.59
X90.73Y-104.13
X90.73Y-106.67
X90.73Y-109.21
X90.73Y-111.75
X90.73Y-114.29
X90.73Y-116.83
X93.27Y-68.57
X93.27Y-71.11
X93.27Y-73.65
X93.27Y-76.19
X93.27Y-78.73
X93.27Y-81.27
X93.27Y-83.81
X93.27Y-86.35
X93.27Y-88.89
X93.27Y-91.43
X93.27Y-93.97
X93.27Y-96.51
X93.27Y-99.05
X93.27Y-101.59
X93.27Y-104.13
X93.27Y-106.67
X93.27Y-109.21
X93.27Y-111.75
X93.27Y-114.29
X93.27Y-116.83
T6
X89.055Y-44.7
X91.595Y-44.7
T7
X83.8Y-43.9
X83.8Y-135.2
X159.4Y-43.8
X159.4Y-135.2
T8
X167.537Y-43.947
X167.537Y-68.937
X167.537Y-76.797
X167.537Y-101.787
X167.537Y-109.937
X167.537Y-134.927
M30
