G04 #@! TF.GenerationSoftware,KiCad,Pcbnew,8.0.6*
G04 #@! TF.CreationDate,2025-11-17T16:53:35-08:00*
G04 #@! TF.ProjectId,DAQ,4441512e-6b69-4636-9164-5f7063625858,2*
G04 #@! TF.SameCoordinates,Original*
G04 #@! TF.FileFunction,Legend,Bot*
G04 #@! TF.FilePolarity,Positive*
%FSLAX46Y46*%
G04 Gerber Fmt 4.6, Leading zero omitted, Abs format (unit mm)*
G04 Created by KiCad (PCBNEW 8.0.6) date 2025-11-17 16:53:35*
%MOMM*%
%LPD*%
G01*
G04 APERTURE LIST*
G04 Aperture macros list*
%AMRoundRect*
0 Rectangle with rounded corners*
0 $1 Rounding radius*
0 $2 $3 $4 $5 $6 $7 $8 $9 X,Y pos of 4 corners*
0 Add a 4 corners polygon primitive as box body*
4,1,4,$2,$3,$4,$5,$6,$7,$8,$9,$2,$3,0*
0 Add four circle primitives for the rounded corners*
1,1,$1+$1,$2,$3*
1,1,$1+$1,$4,$5*
1,1,$1+$1,$6,$7*
1,1,$1+$1,$8,$9*
0 Add four rect primitives between the rounded corners*
20,1,$1+$1,$2,$3,$4,$5,0*
20,1,$1+$1,$4,$5,$6,$7,0*
20,1,$1+$1,$6,$7,$8,$9,0*
20,1,$1+$1,$8,$9,$2,$3,0*%
G04 Aperture macros list end*
%ADD10C,0.125000*%
%ADD11C,0.098425*%
%ADD12C,0.127000*%
%ADD13C,0.200000*%
%ADD14C,0.152400*%
%ADD15RoundRect,0.102000X0.754000X-0.754000X0.754000X0.754000X-0.754000X0.754000X-0.754000X-0.754000X0*%
%ADD16C,1.712000*%
%ADD17C,4.420000*%
%ADD18C,5.000000*%
%ADD19RoundRect,0.076200X-0.892500X-0.892500X0.892500X-0.892500X0.892500X0.892500X-0.892500X0.892500X0*%
%ADD20C,1.937400*%
%ADD21R,0.863600X0.965200*%
%ADD22RoundRect,0.102000X0.735000X-0.555000X0.735000X0.555000X-0.735000X0.555000X-0.735000X-0.555000X0*%
%ADD23RoundRect,0.102000X-0.590000X-0.885000X0.590000X-0.885000X0.590000X0.885000X-0.590000X0.885000X0*%
%ADD24RoundRect,0.102000X0.490000X-0.460000X0.490000X0.460000X-0.490000X0.460000X-0.490000X-0.460000X0*%
%ADD25RoundRect,0.102000X-0.430000X-0.490000X0.430000X-0.490000X0.430000X0.490000X-0.430000X0.490000X0*%
%ADD26R,0.249999X0.599999*%
%ADD27R,0.599999X0.249999*%
%ADD28R,2.100001X2.100001*%
%ADD29C,0.499999*%
%ADD30RoundRect,0.102000X0.485000X-0.490000X0.485000X0.490000X-0.485000X0.490000X-0.485000X-0.490000X0*%
%ADD31R,0.655600X0.800000*%
%ADD32RoundRect,0.102000X0.430000X0.490000X-0.430000X0.490000X-0.430000X-0.490000X0.430000X-0.490000X0*%
%ADD33C,2.750000*%
%ADD34C,2.722358*%
%ADD35R,1.750000X1.750000*%
%ADD36C,1.750000*%
G04 APERTURE END LIST*
D10*
X119883333Y-130524809D02*
X120049999Y-130286714D01*
X120169047Y-130524809D02*
X120169047Y-130024809D01*
X120169047Y-130024809D02*
X119978571Y-130024809D01*
X119978571Y-130024809D02*
X119930952Y-130048619D01*
X119930952Y-130048619D02*
X119907142Y-130072428D01*
X119907142Y-130072428D02*
X119883333Y-130120047D01*
X119883333Y-130120047D02*
X119883333Y-130191476D01*
X119883333Y-130191476D02*
X119907142Y-130239095D01*
X119907142Y-130239095D02*
X119930952Y-130262904D01*
X119930952Y-130262904D02*
X119978571Y-130286714D01*
X119978571Y-130286714D02*
X120169047Y-130286714D01*
X119597618Y-130239095D02*
X119645237Y-130215285D01*
X119645237Y-130215285D02*
X119669047Y-130191476D01*
X119669047Y-130191476D02*
X119692856Y-130143857D01*
X119692856Y-130143857D02*
X119692856Y-130120047D01*
X119692856Y-130120047D02*
X119669047Y-130072428D01*
X119669047Y-130072428D02*
X119645237Y-130048619D01*
X119645237Y-130048619D02*
X119597618Y-130024809D01*
X119597618Y-130024809D02*
X119502380Y-130024809D01*
X119502380Y-130024809D02*
X119454761Y-130048619D01*
X119454761Y-130048619D02*
X119430952Y-130072428D01*
X119430952Y-130072428D02*
X119407142Y-130120047D01*
X119407142Y-130120047D02*
X119407142Y-130143857D01*
X119407142Y-130143857D02*
X119430952Y-130191476D01*
X119430952Y-130191476D02*
X119454761Y-130215285D01*
X119454761Y-130215285D02*
X119502380Y-130239095D01*
X119502380Y-130239095D02*
X119597618Y-130239095D01*
X119597618Y-130239095D02*
X119645237Y-130262904D01*
X119645237Y-130262904D02*
X119669047Y-130286714D01*
X119669047Y-130286714D02*
X119692856Y-130334333D01*
X119692856Y-130334333D02*
X119692856Y-130429571D01*
X119692856Y-130429571D02*
X119669047Y-130477190D01*
X119669047Y-130477190D02*
X119645237Y-130501000D01*
X119645237Y-130501000D02*
X119597618Y-130524809D01*
X119597618Y-130524809D02*
X119502380Y-130524809D01*
X119502380Y-130524809D02*
X119454761Y-130501000D01*
X119454761Y-130501000D02*
X119430952Y-130477190D01*
X119430952Y-130477190D02*
X119407142Y-130429571D01*
X119407142Y-130429571D02*
X119407142Y-130334333D01*
X119407142Y-130334333D02*
X119430952Y-130286714D01*
X119430952Y-130286714D02*
X119454761Y-130262904D01*
X119454761Y-130262904D02*
X119502380Y-130239095D01*
D11*
X108978092Y-76530204D02*
X108996840Y-76548952D01*
X108996840Y-76548952D02*
X109053083Y-76567699D01*
X109053083Y-76567699D02*
X109090578Y-76567699D01*
X109090578Y-76567699D02*
X109146821Y-76548952D01*
X109146821Y-76548952D02*
X109184317Y-76511456D01*
X109184317Y-76511456D02*
X109203064Y-76473961D01*
X109203064Y-76473961D02*
X109221812Y-76398970D01*
X109221812Y-76398970D02*
X109221812Y-76342727D01*
X109221812Y-76342727D02*
X109203064Y-76267737D01*
X109203064Y-76267737D02*
X109184317Y-76230241D01*
X109184317Y-76230241D02*
X109146821Y-76192746D01*
X109146821Y-76192746D02*
X109090578Y-76173998D01*
X109090578Y-76173998D02*
X109053083Y-76173998D01*
X109053083Y-76173998D02*
X108996840Y-76192746D01*
X108996840Y-76192746D02*
X108978092Y-76211494D01*
X108828111Y-76211494D02*
X108809363Y-76192746D01*
X108809363Y-76192746D02*
X108771868Y-76173998D01*
X108771868Y-76173998D02*
X108678130Y-76173998D01*
X108678130Y-76173998D02*
X108640634Y-76192746D01*
X108640634Y-76192746D02*
X108621887Y-76211494D01*
X108621887Y-76211494D02*
X108603139Y-76248989D01*
X108603139Y-76248989D02*
X108603139Y-76286484D01*
X108603139Y-76286484D02*
X108621887Y-76342727D01*
X108621887Y-76342727D02*
X108846859Y-76567699D01*
X108846859Y-76567699D02*
X108603139Y-76567699D01*
X108378167Y-76342727D02*
X108415663Y-76323980D01*
X108415663Y-76323980D02*
X108434410Y-76305232D01*
X108434410Y-76305232D02*
X108453158Y-76267737D01*
X108453158Y-76267737D02*
X108453158Y-76248989D01*
X108453158Y-76248989D02*
X108434410Y-76211494D01*
X108434410Y-76211494D02*
X108415663Y-76192746D01*
X108415663Y-76192746D02*
X108378167Y-76173998D01*
X108378167Y-76173998D02*
X108303177Y-76173998D01*
X108303177Y-76173998D02*
X108265681Y-76192746D01*
X108265681Y-76192746D02*
X108246934Y-76211494D01*
X108246934Y-76211494D02*
X108228186Y-76248989D01*
X108228186Y-76248989D02*
X108228186Y-76267737D01*
X108228186Y-76267737D02*
X108246934Y-76305232D01*
X108246934Y-76305232D02*
X108265681Y-76323980D01*
X108265681Y-76323980D02*
X108303177Y-76342727D01*
X108303177Y-76342727D02*
X108378167Y-76342727D01*
X108378167Y-76342727D02*
X108415663Y-76361475D01*
X108415663Y-76361475D02*
X108434410Y-76380223D01*
X108434410Y-76380223D02*
X108453158Y-76417718D01*
X108453158Y-76417718D02*
X108453158Y-76492709D01*
X108453158Y-76492709D02*
X108434410Y-76530204D01*
X108434410Y-76530204D02*
X108415663Y-76548952D01*
X108415663Y-76548952D02*
X108378167Y-76567699D01*
X108378167Y-76567699D02*
X108303177Y-76567699D01*
X108303177Y-76567699D02*
X108265681Y-76548952D01*
X108265681Y-76548952D02*
X108246934Y-76530204D01*
X108246934Y-76530204D02*
X108228186Y-76492709D01*
X108228186Y-76492709D02*
X108228186Y-76417718D01*
X108228186Y-76417718D02*
X108246934Y-76380223D01*
X108246934Y-76380223D02*
X108265681Y-76361475D01*
X108265681Y-76361475D02*
X108303177Y-76342727D01*
X109748094Y-115739519D02*
X109766842Y-115758267D01*
X109766842Y-115758267D02*
X109823085Y-115777014D01*
X109823085Y-115777014D02*
X109860580Y-115777014D01*
X109860580Y-115777014D02*
X109916823Y-115758267D01*
X109916823Y-115758267D02*
X109954319Y-115720771D01*
X109954319Y-115720771D02*
X109973066Y-115683276D01*
X109973066Y-115683276D02*
X109991814Y-115608285D01*
X109991814Y-115608285D02*
X109991814Y-115552042D01*
X109991814Y-115552042D02*
X109973066Y-115477052D01*
X109973066Y-115477052D02*
X109954319Y-115439556D01*
X109954319Y-115439556D02*
X109916823Y-115402061D01*
X109916823Y-115402061D02*
X109860580Y-115383313D01*
X109860580Y-115383313D02*
X109823085Y-115383313D01*
X109823085Y-115383313D02*
X109766842Y-115402061D01*
X109766842Y-115402061D02*
X109748094Y-115420809D01*
X109616861Y-115383313D02*
X109373141Y-115383313D01*
X109373141Y-115383313D02*
X109504375Y-115533295D01*
X109504375Y-115533295D02*
X109448132Y-115533295D01*
X109448132Y-115533295D02*
X109410636Y-115552042D01*
X109410636Y-115552042D02*
X109391889Y-115570790D01*
X109391889Y-115570790D02*
X109373141Y-115608285D01*
X109373141Y-115608285D02*
X109373141Y-115702024D01*
X109373141Y-115702024D02*
X109391889Y-115739519D01*
X109391889Y-115739519D02*
X109410636Y-115758267D01*
X109410636Y-115758267D02*
X109448132Y-115777014D01*
X109448132Y-115777014D02*
X109560618Y-115777014D01*
X109560618Y-115777014D02*
X109598113Y-115758267D01*
X109598113Y-115758267D02*
X109616861Y-115739519D01*
X109129422Y-115383313D02*
X109091926Y-115383313D01*
X109091926Y-115383313D02*
X109054431Y-115402061D01*
X109054431Y-115402061D02*
X109035683Y-115420809D01*
X109035683Y-115420809D02*
X109016936Y-115458304D01*
X109016936Y-115458304D02*
X108998188Y-115533295D01*
X108998188Y-115533295D02*
X108998188Y-115627033D01*
X108998188Y-115627033D02*
X109016936Y-115702024D01*
X109016936Y-115702024D02*
X109035683Y-115739519D01*
X109035683Y-115739519D02*
X109054431Y-115758267D01*
X109054431Y-115758267D02*
X109091926Y-115777014D01*
X109091926Y-115777014D02*
X109129422Y-115777014D01*
X109129422Y-115777014D02*
X109166917Y-115758267D01*
X109166917Y-115758267D02*
X109185665Y-115739519D01*
X109185665Y-115739519D02*
X109204412Y-115702024D01*
X109204412Y-115702024D02*
X109223160Y-115627033D01*
X109223160Y-115627033D02*
X109223160Y-115533295D01*
X109223160Y-115533295D02*
X109204412Y-115458304D01*
X109204412Y-115458304D02*
X109185665Y-115420809D01*
X109185665Y-115420809D02*
X109166917Y-115402061D01*
X109166917Y-115402061D02*
X109129422Y-115383313D01*
X119153092Y-87539519D02*
X119171840Y-87558267D01*
X119171840Y-87558267D02*
X119228083Y-87577014D01*
X119228083Y-87577014D02*
X119265578Y-87577014D01*
X119265578Y-87577014D02*
X119321821Y-87558267D01*
X119321821Y-87558267D02*
X119359317Y-87520771D01*
X119359317Y-87520771D02*
X119378064Y-87483276D01*
X119378064Y-87483276D02*
X119396812Y-87408285D01*
X119396812Y-87408285D02*
X119396812Y-87352042D01*
X119396812Y-87352042D02*
X119378064Y-87277052D01*
X119378064Y-87277052D02*
X119359317Y-87239556D01*
X119359317Y-87239556D02*
X119321821Y-87202061D01*
X119321821Y-87202061D02*
X119265578Y-87183313D01*
X119265578Y-87183313D02*
X119228083Y-87183313D01*
X119228083Y-87183313D02*
X119171840Y-87202061D01*
X119171840Y-87202061D02*
X119153092Y-87220809D01*
X118778139Y-87577014D02*
X119003111Y-87577014D01*
X118890625Y-87577014D02*
X118890625Y-87183313D01*
X118890625Y-87183313D02*
X118928120Y-87239556D01*
X118928120Y-87239556D02*
X118965616Y-87277052D01*
X118965616Y-87277052D02*
X119003111Y-87295799D01*
X118440681Y-87183313D02*
X118515672Y-87183313D01*
X118515672Y-87183313D02*
X118553167Y-87202061D01*
X118553167Y-87202061D02*
X118571915Y-87220809D01*
X118571915Y-87220809D02*
X118609410Y-87277052D01*
X118609410Y-87277052D02*
X118628158Y-87352042D01*
X118628158Y-87352042D02*
X118628158Y-87502024D01*
X118628158Y-87502024D02*
X118609410Y-87539519D01*
X118609410Y-87539519D02*
X118590663Y-87558267D01*
X118590663Y-87558267D02*
X118553167Y-87577014D01*
X118553167Y-87577014D02*
X118478177Y-87577014D01*
X118478177Y-87577014D02*
X118440681Y-87558267D01*
X118440681Y-87558267D02*
X118421934Y-87539519D01*
X118421934Y-87539519D02*
X118403186Y-87502024D01*
X118403186Y-87502024D02*
X118403186Y-87408285D01*
X118403186Y-87408285D02*
X118421934Y-87370790D01*
X118421934Y-87370790D02*
X118440681Y-87352042D01*
X118440681Y-87352042D02*
X118478177Y-87333295D01*
X118478177Y-87333295D02*
X118553167Y-87333295D01*
X118553167Y-87333295D02*
X118590663Y-87352042D01*
X118590663Y-87352042D02*
X118609410Y-87370790D01*
X118609410Y-87370790D02*
X118628158Y-87408285D01*
X122253092Y-108839519D02*
X122271840Y-108858267D01*
X122271840Y-108858267D02*
X122328083Y-108877014D01*
X122328083Y-108877014D02*
X122365578Y-108877014D01*
X122365578Y-108877014D02*
X122421821Y-108858267D01*
X122421821Y-108858267D02*
X122459317Y-108820771D01*
X122459317Y-108820771D02*
X122478064Y-108783276D01*
X122478064Y-108783276D02*
X122496812Y-108708285D01*
X122496812Y-108708285D02*
X122496812Y-108652042D01*
X122496812Y-108652042D02*
X122478064Y-108577052D01*
X122478064Y-108577052D02*
X122459317Y-108539556D01*
X122459317Y-108539556D02*
X122421821Y-108502061D01*
X122421821Y-108502061D02*
X122365578Y-108483313D01*
X122365578Y-108483313D02*
X122328083Y-108483313D01*
X122328083Y-108483313D02*
X122271840Y-108502061D01*
X122271840Y-108502061D02*
X122253092Y-108520809D01*
X122103111Y-108520809D02*
X122084363Y-108502061D01*
X122084363Y-108502061D02*
X122046868Y-108483313D01*
X122046868Y-108483313D02*
X121953130Y-108483313D01*
X121953130Y-108483313D02*
X121915634Y-108502061D01*
X121915634Y-108502061D02*
X121896887Y-108520809D01*
X121896887Y-108520809D02*
X121878139Y-108558304D01*
X121878139Y-108558304D02*
X121878139Y-108595799D01*
X121878139Y-108595799D02*
X121896887Y-108652042D01*
X121896887Y-108652042D02*
X122121859Y-108877014D01*
X122121859Y-108877014D02*
X121878139Y-108877014D01*
X121521934Y-108483313D02*
X121709410Y-108483313D01*
X121709410Y-108483313D02*
X121728158Y-108670790D01*
X121728158Y-108670790D02*
X121709410Y-108652042D01*
X121709410Y-108652042D02*
X121671915Y-108633295D01*
X121671915Y-108633295D02*
X121578177Y-108633295D01*
X121578177Y-108633295D02*
X121540681Y-108652042D01*
X121540681Y-108652042D02*
X121521934Y-108670790D01*
X121521934Y-108670790D02*
X121503186Y-108708285D01*
X121503186Y-108708285D02*
X121503186Y-108802024D01*
X121503186Y-108802024D02*
X121521934Y-108839519D01*
X121521934Y-108839519D02*
X121540681Y-108858267D01*
X121540681Y-108858267D02*
X121578177Y-108877014D01*
X121578177Y-108877014D02*
X121671915Y-108877014D01*
X121671915Y-108877014D02*
X121709410Y-108858267D01*
X121709410Y-108858267D02*
X121728158Y-108839519D01*
X111428092Y-76730204D02*
X111446840Y-76748952D01*
X111446840Y-76748952D02*
X111503083Y-76767699D01*
X111503083Y-76767699D02*
X111540578Y-76767699D01*
X111540578Y-76767699D02*
X111596821Y-76748952D01*
X111596821Y-76748952D02*
X111634317Y-76711456D01*
X111634317Y-76711456D02*
X111653064Y-76673961D01*
X111653064Y-76673961D02*
X111671812Y-76598970D01*
X111671812Y-76598970D02*
X111671812Y-76542727D01*
X111671812Y-76542727D02*
X111653064Y-76467737D01*
X111653064Y-76467737D02*
X111634317Y-76430241D01*
X111634317Y-76430241D02*
X111596821Y-76392746D01*
X111596821Y-76392746D02*
X111540578Y-76373998D01*
X111540578Y-76373998D02*
X111503083Y-76373998D01*
X111503083Y-76373998D02*
X111446840Y-76392746D01*
X111446840Y-76392746D02*
X111428092Y-76411494D01*
X111296859Y-76373998D02*
X111053139Y-76373998D01*
X111053139Y-76373998D02*
X111184373Y-76523980D01*
X111184373Y-76523980D02*
X111128130Y-76523980D01*
X111128130Y-76523980D02*
X111090634Y-76542727D01*
X111090634Y-76542727D02*
X111071887Y-76561475D01*
X111071887Y-76561475D02*
X111053139Y-76598970D01*
X111053139Y-76598970D02*
X111053139Y-76692709D01*
X111053139Y-76692709D02*
X111071887Y-76730204D01*
X111071887Y-76730204D02*
X111090634Y-76748952D01*
X111090634Y-76748952D02*
X111128130Y-76767699D01*
X111128130Y-76767699D02*
X111240616Y-76767699D01*
X111240616Y-76767699D02*
X111278111Y-76748952D01*
X111278111Y-76748952D02*
X111296859Y-76730204D01*
X110903158Y-76411494D02*
X110884410Y-76392746D01*
X110884410Y-76392746D02*
X110846915Y-76373998D01*
X110846915Y-76373998D02*
X110753177Y-76373998D01*
X110753177Y-76373998D02*
X110715681Y-76392746D01*
X110715681Y-76392746D02*
X110696934Y-76411494D01*
X110696934Y-76411494D02*
X110678186Y-76448989D01*
X110678186Y-76448989D02*
X110678186Y-76486484D01*
X110678186Y-76486484D02*
X110696934Y-76542727D01*
X110696934Y-76542727D02*
X110921906Y-76767699D01*
X110921906Y-76767699D02*
X110678186Y-76767699D01*
X113453092Y-111939519D02*
X113471840Y-111958267D01*
X113471840Y-111958267D02*
X113528083Y-111977014D01*
X113528083Y-111977014D02*
X113565578Y-111977014D01*
X113565578Y-111977014D02*
X113621821Y-111958267D01*
X113621821Y-111958267D02*
X113659317Y-111920771D01*
X113659317Y-111920771D02*
X113678064Y-111883276D01*
X113678064Y-111883276D02*
X113696812Y-111808285D01*
X113696812Y-111808285D02*
X113696812Y-111752042D01*
X113696812Y-111752042D02*
X113678064Y-111677052D01*
X113678064Y-111677052D02*
X113659317Y-111639556D01*
X113659317Y-111639556D02*
X113621821Y-111602061D01*
X113621821Y-111602061D02*
X113565578Y-111583313D01*
X113565578Y-111583313D02*
X113528083Y-111583313D01*
X113528083Y-111583313D02*
X113471840Y-111602061D01*
X113471840Y-111602061D02*
X113453092Y-111620809D01*
X113078139Y-111977014D02*
X113303111Y-111977014D01*
X113190625Y-111977014D02*
X113190625Y-111583313D01*
X113190625Y-111583313D02*
X113228120Y-111639556D01*
X113228120Y-111639556D02*
X113265616Y-111677052D01*
X113265616Y-111677052D02*
X113303111Y-111695799D01*
X112946906Y-111583313D02*
X112684438Y-111583313D01*
X112684438Y-111583313D02*
X112853167Y-111977014D01*
X124465616Y-129439519D02*
X124484364Y-129458267D01*
X124484364Y-129458267D02*
X124540607Y-129477014D01*
X124540607Y-129477014D02*
X124578102Y-129477014D01*
X124578102Y-129477014D02*
X124634345Y-129458267D01*
X124634345Y-129458267D02*
X124671841Y-129420771D01*
X124671841Y-129420771D02*
X124690588Y-129383276D01*
X124690588Y-129383276D02*
X124709336Y-129308285D01*
X124709336Y-129308285D02*
X124709336Y-129252042D01*
X124709336Y-129252042D02*
X124690588Y-129177052D01*
X124690588Y-129177052D02*
X124671841Y-129139556D01*
X124671841Y-129139556D02*
X124634345Y-129102061D01*
X124634345Y-129102061D02*
X124578102Y-129083313D01*
X124578102Y-129083313D02*
X124540607Y-129083313D01*
X124540607Y-129083313D02*
X124484364Y-129102061D01*
X124484364Y-129102061D02*
X124465616Y-129120809D01*
X124334383Y-129083313D02*
X124090663Y-129083313D01*
X124090663Y-129083313D02*
X124221897Y-129233295D01*
X124221897Y-129233295D02*
X124165654Y-129233295D01*
X124165654Y-129233295D02*
X124128158Y-129252042D01*
X124128158Y-129252042D02*
X124109411Y-129270790D01*
X124109411Y-129270790D02*
X124090663Y-129308285D01*
X124090663Y-129308285D02*
X124090663Y-129402024D01*
X124090663Y-129402024D02*
X124109411Y-129439519D01*
X124109411Y-129439519D02*
X124128158Y-129458267D01*
X124128158Y-129458267D02*
X124165654Y-129477014D01*
X124165654Y-129477014D02*
X124278140Y-129477014D01*
X124278140Y-129477014D02*
X124315635Y-129458267D01*
X124315635Y-129458267D02*
X124334383Y-129439519D01*
X124953092Y-115977014D02*
X125084326Y-115789538D01*
X125178064Y-115977014D02*
X125178064Y-115583313D01*
X125178064Y-115583313D02*
X125028083Y-115583313D01*
X125028083Y-115583313D02*
X124990588Y-115602061D01*
X124990588Y-115602061D02*
X124971840Y-115620809D01*
X124971840Y-115620809D02*
X124953092Y-115658304D01*
X124953092Y-115658304D02*
X124953092Y-115714547D01*
X124953092Y-115714547D02*
X124971840Y-115752042D01*
X124971840Y-115752042D02*
X124990588Y-115770790D01*
X124990588Y-115770790D02*
X125028083Y-115789538D01*
X125028083Y-115789538D02*
X125178064Y-115789538D01*
X124615634Y-115714547D02*
X124615634Y-115977014D01*
X124709373Y-115564566D02*
X124803111Y-115845781D01*
X124803111Y-115845781D02*
X124559391Y-115845781D01*
X124203186Y-115977014D02*
X124428158Y-115977014D01*
X124315672Y-115977014D02*
X124315672Y-115583313D01*
X124315672Y-115583313D02*
X124353167Y-115639556D01*
X124353167Y-115639556D02*
X124390663Y-115677052D01*
X124390663Y-115677052D02*
X124428158Y-115695799D01*
D10*
X127721428Y-63524809D02*
X127888094Y-63286714D01*
X128007142Y-63524809D02*
X128007142Y-63024809D01*
X128007142Y-63024809D02*
X127816666Y-63024809D01*
X127816666Y-63024809D02*
X127769047Y-63048619D01*
X127769047Y-63048619D02*
X127745237Y-63072428D01*
X127745237Y-63072428D02*
X127721428Y-63120047D01*
X127721428Y-63120047D02*
X127721428Y-63191476D01*
X127721428Y-63191476D02*
X127745237Y-63239095D01*
X127745237Y-63239095D02*
X127769047Y-63262904D01*
X127769047Y-63262904D02*
X127816666Y-63286714D01*
X127816666Y-63286714D02*
X128007142Y-63286714D01*
X127245237Y-63524809D02*
X127530951Y-63524809D01*
X127388094Y-63524809D02*
X127388094Y-63024809D01*
X127388094Y-63024809D02*
X127435713Y-63096238D01*
X127435713Y-63096238D02*
X127483332Y-63143857D01*
X127483332Y-63143857D02*
X127530951Y-63167666D01*
X127054761Y-63072428D02*
X127030952Y-63048619D01*
X127030952Y-63048619D02*
X126983333Y-63024809D01*
X126983333Y-63024809D02*
X126864285Y-63024809D01*
X126864285Y-63024809D02*
X126816666Y-63048619D01*
X126816666Y-63048619D02*
X126792857Y-63072428D01*
X126792857Y-63072428D02*
X126769047Y-63120047D01*
X126769047Y-63120047D02*
X126769047Y-63167666D01*
X126769047Y-63167666D02*
X126792857Y-63239095D01*
X126792857Y-63239095D02*
X127078571Y-63524809D01*
X127078571Y-63524809D02*
X126769047Y-63524809D01*
D11*
X117765616Y-126139519D02*
X117784364Y-126158267D01*
X117784364Y-126158267D02*
X117840607Y-126177014D01*
X117840607Y-126177014D02*
X117878102Y-126177014D01*
X117878102Y-126177014D02*
X117934345Y-126158267D01*
X117934345Y-126158267D02*
X117971841Y-126120771D01*
X117971841Y-126120771D02*
X117990588Y-126083276D01*
X117990588Y-126083276D02*
X118009336Y-126008285D01*
X118009336Y-126008285D02*
X118009336Y-125952042D01*
X118009336Y-125952042D02*
X117990588Y-125877052D01*
X117990588Y-125877052D02*
X117971841Y-125839556D01*
X117971841Y-125839556D02*
X117934345Y-125802061D01*
X117934345Y-125802061D02*
X117878102Y-125783313D01*
X117878102Y-125783313D02*
X117840607Y-125783313D01*
X117840607Y-125783313D02*
X117784364Y-125802061D01*
X117784364Y-125802061D02*
X117765616Y-125820809D01*
X117428158Y-125783313D02*
X117503149Y-125783313D01*
X117503149Y-125783313D02*
X117540644Y-125802061D01*
X117540644Y-125802061D02*
X117559392Y-125820809D01*
X117559392Y-125820809D02*
X117596887Y-125877052D01*
X117596887Y-125877052D02*
X117615635Y-125952042D01*
X117615635Y-125952042D02*
X117615635Y-126102024D01*
X117615635Y-126102024D02*
X117596887Y-126139519D01*
X117596887Y-126139519D02*
X117578140Y-126158267D01*
X117578140Y-126158267D02*
X117540644Y-126177014D01*
X117540644Y-126177014D02*
X117465654Y-126177014D01*
X117465654Y-126177014D02*
X117428158Y-126158267D01*
X117428158Y-126158267D02*
X117409411Y-126139519D01*
X117409411Y-126139519D02*
X117390663Y-126102024D01*
X117390663Y-126102024D02*
X117390663Y-126008285D01*
X117390663Y-126008285D02*
X117409411Y-125970790D01*
X117409411Y-125970790D02*
X117428158Y-125952042D01*
X117428158Y-125952042D02*
X117465654Y-125933295D01*
X117465654Y-125933295D02*
X117540644Y-125933295D01*
X117540644Y-125933295D02*
X117578140Y-125952042D01*
X117578140Y-125952042D02*
X117596887Y-125970790D01*
X117596887Y-125970790D02*
X117615635Y-126008285D01*
X129053092Y-69739519D02*
X129071840Y-69758267D01*
X129071840Y-69758267D02*
X129128083Y-69777014D01*
X129128083Y-69777014D02*
X129165578Y-69777014D01*
X129165578Y-69777014D02*
X129221821Y-69758267D01*
X129221821Y-69758267D02*
X129259317Y-69720771D01*
X129259317Y-69720771D02*
X129278064Y-69683276D01*
X129278064Y-69683276D02*
X129296812Y-69608285D01*
X129296812Y-69608285D02*
X129296812Y-69552042D01*
X129296812Y-69552042D02*
X129278064Y-69477052D01*
X129278064Y-69477052D02*
X129259317Y-69439556D01*
X129259317Y-69439556D02*
X129221821Y-69402061D01*
X129221821Y-69402061D02*
X129165578Y-69383313D01*
X129165578Y-69383313D02*
X129128083Y-69383313D01*
X129128083Y-69383313D02*
X129071840Y-69402061D01*
X129071840Y-69402061D02*
X129053092Y-69420809D01*
X128903111Y-69420809D02*
X128884363Y-69402061D01*
X128884363Y-69402061D02*
X128846868Y-69383313D01*
X128846868Y-69383313D02*
X128753130Y-69383313D01*
X128753130Y-69383313D02*
X128715634Y-69402061D01*
X128715634Y-69402061D02*
X128696887Y-69420809D01*
X128696887Y-69420809D02*
X128678139Y-69458304D01*
X128678139Y-69458304D02*
X128678139Y-69495799D01*
X128678139Y-69495799D02*
X128696887Y-69552042D01*
X128696887Y-69552042D02*
X128921859Y-69777014D01*
X128921859Y-69777014D02*
X128678139Y-69777014D01*
X128303186Y-69777014D02*
X128528158Y-69777014D01*
X128415672Y-69777014D02*
X128415672Y-69383313D01*
X128415672Y-69383313D02*
X128453167Y-69439556D01*
X128453167Y-69439556D02*
X128490663Y-69477052D01*
X128490663Y-69477052D02*
X128528158Y-69495799D01*
X114398094Y-123239519D02*
X114416842Y-123258267D01*
X114416842Y-123258267D02*
X114473085Y-123277014D01*
X114473085Y-123277014D02*
X114510580Y-123277014D01*
X114510580Y-123277014D02*
X114566823Y-123258267D01*
X114566823Y-123258267D02*
X114604319Y-123220771D01*
X114604319Y-123220771D02*
X114623066Y-123183276D01*
X114623066Y-123183276D02*
X114641814Y-123108285D01*
X114641814Y-123108285D02*
X114641814Y-123052042D01*
X114641814Y-123052042D02*
X114623066Y-122977052D01*
X114623066Y-122977052D02*
X114604319Y-122939556D01*
X114604319Y-122939556D02*
X114566823Y-122902061D01*
X114566823Y-122902061D02*
X114510580Y-122883313D01*
X114510580Y-122883313D02*
X114473085Y-122883313D01*
X114473085Y-122883313D02*
X114416842Y-122902061D01*
X114416842Y-122902061D02*
X114398094Y-122920809D01*
X114266861Y-122883313D02*
X114023141Y-122883313D01*
X114023141Y-122883313D02*
X114154375Y-123033295D01*
X114154375Y-123033295D02*
X114098132Y-123033295D01*
X114098132Y-123033295D02*
X114060636Y-123052042D01*
X114060636Y-123052042D02*
X114041889Y-123070790D01*
X114041889Y-123070790D02*
X114023141Y-123108285D01*
X114023141Y-123108285D02*
X114023141Y-123202024D01*
X114023141Y-123202024D02*
X114041889Y-123239519D01*
X114041889Y-123239519D02*
X114060636Y-123258267D01*
X114060636Y-123258267D02*
X114098132Y-123277014D01*
X114098132Y-123277014D02*
X114210618Y-123277014D01*
X114210618Y-123277014D02*
X114248113Y-123258267D01*
X114248113Y-123258267D02*
X114266861Y-123239519D01*
X113835665Y-123277014D02*
X113760674Y-123277014D01*
X113760674Y-123277014D02*
X113723179Y-123258267D01*
X113723179Y-123258267D02*
X113704431Y-123239519D01*
X113704431Y-123239519D02*
X113666936Y-123183276D01*
X113666936Y-123183276D02*
X113648188Y-123108285D01*
X113648188Y-123108285D02*
X113648188Y-122958304D01*
X113648188Y-122958304D02*
X113666936Y-122920809D01*
X113666936Y-122920809D02*
X113685683Y-122902061D01*
X113685683Y-122902061D02*
X113723179Y-122883313D01*
X113723179Y-122883313D02*
X113798169Y-122883313D01*
X113798169Y-122883313D02*
X113835665Y-122902061D01*
X113835665Y-122902061D02*
X113854412Y-122920809D01*
X113854412Y-122920809D02*
X113873160Y-122958304D01*
X113873160Y-122958304D02*
X113873160Y-123052042D01*
X113873160Y-123052042D02*
X113854412Y-123089538D01*
X113854412Y-123089538D02*
X113835665Y-123108285D01*
X113835665Y-123108285D02*
X113798169Y-123127033D01*
X113798169Y-123127033D02*
X113723179Y-123127033D01*
X113723179Y-123127033D02*
X113685683Y-123108285D01*
X113685683Y-123108285D02*
X113666936Y-123089538D01*
X113666936Y-123089538D02*
X113648188Y-123052042D01*
D10*
X117383333Y-102724809D02*
X117549999Y-102486714D01*
X117669047Y-102724809D02*
X117669047Y-102224809D01*
X117669047Y-102224809D02*
X117478571Y-102224809D01*
X117478571Y-102224809D02*
X117430952Y-102248619D01*
X117430952Y-102248619D02*
X117407142Y-102272428D01*
X117407142Y-102272428D02*
X117383333Y-102320047D01*
X117383333Y-102320047D02*
X117383333Y-102391476D01*
X117383333Y-102391476D02*
X117407142Y-102439095D01*
X117407142Y-102439095D02*
X117430952Y-102462904D01*
X117430952Y-102462904D02*
X117478571Y-102486714D01*
X117478571Y-102486714D02*
X117669047Y-102486714D01*
X116907142Y-102724809D02*
X117192856Y-102724809D01*
X117049999Y-102724809D02*
X117049999Y-102224809D01*
X117049999Y-102224809D02*
X117097618Y-102296238D01*
X117097618Y-102296238D02*
X117145237Y-102343857D01*
X117145237Y-102343857D02*
X117192856Y-102367666D01*
D11*
X128665616Y-110139519D02*
X128684364Y-110158267D01*
X128684364Y-110158267D02*
X128740607Y-110177014D01*
X128740607Y-110177014D02*
X128778102Y-110177014D01*
X128778102Y-110177014D02*
X128834345Y-110158267D01*
X128834345Y-110158267D02*
X128871841Y-110120771D01*
X128871841Y-110120771D02*
X128890588Y-110083276D01*
X128890588Y-110083276D02*
X128909336Y-110008285D01*
X128909336Y-110008285D02*
X128909336Y-109952042D01*
X128909336Y-109952042D02*
X128890588Y-109877052D01*
X128890588Y-109877052D02*
X128871841Y-109839556D01*
X128871841Y-109839556D02*
X128834345Y-109802061D01*
X128834345Y-109802061D02*
X128778102Y-109783313D01*
X128778102Y-109783313D02*
X128740607Y-109783313D01*
X128740607Y-109783313D02*
X128684364Y-109802061D01*
X128684364Y-109802061D02*
X128665616Y-109820809D01*
X128290663Y-110177014D02*
X128515635Y-110177014D01*
X128403149Y-110177014D02*
X128403149Y-109783313D01*
X128403149Y-109783313D02*
X128440644Y-109839556D01*
X128440644Y-109839556D02*
X128478140Y-109877052D01*
X128478140Y-109877052D02*
X128515635Y-109895799D01*
D10*
X125321428Y-63524809D02*
X125488094Y-63286714D01*
X125607142Y-63524809D02*
X125607142Y-63024809D01*
X125607142Y-63024809D02*
X125416666Y-63024809D01*
X125416666Y-63024809D02*
X125369047Y-63048619D01*
X125369047Y-63048619D02*
X125345237Y-63072428D01*
X125345237Y-63072428D02*
X125321428Y-63120047D01*
X125321428Y-63120047D02*
X125321428Y-63191476D01*
X125321428Y-63191476D02*
X125345237Y-63239095D01*
X125345237Y-63239095D02*
X125369047Y-63262904D01*
X125369047Y-63262904D02*
X125416666Y-63286714D01*
X125416666Y-63286714D02*
X125607142Y-63286714D01*
X124845237Y-63524809D02*
X125130951Y-63524809D01*
X124988094Y-63524809D02*
X124988094Y-63024809D01*
X124988094Y-63024809D02*
X125035713Y-63096238D01*
X125035713Y-63096238D02*
X125083332Y-63143857D01*
X125083332Y-63143857D02*
X125130951Y-63167666D01*
X124369047Y-63524809D02*
X124654761Y-63524809D01*
X124511904Y-63524809D02*
X124511904Y-63024809D01*
X124511904Y-63024809D02*
X124559523Y-63096238D01*
X124559523Y-63096238D02*
X124607142Y-63143857D01*
X124607142Y-63143857D02*
X124654761Y-63167666D01*
X118121428Y-68777190D02*
X118145237Y-68801000D01*
X118145237Y-68801000D02*
X118216666Y-68824809D01*
X118216666Y-68824809D02*
X118264285Y-68824809D01*
X118264285Y-68824809D02*
X118335713Y-68801000D01*
X118335713Y-68801000D02*
X118383332Y-68753380D01*
X118383332Y-68753380D02*
X118407142Y-68705761D01*
X118407142Y-68705761D02*
X118430951Y-68610523D01*
X118430951Y-68610523D02*
X118430951Y-68539095D01*
X118430951Y-68539095D02*
X118407142Y-68443857D01*
X118407142Y-68443857D02*
X118383332Y-68396238D01*
X118383332Y-68396238D02*
X118335713Y-68348619D01*
X118335713Y-68348619D02*
X118264285Y-68324809D01*
X118264285Y-68324809D02*
X118216666Y-68324809D01*
X118216666Y-68324809D02*
X118145237Y-68348619D01*
X118145237Y-68348619D02*
X118121428Y-68372428D01*
X117645237Y-68824809D02*
X117930951Y-68824809D01*
X117788094Y-68824809D02*
X117788094Y-68324809D01*
X117788094Y-68324809D02*
X117835713Y-68396238D01*
X117835713Y-68396238D02*
X117883332Y-68443857D01*
X117883332Y-68443857D02*
X117930951Y-68467666D01*
X117478571Y-68324809D02*
X117169047Y-68324809D01*
X117169047Y-68324809D02*
X117335714Y-68515285D01*
X117335714Y-68515285D02*
X117264285Y-68515285D01*
X117264285Y-68515285D02*
X117216666Y-68539095D01*
X117216666Y-68539095D02*
X117192857Y-68562904D01*
X117192857Y-68562904D02*
X117169047Y-68610523D01*
X117169047Y-68610523D02*
X117169047Y-68729571D01*
X117169047Y-68729571D02*
X117192857Y-68777190D01*
X117192857Y-68777190D02*
X117216666Y-68801000D01*
X117216666Y-68801000D02*
X117264285Y-68824809D01*
X117264285Y-68824809D02*
X117407142Y-68824809D01*
X117407142Y-68824809D02*
X117454761Y-68801000D01*
X117454761Y-68801000D02*
X117478571Y-68777190D01*
D11*
X113653092Y-69739519D02*
X113671840Y-69758267D01*
X113671840Y-69758267D02*
X113728083Y-69777014D01*
X113728083Y-69777014D02*
X113765578Y-69777014D01*
X113765578Y-69777014D02*
X113821821Y-69758267D01*
X113821821Y-69758267D02*
X113859317Y-69720771D01*
X113859317Y-69720771D02*
X113878064Y-69683276D01*
X113878064Y-69683276D02*
X113896812Y-69608285D01*
X113896812Y-69608285D02*
X113896812Y-69552042D01*
X113896812Y-69552042D02*
X113878064Y-69477052D01*
X113878064Y-69477052D02*
X113859317Y-69439556D01*
X113859317Y-69439556D02*
X113821821Y-69402061D01*
X113821821Y-69402061D02*
X113765578Y-69383313D01*
X113765578Y-69383313D02*
X113728083Y-69383313D01*
X113728083Y-69383313D02*
X113671840Y-69402061D01*
X113671840Y-69402061D02*
X113653092Y-69420809D01*
X113503111Y-69420809D02*
X113484363Y-69402061D01*
X113484363Y-69402061D02*
X113446868Y-69383313D01*
X113446868Y-69383313D02*
X113353130Y-69383313D01*
X113353130Y-69383313D02*
X113315634Y-69402061D01*
X113315634Y-69402061D02*
X113296887Y-69420809D01*
X113296887Y-69420809D02*
X113278139Y-69458304D01*
X113278139Y-69458304D02*
X113278139Y-69495799D01*
X113278139Y-69495799D02*
X113296887Y-69552042D01*
X113296887Y-69552042D02*
X113521859Y-69777014D01*
X113521859Y-69777014D02*
X113278139Y-69777014D01*
X112940681Y-69383313D02*
X113015672Y-69383313D01*
X113015672Y-69383313D02*
X113053167Y-69402061D01*
X113053167Y-69402061D02*
X113071915Y-69420809D01*
X113071915Y-69420809D02*
X113109410Y-69477052D01*
X113109410Y-69477052D02*
X113128158Y-69552042D01*
X113128158Y-69552042D02*
X113128158Y-69702024D01*
X113128158Y-69702024D02*
X113109410Y-69739519D01*
X113109410Y-69739519D02*
X113090663Y-69758267D01*
X113090663Y-69758267D02*
X113053167Y-69777014D01*
X113053167Y-69777014D02*
X112978177Y-69777014D01*
X112978177Y-69777014D02*
X112940681Y-69758267D01*
X112940681Y-69758267D02*
X112921934Y-69739519D01*
X112921934Y-69739519D02*
X112903186Y-69702024D01*
X112903186Y-69702024D02*
X112903186Y-69608285D01*
X112903186Y-69608285D02*
X112921934Y-69570790D01*
X112921934Y-69570790D02*
X112940681Y-69552042D01*
X112940681Y-69552042D02*
X112978177Y-69533295D01*
X112978177Y-69533295D02*
X113053167Y-69533295D01*
X113053167Y-69533295D02*
X113090663Y-69552042D01*
X113090663Y-69552042D02*
X113109410Y-69570790D01*
X113109410Y-69570790D02*
X113128158Y-69608285D01*
X113453092Y-108839519D02*
X113471840Y-108858267D01*
X113471840Y-108858267D02*
X113528083Y-108877014D01*
X113528083Y-108877014D02*
X113565578Y-108877014D01*
X113565578Y-108877014D02*
X113621821Y-108858267D01*
X113621821Y-108858267D02*
X113659317Y-108820771D01*
X113659317Y-108820771D02*
X113678064Y-108783276D01*
X113678064Y-108783276D02*
X113696812Y-108708285D01*
X113696812Y-108708285D02*
X113696812Y-108652042D01*
X113696812Y-108652042D02*
X113678064Y-108577052D01*
X113678064Y-108577052D02*
X113659317Y-108539556D01*
X113659317Y-108539556D02*
X113621821Y-108502061D01*
X113621821Y-108502061D02*
X113565578Y-108483313D01*
X113565578Y-108483313D02*
X113528083Y-108483313D01*
X113528083Y-108483313D02*
X113471840Y-108502061D01*
X113471840Y-108502061D02*
X113453092Y-108520809D01*
X113303111Y-108520809D02*
X113284363Y-108502061D01*
X113284363Y-108502061D02*
X113246868Y-108483313D01*
X113246868Y-108483313D02*
X113153130Y-108483313D01*
X113153130Y-108483313D02*
X113115634Y-108502061D01*
X113115634Y-108502061D02*
X113096887Y-108520809D01*
X113096887Y-108520809D02*
X113078139Y-108558304D01*
X113078139Y-108558304D02*
X113078139Y-108595799D01*
X113078139Y-108595799D02*
X113096887Y-108652042D01*
X113096887Y-108652042D02*
X113321859Y-108877014D01*
X113321859Y-108877014D02*
X113078139Y-108877014D01*
X112740681Y-108614547D02*
X112740681Y-108877014D01*
X112834420Y-108464566D02*
X112928158Y-108745781D01*
X112928158Y-108745781D02*
X112684438Y-108745781D01*
D10*
X113421428Y-102724809D02*
X113588094Y-102486714D01*
X113707142Y-102724809D02*
X113707142Y-102224809D01*
X113707142Y-102224809D02*
X113516666Y-102224809D01*
X113516666Y-102224809D02*
X113469047Y-102248619D01*
X113469047Y-102248619D02*
X113445237Y-102272428D01*
X113445237Y-102272428D02*
X113421428Y-102320047D01*
X113421428Y-102320047D02*
X113421428Y-102391476D01*
X113421428Y-102391476D02*
X113445237Y-102439095D01*
X113445237Y-102439095D02*
X113469047Y-102462904D01*
X113469047Y-102462904D02*
X113516666Y-102486714D01*
X113516666Y-102486714D02*
X113707142Y-102486714D01*
X112945237Y-102724809D02*
X113230951Y-102724809D01*
X113088094Y-102724809D02*
X113088094Y-102224809D01*
X113088094Y-102224809D02*
X113135713Y-102296238D01*
X113135713Y-102296238D02*
X113183332Y-102343857D01*
X113183332Y-102343857D02*
X113230951Y-102367666D01*
X112659523Y-102439095D02*
X112707142Y-102415285D01*
X112707142Y-102415285D02*
X112730952Y-102391476D01*
X112730952Y-102391476D02*
X112754761Y-102343857D01*
X112754761Y-102343857D02*
X112754761Y-102320047D01*
X112754761Y-102320047D02*
X112730952Y-102272428D01*
X112730952Y-102272428D02*
X112707142Y-102248619D01*
X112707142Y-102248619D02*
X112659523Y-102224809D01*
X112659523Y-102224809D02*
X112564285Y-102224809D01*
X112564285Y-102224809D02*
X112516666Y-102248619D01*
X112516666Y-102248619D02*
X112492857Y-102272428D01*
X112492857Y-102272428D02*
X112469047Y-102320047D01*
X112469047Y-102320047D02*
X112469047Y-102343857D01*
X112469047Y-102343857D02*
X112492857Y-102391476D01*
X112492857Y-102391476D02*
X112516666Y-102415285D01*
X112516666Y-102415285D02*
X112564285Y-102439095D01*
X112564285Y-102439095D02*
X112659523Y-102439095D01*
X112659523Y-102439095D02*
X112707142Y-102462904D01*
X112707142Y-102462904D02*
X112730952Y-102486714D01*
X112730952Y-102486714D02*
X112754761Y-102534333D01*
X112754761Y-102534333D02*
X112754761Y-102629571D01*
X112754761Y-102629571D02*
X112730952Y-102677190D01*
X112730952Y-102677190D02*
X112707142Y-102701000D01*
X112707142Y-102701000D02*
X112659523Y-102724809D01*
X112659523Y-102724809D02*
X112564285Y-102724809D01*
X112564285Y-102724809D02*
X112516666Y-102701000D01*
X112516666Y-102701000D02*
X112492857Y-102677190D01*
X112492857Y-102677190D02*
X112469047Y-102629571D01*
X112469047Y-102629571D02*
X112469047Y-102534333D01*
X112469047Y-102534333D02*
X112492857Y-102486714D01*
X112492857Y-102486714D02*
X112516666Y-102462904D01*
X112516666Y-102462904D02*
X112564285Y-102439095D01*
X125083333Y-102724809D02*
X125249999Y-102486714D01*
X125369047Y-102724809D02*
X125369047Y-102224809D01*
X125369047Y-102224809D02*
X125178571Y-102224809D01*
X125178571Y-102224809D02*
X125130952Y-102248619D01*
X125130952Y-102248619D02*
X125107142Y-102272428D01*
X125107142Y-102272428D02*
X125083333Y-102320047D01*
X125083333Y-102320047D02*
X125083333Y-102391476D01*
X125083333Y-102391476D02*
X125107142Y-102439095D01*
X125107142Y-102439095D02*
X125130952Y-102462904D01*
X125130952Y-102462904D02*
X125178571Y-102486714D01*
X125178571Y-102486714D02*
X125369047Y-102486714D01*
X124630952Y-102224809D02*
X124869047Y-102224809D01*
X124869047Y-102224809D02*
X124892856Y-102462904D01*
X124892856Y-102462904D02*
X124869047Y-102439095D01*
X124869047Y-102439095D02*
X124821428Y-102415285D01*
X124821428Y-102415285D02*
X124702380Y-102415285D01*
X124702380Y-102415285D02*
X124654761Y-102439095D01*
X124654761Y-102439095D02*
X124630952Y-102462904D01*
X124630952Y-102462904D02*
X124607142Y-102510523D01*
X124607142Y-102510523D02*
X124607142Y-102629571D01*
X124607142Y-102629571D02*
X124630952Y-102677190D01*
X124630952Y-102677190D02*
X124654761Y-102701000D01*
X124654761Y-102701000D02*
X124702380Y-102724809D01*
X124702380Y-102724809D02*
X124821428Y-102724809D01*
X124821428Y-102724809D02*
X124869047Y-102701000D01*
X124869047Y-102701000D02*
X124892856Y-102677190D01*
D11*
X113578092Y-83930204D02*
X113596840Y-83948952D01*
X113596840Y-83948952D02*
X113653083Y-83967699D01*
X113653083Y-83967699D02*
X113690578Y-83967699D01*
X113690578Y-83967699D02*
X113746821Y-83948952D01*
X113746821Y-83948952D02*
X113784317Y-83911456D01*
X113784317Y-83911456D02*
X113803064Y-83873961D01*
X113803064Y-83873961D02*
X113821812Y-83798970D01*
X113821812Y-83798970D02*
X113821812Y-83742727D01*
X113821812Y-83742727D02*
X113803064Y-83667737D01*
X113803064Y-83667737D02*
X113784317Y-83630241D01*
X113784317Y-83630241D02*
X113746821Y-83592746D01*
X113746821Y-83592746D02*
X113690578Y-83573998D01*
X113690578Y-83573998D02*
X113653083Y-83573998D01*
X113653083Y-83573998D02*
X113596840Y-83592746D01*
X113596840Y-83592746D02*
X113578092Y-83611494D01*
X113446859Y-83573998D02*
X113203139Y-83573998D01*
X113203139Y-83573998D02*
X113334373Y-83723980D01*
X113334373Y-83723980D02*
X113278130Y-83723980D01*
X113278130Y-83723980D02*
X113240634Y-83742727D01*
X113240634Y-83742727D02*
X113221887Y-83761475D01*
X113221887Y-83761475D02*
X113203139Y-83798970D01*
X113203139Y-83798970D02*
X113203139Y-83892709D01*
X113203139Y-83892709D02*
X113221887Y-83930204D01*
X113221887Y-83930204D02*
X113240634Y-83948952D01*
X113240634Y-83948952D02*
X113278130Y-83967699D01*
X113278130Y-83967699D02*
X113390616Y-83967699D01*
X113390616Y-83967699D02*
X113428111Y-83948952D01*
X113428111Y-83948952D02*
X113446859Y-83930204D01*
X113071906Y-83573998D02*
X112809438Y-83573998D01*
X112809438Y-83573998D02*
X112978167Y-83967699D01*
D10*
X125383333Y-130524809D02*
X125549999Y-130286714D01*
X125669047Y-130524809D02*
X125669047Y-130024809D01*
X125669047Y-130024809D02*
X125478571Y-130024809D01*
X125478571Y-130024809D02*
X125430952Y-130048619D01*
X125430952Y-130048619D02*
X125407142Y-130072428D01*
X125407142Y-130072428D02*
X125383333Y-130120047D01*
X125383333Y-130120047D02*
X125383333Y-130191476D01*
X125383333Y-130191476D02*
X125407142Y-130239095D01*
X125407142Y-130239095D02*
X125430952Y-130262904D01*
X125430952Y-130262904D02*
X125478571Y-130286714D01*
X125478571Y-130286714D02*
X125669047Y-130286714D01*
X125216666Y-130024809D02*
X124883333Y-130024809D01*
X124883333Y-130024809D02*
X125097618Y-130524809D01*
D11*
X125853092Y-87639519D02*
X125871840Y-87658267D01*
X125871840Y-87658267D02*
X125928083Y-87677014D01*
X125928083Y-87677014D02*
X125965578Y-87677014D01*
X125965578Y-87677014D02*
X126021821Y-87658267D01*
X126021821Y-87658267D02*
X126059317Y-87620771D01*
X126059317Y-87620771D02*
X126078064Y-87583276D01*
X126078064Y-87583276D02*
X126096812Y-87508285D01*
X126096812Y-87508285D02*
X126096812Y-87452042D01*
X126096812Y-87452042D02*
X126078064Y-87377052D01*
X126078064Y-87377052D02*
X126059317Y-87339556D01*
X126059317Y-87339556D02*
X126021821Y-87302061D01*
X126021821Y-87302061D02*
X125965578Y-87283313D01*
X125965578Y-87283313D02*
X125928083Y-87283313D01*
X125928083Y-87283313D02*
X125871840Y-87302061D01*
X125871840Y-87302061D02*
X125853092Y-87320809D01*
X125478139Y-87677014D02*
X125703111Y-87677014D01*
X125590625Y-87677014D02*
X125590625Y-87283313D01*
X125590625Y-87283313D02*
X125628120Y-87339556D01*
X125628120Y-87339556D02*
X125665616Y-87377052D01*
X125665616Y-87377052D02*
X125703111Y-87395799D01*
X125121934Y-87283313D02*
X125309410Y-87283313D01*
X125309410Y-87283313D02*
X125328158Y-87470790D01*
X125328158Y-87470790D02*
X125309410Y-87452042D01*
X125309410Y-87452042D02*
X125271915Y-87433295D01*
X125271915Y-87433295D02*
X125178177Y-87433295D01*
X125178177Y-87433295D02*
X125140681Y-87452042D01*
X125140681Y-87452042D02*
X125121934Y-87470790D01*
X125121934Y-87470790D02*
X125103186Y-87508285D01*
X125103186Y-87508285D02*
X125103186Y-87602024D01*
X125103186Y-87602024D02*
X125121934Y-87639519D01*
X125121934Y-87639519D02*
X125140681Y-87658267D01*
X125140681Y-87658267D02*
X125178177Y-87677014D01*
X125178177Y-87677014D02*
X125271915Y-87677014D01*
X125271915Y-87677014D02*
X125309410Y-87658267D01*
X125309410Y-87658267D02*
X125328158Y-87639519D01*
D10*
X118521428Y-91724809D02*
X118688094Y-91486714D01*
X118807142Y-91724809D02*
X118807142Y-91224809D01*
X118807142Y-91224809D02*
X118616666Y-91224809D01*
X118616666Y-91224809D02*
X118569047Y-91248619D01*
X118569047Y-91248619D02*
X118545237Y-91272428D01*
X118545237Y-91272428D02*
X118521428Y-91320047D01*
X118521428Y-91320047D02*
X118521428Y-91391476D01*
X118521428Y-91391476D02*
X118545237Y-91439095D01*
X118545237Y-91439095D02*
X118569047Y-91462904D01*
X118569047Y-91462904D02*
X118616666Y-91486714D01*
X118616666Y-91486714D02*
X118807142Y-91486714D01*
X118045237Y-91724809D02*
X118330951Y-91724809D01*
X118188094Y-91724809D02*
X118188094Y-91224809D01*
X118188094Y-91224809D02*
X118235713Y-91296238D01*
X118235713Y-91296238D02*
X118283332Y-91343857D01*
X118283332Y-91343857D02*
X118330951Y-91367666D01*
X117592857Y-91224809D02*
X117830952Y-91224809D01*
X117830952Y-91224809D02*
X117854761Y-91462904D01*
X117854761Y-91462904D02*
X117830952Y-91439095D01*
X117830952Y-91439095D02*
X117783333Y-91415285D01*
X117783333Y-91415285D02*
X117664285Y-91415285D01*
X117664285Y-91415285D02*
X117616666Y-91439095D01*
X117616666Y-91439095D02*
X117592857Y-91462904D01*
X117592857Y-91462904D02*
X117569047Y-91510523D01*
X117569047Y-91510523D02*
X117569047Y-91629571D01*
X117569047Y-91629571D02*
X117592857Y-91677190D01*
X117592857Y-91677190D02*
X117616666Y-91701000D01*
X117616666Y-91701000D02*
X117664285Y-91724809D01*
X117664285Y-91724809D02*
X117783333Y-91724809D01*
X117783333Y-91724809D02*
X117830952Y-91701000D01*
X117830952Y-91701000D02*
X117854761Y-91677190D01*
X125083333Y-68777190D02*
X125107142Y-68801000D01*
X125107142Y-68801000D02*
X125178571Y-68824809D01*
X125178571Y-68824809D02*
X125226190Y-68824809D01*
X125226190Y-68824809D02*
X125297618Y-68801000D01*
X125297618Y-68801000D02*
X125345237Y-68753380D01*
X125345237Y-68753380D02*
X125369047Y-68705761D01*
X125369047Y-68705761D02*
X125392856Y-68610523D01*
X125392856Y-68610523D02*
X125392856Y-68539095D01*
X125392856Y-68539095D02*
X125369047Y-68443857D01*
X125369047Y-68443857D02*
X125345237Y-68396238D01*
X125345237Y-68396238D02*
X125297618Y-68348619D01*
X125297618Y-68348619D02*
X125226190Y-68324809D01*
X125226190Y-68324809D02*
X125178571Y-68324809D01*
X125178571Y-68324809D02*
X125107142Y-68348619D01*
X125107142Y-68348619D02*
X125083333Y-68372428D01*
X124916666Y-68324809D02*
X124583333Y-68324809D01*
X124583333Y-68324809D02*
X124797618Y-68824809D01*
D11*
X112148094Y-115989519D02*
X112166842Y-116008267D01*
X112166842Y-116008267D02*
X112223085Y-116027014D01*
X112223085Y-116027014D02*
X112260580Y-116027014D01*
X112260580Y-116027014D02*
X112316823Y-116008267D01*
X112316823Y-116008267D02*
X112354319Y-115970771D01*
X112354319Y-115970771D02*
X112373066Y-115933276D01*
X112373066Y-115933276D02*
X112391814Y-115858285D01*
X112391814Y-115858285D02*
X112391814Y-115802042D01*
X112391814Y-115802042D02*
X112373066Y-115727052D01*
X112373066Y-115727052D02*
X112354319Y-115689556D01*
X112354319Y-115689556D02*
X112316823Y-115652061D01*
X112316823Y-115652061D02*
X112260580Y-115633313D01*
X112260580Y-115633313D02*
X112223085Y-115633313D01*
X112223085Y-115633313D02*
X112166842Y-115652061D01*
X112166842Y-115652061D02*
X112148094Y-115670809D01*
X112016861Y-115633313D02*
X111773141Y-115633313D01*
X111773141Y-115633313D02*
X111904375Y-115783295D01*
X111904375Y-115783295D02*
X111848132Y-115783295D01*
X111848132Y-115783295D02*
X111810636Y-115802042D01*
X111810636Y-115802042D02*
X111791889Y-115820790D01*
X111791889Y-115820790D02*
X111773141Y-115858285D01*
X111773141Y-115858285D02*
X111773141Y-115952024D01*
X111773141Y-115952024D02*
X111791889Y-115989519D01*
X111791889Y-115989519D02*
X111810636Y-116008267D01*
X111810636Y-116008267D02*
X111848132Y-116027014D01*
X111848132Y-116027014D02*
X111960618Y-116027014D01*
X111960618Y-116027014D02*
X111998113Y-116008267D01*
X111998113Y-116008267D02*
X112016861Y-115989519D01*
X111435683Y-115764547D02*
X111435683Y-116027014D01*
X111529422Y-115614566D02*
X111623160Y-115895781D01*
X111623160Y-115895781D02*
X111379440Y-115895781D01*
D10*
X109721428Y-68777190D02*
X109745237Y-68801000D01*
X109745237Y-68801000D02*
X109816666Y-68824809D01*
X109816666Y-68824809D02*
X109864285Y-68824809D01*
X109864285Y-68824809D02*
X109935713Y-68801000D01*
X109935713Y-68801000D02*
X109983332Y-68753380D01*
X109983332Y-68753380D02*
X110007142Y-68705761D01*
X110007142Y-68705761D02*
X110030951Y-68610523D01*
X110030951Y-68610523D02*
X110030951Y-68539095D01*
X110030951Y-68539095D02*
X110007142Y-68443857D01*
X110007142Y-68443857D02*
X109983332Y-68396238D01*
X109983332Y-68396238D02*
X109935713Y-68348619D01*
X109935713Y-68348619D02*
X109864285Y-68324809D01*
X109864285Y-68324809D02*
X109816666Y-68324809D01*
X109816666Y-68324809D02*
X109745237Y-68348619D01*
X109745237Y-68348619D02*
X109721428Y-68372428D01*
X109245237Y-68824809D02*
X109530951Y-68824809D01*
X109388094Y-68824809D02*
X109388094Y-68324809D01*
X109388094Y-68324809D02*
X109435713Y-68396238D01*
X109435713Y-68396238D02*
X109483332Y-68443857D01*
X109483332Y-68443857D02*
X109530951Y-68467666D01*
X109054761Y-68372428D02*
X109030952Y-68348619D01*
X109030952Y-68348619D02*
X108983333Y-68324809D01*
X108983333Y-68324809D02*
X108864285Y-68324809D01*
X108864285Y-68324809D02*
X108816666Y-68348619D01*
X108816666Y-68348619D02*
X108792857Y-68372428D01*
X108792857Y-68372428D02*
X108769047Y-68420047D01*
X108769047Y-68420047D02*
X108769047Y-68467666D01*
X108769047Y-68467666D02*
X108792857Y-68539095D01*
X108792857Y-68539095D02*
X109078571Y-68824809D01*
X109078571Y-68824809D02*
X108769047Y-68824809D01*
X118321428Y-63624809D02*
X118488094Y-63386714D01*
X118607142Y-63624809D02*
X118607142Y-63124809D01*
X118607142Y-63124809D02*
X118416666Y-63124809D01*
X118416666Y-63124809D02*
X118369047Y-63148619D01*
X118369047Y-63148619D02*
X118345237Y-63172428D01*
X118345237Y-63172428D02*
X118321428Y-63220047D01*
X118321428Y-63220047D02*
X118321428Y-63291476D01*
X118321428Y-63291476D02*
X118345237Y-63339095D01*
X118345237Y-63339095D02*
X118369047Y-63362904D01*
X118369047Y-63362904D02*
X118416666Y-63386714D01*
X118416666Y-63386714D02*
X118607142Y-63386714D01*
X118130951Y-63172428D02*
X118107142Y-63148619D01*
X118107142Y-63148619D02*
X118059523Y-63124809D01*
X118059523Y-63124809D02*
X117940475Y-63124809D01*
X117940475Y-63124809D02*
X117892856Y-63148619D01*
X117892856Y-63148619D02*
X117869047Y-63172428D01*
X117869047Y-63172428D02*
X117845237Y-63220047D01*
X117845237Y-63220047D02*
X117845237Y-63267666D01*
X117845237Y-63267666D02*
X117869047Y-63339095D01*
X117869047Y-63339095D02*
X118154761Y-63624809D01*
X118154761Y-63624809D02*
X117845237Y-63624809D01*
X117678571Y-63124809D02*
X117369047Y-63124809D01*
X117369047Y-63124809D02*
X117535714Y-63315285D01*
X117535714Y-63315285D02*
X117464285Y-63315285D01*
X117464285Y-63315285D02*
X117416666Y-63339095D01*
X117416666Y-63339095D02*
X117392857Y-63362904D01*
X117392857Y-63362904D02*
X117369047Y-63410523D01*
X117369047Y-63410523D02*
X117369047Y-63529571D01*
X117369047Y-63529571D02*
X117392857Y-63577190D01*
X117392857Y-63577190D02*
X117416666Y-63601000D01*
X117416666Y-63601000D02*
X117464285Y-63624809D01*
X117464285Y-63624809D02*
X117607142Y-63624809D01*
X117607142Y-63624809D02*
X117654761Y-63601000D01*
X117654761Y-63601000D02*
X117678571Y-63577190D01*
X118321428Y-107877190D02*
X118345237Y-107901000D01*
X118345237Y-107901000D02*
X118416666Y-107924809D01*
X118416666Y-107924809D02*
X118464285Y-107924809D01*
X118464285Y-107924809D02*
X118535713Y-107901000D01*
X118535713Y-107901000D02*
X118583332Y-107853380D01*
X118583332Y-107853380D02*
X118607142Y-107805761D01*
X118607142Y-107805761D02*
X118630951Y-107710523D01*
X118630951Y-107710523D02*
X118630951Y-107639095D01*
X118630951Y-107639095D02*
X118607142Y-107543857D01*
X118607142Y-107543857D02*
X118583332Y-107496238D01*
X118583332Y-107496238D02*
X118535713Y-107448619D01*
X118535713Y-107448619D02*
X118464285Y-107424809D01*
X118464285Y-107424809D02*
X118416666Y-107424809D01*
X118416666Y-107424809D02*
X118345237Y-107448619D01*
X118345237Y-107448619D02*
X118321428Y-107472428D01*
X117845237Y-107924809D02*
X118130951Y-107924809D01*
X117988094Y-107924809D02*
X117988094Y-107424809D01*
X117988094Y-107424809D02*
X118035713Y-107496238D01*
X118035713Y-107496238D02*
X118083332Y-107543857D01*
X118083332Y-107543857D02*
X118130951Y-107567666D01*
X117369047Y-107924809D02*
X117654761Y-107924809D01*
X117511904Y-107924809D02*
X117511904Y-107424809D01*
X117511904Y-107424809D02*
X117559523Y-107496238D01*
X117559523Y-107496238D02*
X117607142Y-107543857D01*
X117607142Y-107543857D02*
X117654761Y-107567666D01*
D11*
X129903092Y-84977014D02*
X130034326Y-84789538D01*
X130128064Y-84977014D02*
X130128064Y-84583313D01*
X130128064Y-84583313D02*
X129978083Y-84583313D01*
X129978083Y-84583313D02*
X129940588Y-84602061D01*
X129940588Y-84602061D02*
X129921840Y-84620809D01*
X129921840Y-84620809D02*
X129903092Y-84658304D01*
X129903092Y-84658304D02*
X129903092Y-84714547D01*
X129903092Y-84714547D02*
X129921840Y-84752042D01*
X129921840Y-84752042D02*
X129940588Y-84770790D01*
X129940588Y-84770790D02*
X129978083Y-84789538D01*
X129978083Y-84789538D02*
X130128064Y-84789538D01*
X129753111Y-84620809D02*
X129734363Y-84602061D01*
X129734363Y-84602061D02*
X129696868Y-84583313D01*
X129696868Y-84583313D02*
X129603130Y-84583313D01*
X129603130Y-84583313D02*
X129565634Y-84602061D01*
X129565634Y-84602061D02*
X129546887Y-84620809D01*
X129546887Y-84620809D02*
X129528139Y-84658304D01*
X129528139Y-84658304D02*
X129528139Y-84695799D01*
X129528139Y-84695799D02*
X129546887Y-84752042D01*
X129546887Y-84752042D02*
X129771859Y-84977014D01*
X129771859Y-84977014D02*
X129528139Y-84977014D01*
X129396906Y-84583313D02*
X129134438Y-84583313D01*
X129134438Y-84583313D02*
X129303167Y-84977014D01*
X127139519Y-81346907D02*
X127158267Y-81328159D01*
X127158267Y-81328159D02*
X127177014Y-81271916D01*
X127177014Y-81271916D02*
X127177014Y-81234421D01*
X127177014Y-81234421D02*
X127158267Y-81178178D01*
X127158267Y-81178178D02*
X127120771Y-81140683D01*
X127120771Y-81140683D02*
X127083276Y-81121935D01*
X127083276Y-81121935D02*
X127008285Y-81103187D01*
X127008285Y-81103187D02*
X126952042Y-81103187D01*
X126952042Y-81103187D02*
X126877052Y-81121935D01*
X126877052Y-81121935D02*
X126839556Y-81140683D01*
X126839556Y-81140683D02*
X126802061Y-81178178D01*
X126802061Y-81178178D02*
X126783313Y-81234421D01*
X126783313Y-81234421D02*
X126783313Y-81271916D01*
X126783313Y-81271916D02*
X126802061Y-81328159D01*
X126802061Y-81328159D02*
X126820809Y-81346907D01*
X126914547Y-81684365D02*
X127177014Y-81684365D01*
X126764566Y-81590627D02*
X127045781Y-81496888D01*
X127045781Y-81496888D02*
X127045781Y-81740608D01*
X126820809Y-81871841D02*
X126802061Y-81890589D01*
X126802061Y-81890589D02*
X126783313Y-81928084D01*
X126783313Y-81928084D02*
X126783313Y-82021823D01*
X126783313Y-82021823D02*
X126802061Y-82059318D01*
X126802061Y-82059318D02*
X126820809Y-82078066D01*
X126820809Y-82078066D02*
X126858304Y-82096813D01*
X126858304Y-82096813D02*
X126895799Y-82096813D01*
X126895799Y-82096813D02*
X126952042Y-82078066D01*
X126952042Y-82078066D02*
X127177014Y-81853094D01*
X127177014Y-81853094D02*
X127177014Y-82096813D01*
X126964521Y-120846907D02*
X126983269Y-120828159D01*
X126983269Y-120828159D02*
X127002016Y-120771916D01*
X127002016Y-120771916D02*
X127002016Y-120734421D01*
X127002016Y-120734421D02*
X126983269Y-120678178D01*
X126983269Y-120678178D02*
X126945773Y-120640683D01*
X126945773Y-120640683D02*
X126908278Y-120621935D01*
X126908278Y-120621935D02*
X126833287Y-120603187D01*
X126833287Y-120603187D02*
X126777044Y-120603187D01*
X126777044Y-120603187D02*
X126702054Y-120621935D01*
X126702054Y-120621935D02*
X126664558Y-120640683D01*
X126664558Y-120640683D02*
X126627063Y-120678178D01*
X126627063Y-120678178D02*
X126608315Y-120734421D01*
X126608315Y-120734421D02*
X126608315Y-120771916D01*
X126608315Y-120771916D02*
X126627063Y-120828159D01*
X126627063Y-120828159D02*
X126645811Y-120846907D01*
X126739549Y-121184365D02*
X127002016Y-121184365D01*
X126589568Y-121090627D02*
X126870783Y-120996888D01*
X126870783Y-120996888D02*
X126870783Y-121240608D01*
X126608315Y-121353094D02*
X126608315Y-121596813D01*
X126608315Y-121596813D02*
X126758297Y-121465580D01*
X126758297Y-121465580D02*
X126758297Y-121521823D01*
X126758297Y-121521823D02*
X126777044Y-121559318D01*
X126777044Y-121559318D02*
X126795792Y-121578066D01*
X126795792Y-121578066D02*
X126833287Y-121596813D01*
X126833287Y-121596813D02*
X126927026Y-121596813D01*
X126927026Y-121596813D02*
X126964521Y-121578066D01*
X126964521Y-121578066D02*
X126983269Y-121559318D01*
X126983269Y-121559318D02*
X127002016Y-121521823D01*
X127002016Y-121521823D02*
X127002016Y-121409337D01*
X127002016Y-121409337D02*
X126983269Y-121371841D01*
X126983269Y-121371841D02*
X126964521Y-121353094D01*
D10*
X125321428Y-91724809D02*
X125488094Y-91486714D01*
X125607142Y-91724809D02*
X125607142Y-91224809D01*
X125607142Y-91224809D02*
X125416666Y-91224809D01*
X125416666Y-91224809D02*
X125369047Y-91248619D01*
X125369047Y-91248619D02*
X125345237Y-91272428D01*
X125345237Y-91272428D02*
X125321428Y-91320047D01*
X125321428Y-91320047D02*
X125321428Y-91391476D01*
X125321428Y-91391476D02*
X125345237Y-91439095D01*
X125345237Y-91439095D02*
X125369047Y-91462904D01*
X125369047Y-91462904D02*
X125416666Y-91486714D01*
X125416666Y-91486714D02*
X125607142Y-91486714D01*
X124845237Y-91724809D02*
X125130951Y-91724809D01*
X124988094Y-91724809D02*
X124988094Y-91224809D01*
X124988094Y-91224809D02*
X125035713Y-91296238D01*
X125035713Y-91296238D02*
X125083332Y-91343857D01*
X125083332Y-91343857D02*
X125130951Y-91367666D01*
X124678571Y-91224809D02*
X124369047Y-91224809D01*
X124369047Y-91224809D02*
X124535714Y-91415285D01*
X124535714Y-91415285D02*
X124464285Y-91415285D01*
X124464285Y-91415285D02*
X124416666Y-91439095D01*
X124416666Y-91439095D02*
X124392857Y-91462904D01*
X124392857Y-91462904D02*
X124369047Y-91510523D01*
X124369047Y-91510523D02*
X124369047Y-91629571D01*
X124369047Y-91629571D02*
X124392857Y-91677190D01*
X124392857Y-91677190D02*
X124416666Y-91701000D01*
X124416666Y-91701000D02*
X124464285Y-91724809D01*
X124464285Y-91724809D02*
X124607142Y-91724809D01*
X124607142Y-91724809D02*
X124654761Y-91701000D01*
X124654761Y-91701000D02*
X124678571Y-91677190D01*
D11*
X125753092Y-84639519D02*
X125771840Y-84658267D01*
X125771840Y-84658267D02*
X125828083Y-84677014D01*
X125828083Y-84677014D02*
X125865578Y-84677014D01*
X125865578Y-84677014D02*
X125921821Y-84658267D01*
X125921821Y-84658267D02*
X125959317Y-84620771D01*
X125959317Y-84620771D02*
X125978064Y-84583276D01*
X125978064Y-84583276D02*
X125996812Y-84508285D01*
X125996812Y-84508285D02*
X125996812Y-84452042D01*
X125996812Y-84452042D02*
X125978064Y-84377052D01*
X125978064Y-84377052D02*
X125959317Y-84339556D01*
X125959317Y-84339556D02*
X125921821Y-84302061D01*
X125921821Y-84302061D02*
X125865578Y-84283313D01*
X125865578Y-84283313D02*
X125828083Y-84283313D01*
X125828083Y-84283313D02*
X125771840Y-84302061D01*
X125771840Y-84302061D02*
X125753092Y-84320809D01*
X125603111Y-84320809D02*
X125584363Y-84302061D01*
X125584363Y-84302061D02*
X125546868Y-84283313D01*
X125546868Y-84283313D02*
X125453130Y-84283313D01*
X125453130Y-84283313D02*
X125415634Y-84302061D01*
X125415634Y-84302061D02*
X125396887Y-84320809D01*
X125396887Y-84320809D02*
X125378139Y-84358304D01*
X125378139Y-84358304D02*
X125378139Y-84395799D01*
X125378139Y-84395799D02*
X125396887Y-84452042D01*
X125396887Y-84452042D02*
X125621859Y-84677014D01*
X125621859Y-84677014D02*
X125378139Y-84677014D01*
X125228158Y-84320809D02*
X125209410Y-84302061D01*
X125209410Y-84302061D02*
X125171915Y-84283313D01*
X125171915Y-84283313D02*
X125078177Y-84283313D01*
X125078177Y-84283313D02*
X125040681Y-84302061D01*
X125040681Y-84302061D02*
X125021934Y-84320809D01*
X125021934Y-84320809D02*
X125003186Y-84358304D01*
X125003186Y-84358304D02*
X125003186Y-84395799D01*
X125003186Y-84395799D02*
X125021934Y-84452042D01*
X125021934Y-84452042D02*
X125246906Y-84677014D01*
X125246906Y-84677014D02*
X125003186Y-84677014D01*
X129814519Y-81246907D02*
X129833267Y-81228159D01*
X129833267Y-81228159D02*
X129852014Y-81171916D01*
X129852014Y-81171916D02*
X129852014Y-81134421D01*
X129852014Y-81134421D02*
X129833267Y-81078178D01*
X129833267Y-81078178D02*
X129795771Y-81040683D01*
X129795771Y-81040683D02*
X129758276Y-81021935D01*
X129758276Y-81021935D02*
X129683285Y-81003187D01*
X129683285Y-81003187D02*
X129627042Y-81003187D01*
X129627042Y-81003187D02*
X129552052Y-81021935D01*
X129552052Y-81021935D02*
X129514556Y-81040683D01*
X129514556Y-81040683D02*
X129477061Y-81078178D01*
X129477061Y-81078178D02*
X129458313Y-81134421D01*
X129458313Y-81134421D02*
X129458313Y-81171916D01*
X129458313Y-81171916D02*
X129477061Y-81228159D01*
X129477061Y-81228159D02*
X129495809Y-81246907D01*
X129589547Y-81584365D02*
X129852014Y-81584365D01*
X129439566Y-81490627D02*
X129720781Y-81396888D01*
X129720781Y-81396888D02*
X129720781Y-81640608D01*
X129458313Y-81865580D02*
X129458313Y-81903075D01*
X129458313Y-81903075D02*
X129477061Y-81940570D01*
X129477061Y-81940570D02*
X129495809Y-81959318D01*
X129495809Y-81959318D02*
X129533304Y-81978066D01*
X129533304Y-81978066D02*
X129608295Y-81996813D01*
X129608295Y-81996813D02*
X129702033Y-81996813D01*
X129702033Y-81996813D02*
X129777024Y-81978066D01*
X129777024Y-81978066D02*
X129814519Y-81959318D01*
X129814519Y-81959318D02*
X129833267Y-81940570D01*
X129833267Y-81940570D02*
X129852014Y-81903075D01*
X129852014Y-81903075D02*
X129852014Y-81865580D01*
X129852014Y-81865580D02*
X129833267Y-81828084D01*
X129833267Y-81828084D02*
X129814519Y-81809337D01*
X129814519Y-81809337D02*
X129777024Y-81790589D01*
X129777024Y-81790589D02*
X129702033Y-81771841D01*
X129702033Y-81771841D02*
X129608295Y-81771841D01*
X129608295Y-81771841D02*
X129533304Y-81790589D01*
X129533304Y-81790589D02*
X129495809Y-81809337D01*
X129495809Y-81809337D02*
X129477061Y-81828084D01*
X129477061Y-81828084D02*
X129458313Y-81865580D01*
D10*
X152283333Y-62724809D02*
X152449999Y-62486714D01*
X152569047Y-62724809D02*
X152569047Y-62224809D01*
X152569047Y-62224809D02*
X152378571Y-62224809D01*
X152378571Y-62224809D02*
X152330952Y-62248619D01*
X152330952Y-62248619D02*
X152307142Y-62272428D01*
X152307142Y-62272428D02*
X152283333Y-62320047D01*
X152283333Y-62320047D02*
X152283333Y-62391476D01*
X152283333Y-62391476D02*
X152307142Y-62439095D01*
X152307142Y-62439095D02*
X152330952Y-62462904D01*
X152330952Y-62462904D02*
X152378571Y-62486714D01*
X152378571Y-62486714D02*
X152569047Y-62486714D01*
X151854761Y-62391476D02*
X151854761Y-62724809D01*
X151973809Y-62201000D02*
X152092856Y-62558142D01*
X152092856Y-62558142D02*
X151783333Y-62558142D01*
D11*
X124365616Y-126139519D02*
X124384364Y-126158267D01*
X124384364Y-126158267D02*
X124440607Y-126177014D01*
X124440607Y-126177014D02*
X124478102Y-126177014D01*
X124478102Y-126177014D02*
X124534345Y-126158267D01*
X124534345Y-126158267D02*
X124571841Y-126120771D01*
X124571841Y-126120771D02*
X124590588Y-126083276D01*
X124590588Y-126083276D02*
X124609336Y-126008285D01*
X124609336Y-126008285D02*
X124609336Y-125952042D01*
X124609336Y-125952042D02*
X124590588Y-125877052D01*
X124590588Y-125877052D02*
X124571841Y-125839556D01*
X124571841Y-125839556D02*
X124534345Y-125802061D01*
X124534345Y-125802061D02*
X124478102Y-125783313D01*
X124478102Y-125783313D02*
X124440607Y-125783313D01*
X124440607Y-125783313D02*
X124384364Y-125802061D01*
X124384364Y-125802061D02*
X124365616Y-125820809D01*
X124028158Y-125914547D02*
X124028158Y-126177014D01*
X124121897Y-125764566D02*
X124215635Y-126045781D01*
X124215635Y-126045781D02*
X123971915Y-126045781D01*
X111378092Y-84030204D02*
X111396840Y-84048952D01*
X111396840Y-84048952D02*
X111453083Y-84067699D01*
X111453083Y-84067699D02*
X111490578Y-84067699D01*
X111490578Y-84067699D02*
X111546821Y-84048952D01*
X111546821Y-84048952D02*
X111584317Y-84011456D01*
X111584317Y-84011456D02*
X111603064Y-83973961D01*
X111603064Y-83973961D02*
X111621812Y-83898970D01*
X111621812Y-83898970D02*
X111621812Y-83842727D01*
X111621812Y-83842727D02*
X111603064Y-83767737D01*
X111603064Y-83767737D02*
X111584317Y-83730241D01*
X111584317Y-83730241D02*
X111546821Y-83692746D01*
X111546821Y-83692746D02*
X111490578Y-83673998D01*
X111490578Y-83673998D02*
X111453083Y-83673998D01*
X111453083Y-83673998D02*
X111396840Y-83692746D01*
X111396840Y-83692746D02*
X111378092Y-83711494D01*
X111246859Y-83673998D02*
X111003139Y-83673998D01*
X111003139Y-83673998D02*
X111134373Y-83823980D01*
X111134373Y-83823980D02*
X111078130Y-83823980D01*
X111078130Y-83823980D02*
X111040634Y-83842727D01*
X111040634Y-83842727D02*
X111021887Y-83861475D01*
X111021887Y-83861475D02*
X111003139Y-83898970D01*
X111003139Y-83898970D02*
X111003139Y-83992709D01*
X111003139Y-83992709D02*
X111021887Y-84030204D01*
X111021887Y-84030204D02*
X111040634Y-84048952D01*
X111040634Y-84048952D02*
X111078130Y-84067699D01*
X111078130Y-84067699D02*
X111190616Y-84067699D01*
X111190616Y-84067699D02*
X111228111Y-84048952D01*
X111228111Y-84048952D02*
X111246859Y-84030204D01*
X110871906Y-83673998D02*
X110628186Y-83673998D01*
X110628186Y-83673998D02*
X110759420Y-83823980D01*
X110759420Y-83823980D02*
X110703177Y-83823980D01*
X110703177Y-83823980D02*
X110665681Y-83842727D01*
X110665681Y-83842727D02*
X110646934Y-83861475D01*
X110646934Y-83861475D02*
X110628186Y-83898970D01*
X110628186Y-83898970D02*
X110628186Y-83992709D01*
X110628186Y-83992709D02*
X110646934Y-84030204D01*
X110646934Y-84030204D02*
X110665681Y-84048952D01*
X110665681Y-84048952D02*
X110703177Y-84067699D01*
X110703177Y-84067699D02*
X110815663Y-84067699D01*
X110815663Y-84067699D02*
X110853158Y-84048952D01*
X110853158Y-84048952D02*
X110871906Y-84030204D01*
D10*
X129683333Y-103424809D02*
X129849999Y-103186714D01*
X129969047Y-103424809D02*
X129969047Y-102924809D01*
X129969047Y-102924809D02*
X129778571Y-102924809D01*
X129778571Y-102924809D02*
X129730952Y-102948619D01*
X129730952Y-102948619D02*
X129707142Y-102972428D01*
X129707142Y-102972428D02*
X129683333Y-103020047D01*
X129683333Y-103020047D02*
X129683333Y-103091476D01*
X129683333Y-103091476D02*
X129707142Y-103139095D01*
X129707142Y-103139095D02*
X129730952Y-103162904D01*
X129730952Y-103162904D02*
X129778571Y-103186714D01*
X129778571Y-103186714D02*
X129969047Y-103186714D01*
X129254761Y-102924809D02*
X129349999Y-102924809D01*
X129349999Y-102924809D02*
X129397618Y-102948619D01*
X129397618Y-102948619D02*
X129421428Y-102972428D01*
X129421428Y-102972428D02*
X129469047Y-103043857D01*
X129469047Y-103043857D02*
X129492856Y-103139095D01*
X129492856Y-103139095D02*
X129492856Y-103329571D01*
X129492856Y-103329571D02*
X129469047Y-103377190D01*
X129469047Y-103377190D02*
X129445237Y-103401000D01*
X129445237Y-103401000D02*
X129397618Y-103424809D01*
X129397618Y-103424809D02*
X129302380Y-103424809D01*
X129302380Y-103424809D02*
X129254761Y-103401000D01*
X129254761Y-103401000D02*
X129230952Y-103377190D01*
X129230952Y-103377190D02*
X129207142Y-103329571D01*
X129207142Y-103329571D02*
X129207142Y-103210523D01*
X129207142Y-103210523D02*
X129230952Y-103162904D01*
X129230952Y-103162904D02*
X129254761Y-103139095D01*
X129254761Y-103139095D02*
X129302380Y-103115285D01*
X129302380Y-103115285D02*
X129397618Y-103115285D01*
X129397618Y-103115285D02*
X129445237Y-103139095D01*
X129445237Y-103139095D02*
X129469047Y-103162904D01*
X129469047Y-103162904D02*
X129492856Y-103210523D01*
D11*
X113753092Y-72739519D02*
X113771840Y-72758267D01*
X113771840Y-72758267D02*
X113828083Y-72777014D01*
X113828083Y-72777014D02*
X113865578Y-72777014D01*
X113865578Y-72777014D02*
X113921821Y-72758267D01*
X113921821Y-72758267D02*
X113959317Y-72720771D01*
X113959317Y-72720771D02*
X113978064Y-72683276D01*
X113978064Y-72683276D02*
X113996812Y-72608285D01*
X113996812Y-72608285D02*
X113996812Y-72552042D01*
X113996812Y-72552042D02*
X113978064Y-72477052D01*
X113978064Y-72477052D02*
X113959317Y-72439556D01*
X113959317Y-72439556D02*
X113921821Y-72402061D01*
X113921821Y-72402061D02*
X113865578Y-72383313D01*
X113865578Y-72383313D02*
X113828083Y-72383313D01*
X113828083Y-72383313D02*
X113771840Y-72402061D01*
X113771840Y-72402061D02*
X113753092Y-72420809D01*
X113378139Y-72777014D02*
X113603111Y-72777014D01*
X113490625Y-72777014D02*
X113490625Y-72383313D01*
X113490625Y-72383313D02*
X113528120Y-72439556D01*
X113528120Y-72439556D02*
X113565616Y-72477052D01*
X113565616Y-72477052D02*
X113603111Y-72495799D01*
X113190663Y-72777014D02*
X113115672Y-72777014D01*
X113115672Y-72777014D02*
X113078177Y-72758267D01*
X113078177Y-72758267D02*
X113059429Y-72739519D01*
X113059429Y-72739519D02*
X113021934Y-72683276D01*
X113021934Y-72683276D02*
X113003186Y-72608285D01*
X113003186Y-72608285D02*
X113003186Y-72458304D01*
X113003186Y-72458304D02*
X113021934Y-72420809D01*
X113021934Y-72420809D02*
X113040681Y-72402061D01*
X113040681Y-72402061D02*
X113078177Y-72383313D01*
X113078177Y-72383313D02*
X113153167Y-72383313D01*
X113153167Y-72383313D02*
X113190663Y-72402061D01*
X113190663Y-72402061D02*
X113209410Y-72420809D01*
X113209410Y-72420809D02*
X113228158Y-72458304D01*
X113228158Y-72458304D02*
X113228158Y-72552042D01*
X113228158Y-72552042D02*
X113209410Y-72589538D01*
X113209410Y-72589538D02*
X113190663Y-72608285D01*
X113190663Y-72608285D02*
X113153167Y-72627033D01*
X113153167Y-72627033D02*
X113078177Y-72627033D01*
X113078177Y-72627033D02*
X113040681Y-72608285D01*
X113040681Y-72608285D02*
X113021934Y-72589538D01*
X113021934Y-72589538D02*
X113003186Y-72552042D01*
D10*
X120221428Y-102724809D02*
X120388094Y-102486714D01*
X120507142Y-102724809D02*
X120507142Y-102224809D01*
X120507142Y-102224809D02*
X120316666Y-102224809D01*
X120316666Y-102224809D02*
X120269047Y-102248619D01*
X120269047Y-102248619D02*
X120245237Y-102272428D01*
X120245237Y-102272428D02*
X120221428Y-102320047D01*
X120221428Y-102320047D02*
X120221428Y-102391476D01*
X120221428Y-102391476D02*
X120245237Y-102439095D01*
X120245237Y-102439095D02*
X120269047Y-102462904D01*
X120269047Y-102462904D02*
X120316666Y-102486714D01*
X120316666Y-102486714D02*
X120507142Y-102486714D01*
X119745237Y-102724809D02*
X120030951Y-102724809D01*
X119888094Y-102724809D02*
X119888094Y-102224809D01*
X119888094Y-102224809D02*
X119935713Y-102296238D01*
X119935713Y-102296238D02*
X119983332Y-102343857D01*
X119983332Y-102343857D02*
X120030951Y-102367666D01*
X119507142Y-102724809D02*
X119411904Y-102724809D01*
X119411904Y-102724809D02*
X119364285Y-102701000D01*
X119364285Y-102701000D02*
X119340476Y-102677190D01*
X119340476Y-102677190D02*
X119292857Y-102605761D01*
X119292857Y-102605761D02*
X119269047Y-102510523D01*
X119269047Y-102510523D02*
X119269047Y-102320047D01*
X119269047Y-102320047D02*
X119292857Y-102272428D01*
X119292857Y-102272428D02*
X119316666Y-102248619D01*
X119316666Y-102248619D02*
X119364285Y-102224809D01*
X119364285Y-102224809D02*
X119459523Y-102224809D01*
X119459523Y-102224809D02*
X119507142Y-102248619D01*
X119507142Y-102248619D02*
X119530952Y-102272428D01*
X119530952Y-102272428D02*
X119554761Y-102320047D01*
X119554761Y-102320047D02*
X119554761Y-102439095D01*
X119554761Y-102439095D02*
X119530952Y-102486714D01*
X119530952Y-102486714D02*
X119507142Y-102510523D01*
X119507142Y-102510523D02*
X119459523Y-102534333D01*
X119459523Y-102534333D02*
X119364285Y-102534333D01*
X119364285Y-102534333D02*
X119316666Y-102510523D01*
X119316666Y-102510523D02*
X119292857Y-102486714D01*
X119292857Y-102486714D02*
X119269047Y-102439095D01*
D11*
X128765616Y-107139519D02*
X128784364Y-107158267D01*
X128784364Y-107158267D02*
X128840607Y-107177014D01*
X128840607Y-107177014D02*
X128878102Y-107177014D01*
X128878102Y-107177014D02*
X128934345Y-107158267D01*
X128934345Y-107158267D02*
X128971841Y-107120771D01*
X128971841Y-107120771D02*
X128990588Y-107083276D01*
X128990588Y-107083276D02*
X129009336Y-107008285D01*
X129009336Y-107008285D02*
X129009336Y-106952042D01*
X129009336Y-106952042D02*
X128990588Y-106877052D01*
X128990588Y-106877052D02*
X128971841Y-106839556D01*
X128971841Y-106839556D02*
X128934345Y-106802061D01*
X128934345Y-106802061D02*
X128878102Y-106783313D01*
X128878102Y-106783313D02*
X128840607Y-106783313D01*
X128840607Y-106783313D02*
X128784364Y-106802061D01*
X128784364Y-106802061D02*
X128765616Y-106820809D01*
X128615635Y-106820809D02*
X128596887Y-106802061D01*
X128596887Y-106802061D02*
X128559392Y-106783313D01*
X128559392Y-106783313D02*
X128465654Y-106783313D01*
X128465654Y-106783313D02*
X128428158Y-106802061D01*
X128428158Y-106802061D02*
X128409411Y-106820809D01*
X128409411Y-106820809D02*
X128390663Y-106858304D01*
X128390663Y-106858304D02*
X128390663Y-106895799D01*
X128390663Y-106895799D02*
X128409411Y-106952042D01*
X128409411Y-106952042D02*
X128634383Y-107177014D01*
X128634383Y-107177014D02*
X128390663Y-107177014D01*
X113578092Y-76730204D02*
X113596840Y-76748952D01*
X113596840Y-76748952D02*
X113653083Y-76767699D01*
X113653083Y-76767699D02*
X113690578Y-76767699D01*
X113690578Y-76767699D02*
X113746821Y-76748952D01*
X113746821Y-76748952D02*
X113784317Y-76711456D01*
X113784317Y-76711456D02*
X113803064Y-76673961D01*
X113803064Y-76673961D02*
X113821812Y-76598970D01*
X113821812Y-76598970D02*
X113821812Y-76542727D01*
X113821812Y-76542727D02*
X113803064Y-76467737D01*
X113803064Y-76467737D02*
X113784317Y-76430241D01*
X113784317Y-76430241D02*
X113746821Y-76392746D01*
X113746821Y-76392746D02*
X113690578Y-76373998D01*
X113690578Y-76373998D02*
X113653083Y-76373998D01*
X113653083Y-76373998D02*
X113596840Y-76392746D01*
X113596840Y-76392746D02*
X113578092Y-76411494D01*
X113446859Y-76373998D02*
X113203139Y-76373998D01*
X113203139Y-76373998D02*
X113334373Y-76523980D01*
X113334373Y-76523980D02*
X113278130Y-76523980D01*
X113278130Y-76523980D02*
X113240634Y-76542727D01*
X113240634Y-76542727D02*
X113221887Y-76561475D01*
X113221887Y-76561475D02*
X113203139Y-76598970D01*
X113203139Y-76598970D02*
X113203139Y-76692709D01*
X113203139Y-76692709D02*
X113221887Y-76730204D01*
X113221887Y-76730204D02*
X113240634Y-76748952D01*
X113240634Y-76748952D02*
X113278130Y-76767699D01*
X113278130Y-76767699D02*
X113390616Y-76767699D01*
X113390616Y-76767699D02*
X113428111Y-76748952D01*
X113428111Y-76748952D02*
X113446859Y-76730204D01*
X112865681Y-76373998D02*
X112940672Y-76373998D01*
X112940672Y-76373998D02*
X112978167Y-76392746D01*
X112978167Y-76392746D02*
X112996915Y-76411494D01*
X112996915Y-76411494D02*
X113034410Y-76467737D01*
X113034410Y-76467737D02*
X113053158Y-76542727D01*
X113053158Y-76542727D02*
X113053158Y-76692709D01*
X113053158Y-76692709D02*
X113034410Y-76730204D01*
X113034410Y-76730204D02*
X113015663Y-76748952D01*
X113015663Y-76748952D02*
X112978167Y-76767699D01*
X112978167Y-76767699D02*
X112903177Y-76767699D01*
X112903177Y-76767699D02*
X112865681Y-76748952D01*
X112865681Y-76748952D02*
X112846934Y-76730204D01*
X112846934Y-76730204D02*
X112828186Y-76692709D01*
X112828186Y-76692709D02*
X112828186Y-76598970D01*
X112828186Y-76598970D02*
X112846934Y-76561475D01*
X112846934Y-76561475D02*
X112865681Y-76542727D01*
X112865681Y-76542727D02*
X112903177Y-76523980D01*
X112903177Y-76523980D02*
X112978167Y-76523980D01*
X112978167Y-76523980D02*
X113015663Y-76542727D01*
X113015663Y-76542727D02*
X113034410Y-76561475D01*
X113034410Y-76561475D02*
X113053158Y-76598970D01*
X128953092Y-72739519D02*
X128971840Y-72758267D01*
X128971840Y-72758267D02*
X129028083Y-72777014D01*
X129028083Y-72777014D02*
X129065578Y-72777014D01*
X129065578Y-72777014D02*
X129121821Y-72758267D01*
X129121821Y-72758267D02*
X129159317Y-72720771D01*
X129159317Y-72720771D02*
X129178064Y-72683276D01*
X129178064Y-72683276D02*
X129196812Y-72608285D01*
X129196812Y-72608285D02*
X129196812Y-72552042D01*
X129196812Y-72552042D02*
X129178064Y-72477052D01*
X129178064Y-72477052D02*
X129159317Y-72439556D01*
X129159317Y-72439556D02*
X129121821Y-72402061D01*
X129121821Y-72402061D02*
X129065578Y-72383313D01*
X129065578Y-72383313D02*
X129028083Y-72383313D01*
X129028083Y-72383313D02*
X128971840Y-72402061D01*
X128971840Y-72402061D02*
X128953092Y-72420809D01*
X128578139Y-72777014D02*
X128803111Y-72777014D01*
X128690625Y-72777014D02*
X128690625Y-72383313D01*
X128690625Y-72383313D02*
X128728120Y-72439556D01*
X128728120Y-72439556D02*
X128765616Y-72477052D01*
X128765616Y-72477052D02*
X128803111Y-72495799D01*
X128240681Y-72514547D02*
X128240681Y-72777014D01*
X128334420Y-72364566D02*
X128428158Y-72645781D01*
X128428158Y-72645781D02*
X128184438Y-72645781D01*
X114398094Y-115989519D02*
X114416842Y-116008267D01*
X114416842Y-116008267D02*
X114473085Y-116027014D01*
X114473085Y-116027014D02*
X114510580Y-116027014D01*
X114510580Y-116027014D02*
X114566823Y-116008267D01*
X114566823Y-116008267D02*
X114604319Y-115970771D01*
X114604319Y-115970771D02*
X114623066Y-115933276D01*
X114623066Y-115933276D02*
X114641814Y-115858285D01*
X114641814Y-115858285D02*
X114641814Y-115802042D01*
X114641814Y-115802042D02*
X114623066Y-115727052D01*
X114623066Y-115727052D02*
X114604319Y-115689556D01*
X114604319Y-115689556D02*
X114566823Y-115652061D01*
X114566823Y-115652061D02*
X114510580Y-115633313D01*
X114510580Y-115633313D02*
X114473085Y-115633313D01*
X114473085Y-115633313D02*
X114416842Y-115652061D01*
X114416842Y-115652061D02*
X114398094Y-115670809D01*
X114266861Y-115633313D02*
X114023141Y-115633313D01*
X114023141Y-115633313D02*
X114154375Y-115783295D01*
X114154375Y-115783295D02*
X114098132Y-115783295D01*
X114098132Y-115783295D02*
X114060636Y-115802042D01*
X114060636Y-115802042D02*
X114041889Y-115820790D01*
X114041889Y-115820790D02*
X114023141Y-115858285D01*
X114023141Y-115858285D02*
X114023141Y-115952024D01*
X114023141Y-115952024D02*
X114041889Y-115989519D01*
X114041889Y-115989519D02*
X114060636Y-116008267D01*
X114060636Y-116008267D02*
X114098132Y-116027014D01*
X114098132Y-116027014D02*
X114210618Y-116027014D01*
X114210618Y-116027014D02*
X114248113Y-116008267D01*
X114248113Y-116008267D02*
X114266861Y-115989519D01*
X113798169Y-115802042D02*
X113835665Y-115783295D01*
X113835665Y-115783295D02*
X113854412Y-115764547D01*
X113854412Y-115764547D02*
X113873160Y-115727052D01*
X113873160Y-115727052D02*
X113873160Y-115708304D01*
X113873160Y-115708304D02*
X113854412Y-115670809D01*
X113854412Y-115670809D02*
X113835665Y-115652061D01*
X113835665Y-115652061D02*
X113798169Y-115633313D01*
X113798169Y-115633313D02*
X113723179Y-115633313D01*
X113723179Y-115633313D02*
X113685683Y-115652061D01*
X113685683Y-115652061D02*
X113666936Y-115670809D01*
X113666936Y-115670809D02*
X113648188Y-115708304D01*
X113648188Y-115708304D02*
X113648188Y-115727052D01*
X113648188Y-115727052D02*
X113666936Y-115764547D01*
X113666936Y-115764547D02*
X113685683Y-115783295D01*
X113685683Y-115783295D02*
X113723179Y-115802042D01*
X113723179Y-115802042D02*
X113798169Y-115802042D01*
X113798169Y-115802042D02*
X113835665Y-115820790D01*
X113835665Y-115820790D02*
X113854412Y-115839538D01*
X113854412Y-115839538D02*
X113873160Y-115877033D01*
X113873160Y-115877033D02*
X113873160Y-115952024D01*
X113873160Y-115952024D02*
X113854412Y-115989519D01*
X113854412Y-115989519D02*
X113835665Y-116008267D01*
X113835665Y-116008267D02*
X113798169Y-116027014D01*
X113798169Y-116027014D02*
X113723179Y-116027014D01*
X113723179Y-116027014D02*
X113685683Y-116008267D01*
X113685683Y-116008267D02*
X113666936Y-115989519D01*
X113666936Y-115989519D02*
X113648188Y-115952024D01*
X113648188Y-115952024D02*
X113648188Y-115877033D01*
X113648188Y-115877033D02*
X113666936Y-115839538D01*
X113666936Y-115839538D02*
X113685683Y-115820790D01*
X113685683Y-115820790D02*
X113723179Y-115802042D01*
D10*
X110021428Y-63624809D02*
X110188094Y-63386714D01*
X110307142Y-63624809D02*
X110307142Y-63124809D01*
X110307142Y-63124809D02*
X110116666Y-63124809D01*
X110116666Y-63124809D02*
X110069047Y-63148619D01*
X110069047Y-63148619D02*
X110045237Y-63172428D01*
X110045237Y-63172428D02*
X110021428Y-63220047D01*
X110021428Y-63220047D02*
X110021428Y-63291476D01*
X110021428Y-63291476D02*
X110045237Y-63339095D01*
X110045237Y-63339095D02*
X110069047Y-63362904D01*
X110069047Y-63362904D02*
X110116666Y-63386714D01*
X110116666Y-63386714D02*
X110307142Y-63386714D01*
X109830951Y-63172428D02*
X109807142Y-63148619D01*
X109807142Y-63148619D02*
X109759523Y-63124809D01*
X109759523Y-63124809D02*
X109640475Y-63124809D01*
X109640475Y-63124809D02*
X109592856Y-63148619D01*
X109592856Y-63148619D02*
X109569047Y-63172428D01*
X109569047Y-63172428D02*
X109545237Y-63220047D01*
X109545237Y-63220047D02*
X109545237Y-63267666D01*
X109545237Y-63267666D02*
X109569047Y-63339095D01*
X109569047Y-63339095D02*
X109854761Y-63624809D01*
X109854761Y-63624809D02*
X109545237Y-63624809D01*
X109069047Y-63624809D02*
X109354761Y-63624809D01*
X109211904Y-63624809D02*
X109211904Y-63124809D01*
X109211904Y-63124809D02*
X109259523Y-63196238D01*
X109259523Y-63196238D02*
X109307142Y-63243857D01*
X109307142Y-63243857D02*
X109354761Y-63267666D01*
D11*
X108928092Y-84130204D02*
X108946840Y-84148952D01*
X108946840Y-84148952D02*
X109003083Y-84167699D01*
X109003083Y-84167699D02*
X109040578Y-84167699D01*
X109040578Y-84167699D02*
X109096821Y-84148952D01*
X109096821Y-84148952D02*
X109134317Y-84111456D01*
X109134317Y-84111456D02*
X109153064Y-84073961D01*
X109153064Y-84073961D02*
X109171812Y-83998970D01*
X109171812Y-83998970D02*
X109171812Y-83942727D01*
X109171812Y-83942727D02*
X109153064Y-83867737D01*
X109153064Y-83867737D02*
X109134317Y-83830241D01*
X109134317Y-83830241D02*
X109096821Y-83792746D01*
X109096821Y-83792746D02*
X109040578Y-83773998D01*
X109040578Y-83773998D02*
X109003083Y-83773998D01*
X109003083Y-83773998D02*
X108946840Y-83792746D01*
X108946840Y-83792746D02*
X108928092Y-83811494D01*
X108778111Y-83811494D02*
X108759363Y-83792746D01*
X108759363Y-83792746D02*
X108721868Y-83773998D01*
X108721868Y-83773998D02*
X108628130Y-83773998D01*
X108628130Y-83773998D02*
X108590634Y-83792746D01*
X108590634Y-83792746D02*
X108571887Y-83811494D01*
X108571887Y-83811494D02*
X108553139Y-83848989D01*
X108553139Y-83848989D02*
X108553139Y-83886484D01*
X108553139Y-83886484D02*
X108571887Y-83942727D01*
X108571887Y-83942727D02*
X108796859Y-84167699D01*
X108796859Y-84167699D02*
X108553139Y-84167699D01*
X108365663Y-84167699D02*
X108290672Y-84167699D01*
X108290672Y-84167699D02*
X108253177Y-84148952D01*
X108253177Y-84148952D02*
X108234429Y-84130204D01*
X108234429Y-84130204D02*
X108196934Y-84073961D01*
X108196934Y-84073961D02*
X108178186Y-83998970D01*
X108178186Y-83998970D02*
X108178186Y-83848989D01*
X108178186Y-83848989D02*
X108196934Y-83811494D01*
X108196934Y-83811494D02*
X108215681Y-83792746D01*
X108215681Y-83792746D02*
X108253177Y-83773998D01*
X108253177Y-83773998D02*
X108328167Y-83773998D01*
X108328167Y-83773998D02*
X108365663Y-83792746D01*
X108365663Y-83792746D02*
X108384410Y-83811494D01*
X108384410Y-83811494D02*
X108403158Y-83848989D01*
X108403158Y-83848989D02*
X108403158Y-83942727D01*
X108403158Y-83942727D02*
X108384410Y-83980223D01*
X108384410Y-83980223D02*
X108365663Y-83998970D01*
X108365663Y-83998970D02*
X108328167Y-84017718D01*
X108328167Y-84017718D02*
X108253177Y-84017718D01*
X108253177Y-84017718D02*
X108215681Y-83998970D01*
X108215681Y-83998970D02*
X108196934Y-83980223D01*
X108196934Y-83980223D02*
X108178186Y-83942727D01*
X117765616Y-129439519D02*
X117784364Y-129458267D01*
X117784364Y-129458267D02*
X117840607Y-129477014D01*
X117840607Y-129477014D02*
X117878102Y-129477014D01*
X117878102Y-129477014D02*
X117934345Y-129458267D01*
X117934345Y-129458267D02*
X117971841Y-129420771D01*
X117971841Y-129420771D02*
X117990588Y-129383276D01*
X117990588Y-129383276D02*
X118009336Y-129308285D01*
X118009336Y-129308285D02*
X118009336Y-129252042D01*
X118009336Y-129252042D02*
X117990588Y-129177052D01*
X117990588Y-129177052D02*
X117971841Y-129139556D01*
X117971841Y-129139556D02*
X117934345Y-129102061D01*
X117934345Y-129102061D02*
X117878102Y-129083313D01*
X117878102Y-129083313D02*
X117840607Y-129083313D01*
X117840607Y-129083313D02*
X117784364Y-129102061D01*
X117784364Y-129102061D02*
X117765616Y-129120809D01*
X117409411Y-129083313D02*
X117596887Y-129083313D01*
X117596887Y-129083313D02*
X117615635Y-129270790D01*
X117615635Y-129270790D02*
X117596887Y-129252042D01*
X117596887Y-129252042D02*
X117559392Y-129233295D01*
X117559392Y-129233295D02*
X117465654Y-129233295D01*
X117465654Y-129233295D02*
X117428158Y-129252042D01*
X117428158Y-129252042D02*
X117409411Y-129270790D01*
X117409411Y-129270790D02*
X117390663Y-129308285D01*
X117390663Y-129308285D02*
X117390663Y-129402024D01*
X117390663Y-129402024D02*
X117409411Y-129439519D01*
X117409411Y-129439519D02*
X117428158Y-129458267D01*
X117428158Y-129458267D02*
X117465654Y-129477014D01*
X117465654Y-129477014D02*
X117559392Y-129477014D01*
X117559392Y-129477014D02*
X117596887Y-129458267D01*
X117596887Y-129458267D02*
X117615635Y-129439519D01*
D10*
X115983333Y-63624809D02*
X116149999Y-63386714D01*
X116269047Y-63624809D02*
X116269047Y-63124809D01*
X116269047Y-63124809D02*
X116078571Y-63124809D01*
X116078571Y-63124809D02*
X116030952Y-63148619D01*
X116030952Y-63148619D02*
X116007142Y-63172428D01*
X116007142Y-63172428D02*
X115983333Y-63220047D01*
X115983333Y-63220047D02*
X115983333Y-63291476D01*
X115983333Y-63291476D02*
X116007142Y-63339095D01*
X116007142Y-63339095D02*
X116030952Y-63362904D01*
X116030952Y-63362904D02*
X116078571Y-63386714D01*
X116078571Y-63386714D02*
X116269047Y-63386714D01*
X115792856Y-63172428D02*
X115769047Y-63148619D01*
X115769047Y-63148619D02*
X115721428Y-63124809D01*
X115721428Y-63124809D02*
X115602380Y-63124809D01*
X115602380Y-63124809D02*
X115554761Y-63148619D01*
X115554761Y-63148619D02*
X115530952Y-63172428D01*
X115530952Y-63172428D02*
X115507142Y-63220047D01*
X115507142Y-63220047D02*
X115507142Y-63267666D01*
X115507142Y-63267666D02*
X115530952Y-63339095D01*
X115530952Y-63339095D02*
X115816666Y-63624809D01*
X115816666Y-63624809D02*
X115507142Y-63624809D01*
D11*
X125853092Y-76677014D02*
X125984326Y-76489538D01*
X126078064Y-76677014D02*
X126078064Y-76283313D01*
X126078064Y-76283313D02*
X125928083Y-76283313D01*
X125928083Y-76283313D02*
X125890588Y-76302061D01*
X125890588Y-76302061D02*
X125871840Y-76320809D01*
X125871840Y-76320809D02*
X125853092Y-76358304D01*
X125853092Y-76358304D02*
X125853092Y-76414547D01*
X125853092Y-76414547D02*
X125871840Y-76452042D01*
X125871840Y-76452042D02*
X125890588Y-76470790D01*
X125890588Y-76470790D02*
X125928083Y-76489538D01*
X125928083Y-76489538D02*
X126078064Y-76489538D01*
X125515634Y-76414547D02*
X125515634Y-76677014D01*
X125609373Y-76264566D02*
X125703111Y-76545781D01*
X125703111Y-76545781D02*
X125459391Y-76545781D01*
X125328158Y-76320809D02*
X125309410Y-76302061D01*
X125309410Y-76302061D02*
X125271915Y-76283313D01*
X125271915Y-76283313D02*
X125178177Y-76283313D01*
X125178177Y-76283313D02*
X125140681Y-76302061D01*
X125140681Y-76302061D02*
X125121934Y-76320809D01*
X125121934Y-76320809D02*
X125103186Y-76358304D01*
X125103186Y-76358304D02*
X125103186Y-76395799D01*
X125103186Y-76395799D02*
X125121934Y-76452042D01*
X125121934Y-76452042D02*
X125346906Y-76677014D01*
X125346906Y-76677014D02*
X125103186Y-76677014D01*
D10*
X120521428Y-63624809D02*
X120688094Y-63386714D01*
X120807142Y-63624809D02*
X120807142Y-63124809D01*
X120807142Y-63124809D02*
X120616666Y-63124809D01*
X120616666Y-63124809D02*
X120569047Y-63148619D01*
X120569047Y-63148619D02*
X120545237Y-63172428D01*
X120545237Y-63172428D02*
X120521428Y-63220047D01*
X120521428Y-63220047D02*
X120521428Y-63291476D01*
X120521428Y-63291476D02*
X120545237Y-63339095D01*
X120545237Y-63339095D02*
X120569047Y-63362904D01*
X120569047Y-63362904D02*
X120616666Y-63386714D01*
X120616666Y-63386714D02*
X120807142Y-63386714D01*
X120330951Y-63172428D02*
X120307142Y-63148619D01*
X120307142Y-63148619D02*
X120259523Y-63124809D01*
X120259523Y-63124809D02*
X120140475Y-63124809D01*
X120140475Y-63124809D02*
X120092856Y-63148619D01*
X120092856Y-63148619D02*
X120069047Y-63172428D01*
X120069047Y-63172428D02*
X120045237Y-63220047D01*
X120045237Y-63220047D02*
X120045237Y-63267666D01*
X120045237Y-63267666D02*
X120069047Y-63339095D01*
X120069047Y-63339095D02*
X120354761Y-63624809D01*
X120354761Y-63624809D02*
X120045237Y-63624809D01*
X119616666Y-63291476D02*
X119616666Y-63624809D01*
X119735714Y-63101000D02*
X119854761Y-63458142D01*
X119854761Y-63458142D02*
X119545238Y-63458142D01*
D11*
X129639519Y-120846907D02*
X129658267Y-120828159D01*
X129658267Y-120828159D02*
X129677014Y-120771916D01*
X129677014Y-120771916D02*
X129677014Y-120734421D01*
X129677014Y-120734421D02*
X129658267Y-120678178D01*
X129658267Y-120678178D02*
X129620771Y-120640683D01*
X129620771Y-120640683D02*
X129583276Y-120621935D01*
X129583276Y-120621935D02*
X129508285Y-120603187D01*
X129508285Y-120603187D02*
X129452042Y-120603187D01*
X129452042Y-120603187D02*
X129377052Y-120621935D01*
X129377052Y-120621935D02*
X129339556Y-120640683D01*
X129339556Y-120640683D02*
X129302061Y-120678178D01*
X129302061Y-120678178D02*
X129283313Y-120734421D01*
X129283313Y-120734421D02*
X129283313Y-120771916D01*
X129283313Y-120771916D02*
X129302061Y-120828159D01*
X129302061Y-120828159D02*
X129320809Y-120846907D01*
X129414547Y-121184365D02*
X129677014Y-121184365D01*
X129264566Y-121090627D02*
X129545781Y-120996888D01*
X129545781Y-120996888D02*
X129545781Y-121240608D01*
X129677014Y-121596813D02*
X129677014Y-121371841D01*
X129677014Y-121484327D02*
X129283313Y-121484327D01*
X129283313Y-121484327D02*
X129339556Y-121446832D01*
X129339556Y-121446832D02*
X129377052Y-121409337D01*
X129377052Y-121409337D02*
X129395799Y-121371841D01*
D10*
X109421428Y-107877190D02*
X109445237Y-107901000D01*
X109445237Y-107901000D02*
X109516666Y-107924809D01*
X109516666Y-107924809D02*
X109564285Y-107924809D01*
X109564285Y-107924809D02*
X109635713Y-107901000D01*
X109635713Y-107901000D02*
X109683332Y-107853380D01*
X109683332Y-107853380D02*
X109707142Y-107805761D01*
X109707142Y-107805761D02*
X109730951Y-107710523D01*
X109730951Y-107710523D02*
X109730951Y-107639095D01*
X109730951Y-107639095D02*
X109707142Y-107543857D01*
X109707142Y-107543857D02*
X109683332Y-107496238D01*
X109683332Y-107496238D02*
X109635713Y-107448619D01*
X109635713Y-107448619D02*
X109564285Y-107424809D01*
X109564285Y-107424809D02*
X109516666Y-107424809D01*
X109516666Y-107424809D02*
X109445237Y-107448619D01*
X109445237Y-107448619D02*
X109421428Y-107472428D01*
X108945237Y-107924809D02*
X109230951Y-107924809D01*
X109088094Y-107924809D02*
X109088094Y-107424809D01*
X109088094Y-107424809D02*
X109135713Y-107496238D01*
X109135713Y-107496238D02*
X109183332Y-107543857D01*
X109183332Y-107543857D02*
X109230951Y-107567666D01*
X108635714Y-107424809D02*
X108588095Y-107424809D01*
X108588095Y-107424809D02*
X108540476Y-107448619D01*
X108540476Y-107448619D02*
X108516666Y-107472428D01*
X108516666Y-107472428D02*
X108492857Y-107520047D01*
X108492857Y-107520047D02*
X108469047Y-107615285D01*
X108469047Y-107615285D02*
X108469047Y-107734333D01*
X108469047Y-107734333D02*
X108492857Y-107829571D01*
X108492857Y-107829571D02*
X108516666Y-107877190D01*
X108516666Y-107877190D02*
X108540476Y-107901000D01*
X108540476Y-107901000D02*
X108588095Y-107924809D01*
X108588095Y-107924809D02*
X108635714Y-107924809D01*
X108635714Y-107924809D02*
X108683333Y-107901000D01*
X108683333Y-107901000D02*
X108707142Y-107877190D01*
X108707142Y-107877190D02*
X108730952Y-107829571D01*
X108730952Y-107829571D02*
X108754761Y-107734333D01*
X108754761Y-107734333D02*
X108754761Y-107615285D01*
X108754761Y-107615285D02*
X108730952Y-107520047D01*
X108730952Y-107520047D02*
X108707142Y-107472428D01*
X108707142Y-107472428D02*
X108683333Y-107448619D01*
X108683333Y-107448619D02*
X108635714Y-107424809D01*
D11*
X109698094Y-123539519D02*
X109716842Y-123558267D01*
X109716842Y-123558267D02*
X109773085Y-123577014D01*
X109773085Y-123577014D02*
X109810580Y-123577014D01*
X109810580Y-123577014D02*
X109866823Y-123558267D01*
X109866823Y-123558267D02*
X109904319Y-123520771D01*
X109904319Y-123520771D02*
X109923066Y-123483276D01*
X109923066Y-123483276D02*
X109941814Y-123408285D01*
X109941814Y-123408285D02*
X109941814Y-123352042D01*
X109941814Y-123352042D02*
X109923066Y-123277052D01*
X109923066Y-123277052D02*
X109904319Y-123239556D01*
X109904319Y-123239556D02*
X109866823Y-123202061D01*
X109866823Y-123202061D02*
X109810580Y-123183313D01*
X109810580Y-123183313D02*
X109773085Y-123183313D01*
X109773085Y-123183313D02*
X109716842Y-123202061D01*
X109716842Y-123202061D02*
X109698094Y-123220809D01*
X109566861Y-123183313D02*
X109323141Y-123183313D01*
X109323141Y-123183313D02*
X109454375Y-123333295D01*
X109454375Y-123333295D02*
X109398132Y-123333295D01*
X109398132Y-123333295D02*
X109360636Y-123352042D01*
X109360636Y-123352042D02*
X109341889Y-123370790D01*
X109341889Y-123370790D02*
X109323141Y-123408285D01*
X109323141Y-123408285D02*
X109323141Y-123502024D01*
X109323141Y-123502024D02*
X109341889Y-123539519D01*
X109341889Y-123539519D02*
X109360636Y-123558267D01*
X109360636Y-123558267D02*
X109398132Y-123577014D01*
X109398132Y-123577014D02*
X109510618Y-123577014D01*
X109510618Y-123577014D02*
X109548113Y-123558267D01*
X109548113Y-123558267D02*
X109566861Y-123539519D01*
X108948188Y-123577014D02*
X109173160Y-123577014D01*
X109060674Y-123577014D02*
X109060674Y-123183313D01*
X109060674Y-123183313D02*
X109098169Y-123239556D01*
X109098169Y-123239556D02*
X109135665Y-123277052D01*
X109135665Y-123277052D02*
X109173160Y-123295799D01*
D10*
X122921428Y-102724809D02*
X123088094Y-102486714D01*
X123207142Y-102724809D02*
X123207142Y-102224809D01*
X123207142Y-102224809D02*
X123016666Y-102224809D01*
X123016666Y-102224809D02*
X122969047Y-102248619D01*
X122969047Y-102248619D02*
X122945237Y-102272428D01*
X122945237Y-102272428D02*
X122921428Y-102320047D01*
X122921428Y-102320047D02*
X122921428Y-102391476D01*
X122921428Y-102391476D02*
X122945237Y-102439095D01*
X122945237Y-102439095D02*
X122969047Y-102462904D01*
X122969047Y-102462904D02*
X123016666Y-102486714D01*
X123016666Y-102486714D02*
X123207142Y-102486714D01*
X122730951Y-102272428D02*
X122707142Y-102248619D01*
X122707142Y-102248619D02*
X122659523Y-102224809D01*
X122659523Y-102224809D02*
X122540475Y-102224809D01*
X122540475Y-102224809D02*
X122492856Y-102248619D01*
X122492856Y-102248619D02*
X122469047Y-102272428D01*
X122469047Y-102272428D02*
X122445237Y-102320047D01*
X122445237Y-102320047D02*
X122445237Y-102367666D01*
X122445237Y-102367666D02*
X122469047Y-102439095D01*
X122469047Y-102439095D02*
X122754761Y-102724809D01*
X122754761Y-102724809D02*
X122445237Y-102724809D01*
X122135714Y-102224809D02*
X122088095Y-102224809D01*
X122088095Y-102224809D02*
X122040476Y-102248619D01*
X122040476Y-102248619D02*
X122016666Y-102272428D01*
X122016666Y-102272428D02*
X121992857Y-102320047D01*
X121992857Y-102320047D02*
X121969047Y-102415285D01*
X121969047Y-102415285D02*
X121969047Y-102534333D01*
X121969047Y-102534333D02*
X121992857Y-102629571D01*
X121992857Y-102629571D02*
X122016666Y-102677190D01*
X122016666Y-102677190D02*
X122040476Y-102701000D01*
X122040476Y-102701000D02*
X122088095Y-102724809D01*
X122088095Y-102724809D02*
X122135714Y-102724809D01*
X122135714Y-102724809D02*
X122183333Y-102701000D01*
X122183333Y-102701000D02*
X122207142Y-102677190D01*
X122207142Y-102677190D02*
X122230952Y-102629571D01*
X122230952Y-102629571D02*
X122254761Y-102534333D01*
X122254761Y-102534333D02*
X122254761Y-102415285D01*
X122254761Y-102415285D02*
X122230952Y-102320047D01*
X122230952Y-102320047D02*
X122207142Y-102272428D01*
X122207142Y-102272428D02*
X122183333Y-102248619D01*
X122183333Y-102248619D02*
X122135714Y-102224809D01*
D11*
X112148094Y-123339519D02*
X112166842Y-123358267D01*
X112166842Y-123358267D02*
X112223085Y-123377014D01*
X112223085Y-123377014D02*
X112260580Y-123377014D01*
X112260580Y-123377014D02*
X112316823Y-123358267D01*
X112316823Y-123358267D02*
X112354319Y-123320771D01*
X112354319Y-123320771D02*
X112373066Y-123283276D01*
X112373066Y-123283276D02*
X112391814Y-123208285D01*
X112391814Y-123208285D02*
X112391814Y-123152042D01*
X112391814Y-123152042D02*
X112373066Y-123077052D01*
X112373066Y-123077052D02*
X112354319Y-123039556D01*
X112354319Y-123039556D02*
X112316823Y-123002061D01*
X112316823Y-123002061D02*
X112260580Y-122983313D01*
X112260580Y-122983313D02*
X112223085Y-122983313D01*
X112223085Y-122983313D02*
X112166842Y-123002061D01*
X112166842Y-123002061D02*
X112148094Y-123020809D01*
X112016861Y-122983313D02*
X111773141Y-122983313D01*
X111773141Y-122983313D02*
X111904375Y-123133295D01*
X111904375Y-123133295D02*
X111848132Y-123133295D01*
X111848132Y-123133295D02*
X111810636Y-123152042D01*
X111810636Y-123152042D02*
X111791889Y-123170790D01*
X111791889Y-123170790D02*
X111773141Y-123208285D01*
X111773141Y-123208285D02*
X111773141Y-123302024D01*
X111773141Y-123302024D02*
X111791889Y-123339519D01*
X111791889Y-123339519D02*
X111810636Y-123358267D01*
X111810636Y-123358267D02*
X111848132Y-123377014D01*
X111848132Y-123377014D02*
X111960618Y-123377014D01*
X111960618Y-123377014D02*
X111998113Y-123358267D01*
X111998113Y-123358267D02*
X112016861Y-123339519D01*
X111416936Y-122983313D02*
X111604412Y-122983313D01*
X111604412Y-122983313D02*
X111623160Y-123170790D01*
X111623160Y-123170790D02*
X111604412Y-123152042D01*
X111604412Y-123152042D02*
X111566917Y-123133295D01*
X111566917Y-123133295D02*
X111473179Y-123133295D01*
X111473179Y-123133295D02*
X111435683Y-123152042D01*
X111435683Y-123152042D02*
X111416936Y-123170790D01*
X111416936Y-123170790D02*
X111398188Y-123208285D01*
X111398188Y-123208285D02*
X111398188Y-123302024D01*
X111398188Y-123302024D02*
X111416936Y-123339519D01*
X111416936Y-123339519D02*
X111435683Y-123358267D01*
X111435683Y-123358267D02*
X111473179Y-123377014D01*
X111473179Y-123377014D02*
X111566917Y-123377014D01*
X111566917Y-123377014D02*
X111604412Y-123358267D01*
X111604412Y-123358267D02*
X111623160Y-123339519D01*
X122053092Y-69739519D02*
X122071840Y-69758267D01*
X122071840Y-69758267D02*
X122128083Y-69777014D01*
X122128083Y-69777014D02*
X122165578Y-69777014D01*
X122165578Y-69777014D02*
X122221821Y-69758267D01*
X122221821Y-69758267D02*
X122259317Y-69720771D01*
X122259317Y-69720771D02*
X122278064Y-69683276D01*
X122278064Y-69683276D02*
X122296812Y-69608285D01*
X122296812Y-69608285D02*
X122296812Y-69552042D01*
X122296812Y-69552042D02*
X122278064Y-69477052D01*
X122278064Y-69477052D02*
X122259317Y-69439556D01*
X122259317Y-69439556D02*
X122221821Y-69402061D01*
X122221821Y-69402061D02*
X122165578Y-69383313D01*
X122165578Y-69383313D02*
X122128083Y-69383313D01*
X122128083Y-69383313D02*
X122071840Y-69402061D01*
X122071840Y-69402061D02*
X122053092Y-69420809D01*
X121903111Y-69420809D02*
X121884363Y-69402061D01*
X121884363Y-69402061D02*
X121846868Y-69383313D01*
X121846868Y-69383313D02*
X121753130Y-69383313D01*
X121753130Y-69383313D02*
X121715634Y-69402061D01*
X121715634Y-69402061D02*
X121696887Y-69420809D01*
X121696887Y-69420809D02*
X121678139Y-69458304D01*
X121678139Y-69458304D02*
X121678139Y-69495799D01*
X121678139Y-69495799D02*
X121696887Y-69552042D01*
X121696887Y-69552042D02*
X121921859Y-69777014D01*
X121921859Y-69777014D02*
X121678139Y-69777014D01*
X121546906Y-69383313D02*
X121284438Y-69383313D01*
X121284438Y-69383313D02*
X121453167Y-69777014D01*
D10*
X117983333Y-90377190D02*
X118007142Y-90401000D01*
X118007142Y-90401000D02*
X118078571Y-90424809D01*
X118078571Y-90424809D02*
X118126190Y-90424809D01*
X118126190Y-90424809D02*
X118197618Y-90401000D01*
X118197618Y-90401000D02*
X118245237Y-90353380D01*
X118245237Y-90353380D02*
X118269047Y-90305761D01*
X118269047Y-90305761D02*
X118292856Y-90210523D01*
X118292856Y-90210523D02*
X118292856Y-90139095D01*
X118292856Y-90139095D02*
X118269047Y-90043857D01*
X118269047Y-90043857D02*
X118245237Y-89996238D01*
X118245237Y-89996238D02*
X118197618Y-89948619D01*
X118197618Y-89948619D02*
X118126190Y-89924809D01*
X118126190Y-89924809D02*
X118078571Y-89924809D01*
X118078571Y-89924809D02*
X118007142Y-89948619D01*
X118007142Y-89948619D02*
X117983333Y-89972428D01*
X117745237Y-90424809D02*
X117649999Y-90424809D01*
X117649999Y-90424809D02*
X117602380Y-90401000D01*
X117602380Y-90401000D02*
X117578571Y-90377190D01*
X117578571Y-90377190D02*
X117530952Y-90305761D01*
X117530952Y-90305761D02*
X117507142Y-90210523D01*
X117507142Y-90210523D02*
X117507142Y-90020047D01*
X117507142Y-90020047D02*
X117530952Y-89972428D01*
X117530952Y-89972428D02*
X117554761Y-89948619D01*
X117554761Y-89948619D02*
X117602380Y-89924809D01*
X117602380Y-89924809D02*
X117697618Y-89924809D01*
X117697618Y-89924809D02*
X117745237Y-89948619D01*
X117745237Y-89948619D02*
X117769047Y-89972428D01*
X117769047Y-89972428D02*
X117792856Y-90020047D01*
X117792856Y-90020047D02*
X117792856Y-90139095D01*
X117792856Y-90139095D02*
X117769047Y-90186714D01*
X117769047Y-90186714D02*
X117745237Y-90210523D01*
X117745237Y-90210523D02*
X117697618Y-90234333D01*
X117697618Y-90234333D02*
X117602380Y-90234333D01*
X117602380Y-90234333D02*
X117554761Y-90210523D01*
X117554761Y-90210523D02*
X117530952Y-90186714D01*
X117530952Y-90186714D02*
X117507142Y-90139095D01*
X120721428Y-91724809D02*
X120888094Y-91486714D01*
X121007142Y-91724809D02*
X121007142Y-91224809D01*
X121007142Y-91224809D02*
X120816666Y-91224809D01*
X120816666Y-91224809D02*
X120769047Y-91248619D01*
X120769047Y-91248619D02*
X120745237Y-91272428D01*
X120745237Y-91272428D02*
X120721428Y-91320047D01*
X120721428Y-91320047D02*
X120721428Y-91391476D01*
X120721428Y-91391476D02*
X120745237Y-91439095D01*
X120745237Y-91439095D02*
X120769047Y-91462904D01*
X120769047Y-91462904D02*
X120816666Y-91486714D01*
X120816666Y-91486714D02*
X121007142Y-91486714D01*
X120245237Y-91724809D02*
X120530951Y-91724809D01*
X120388094Y-91724809D02*
X120388094Y-91224809D01*
X120388094Y-91224809D02*
X120435713Y-91296238D01*
X120435713Y-91296238D02*
X120483332Y-91343857D01*
X120483332Y-91343857D02*
X120530951Y-91367666D01*
X119816666Y-91391476D02*
X119816666Y-91724809D01*
X119935714Y-91201000D02*
X120054761Y-91558142D01*
X120054761Y-91558142D02*
X119745238Y-91558142D01*
D11*
X122253092Y-111939519D02*
X122271840Y-111958267D01*
X122271840Y-111958267D02*
X122328083Y-111977014D01*
X122328083Y-111977014D02*
X122365578Y-111977014D01*
X122365578Y-111977014D02*
X122421821Y-111958267D01*
X122421821Y-111958267D02*
X122459317Y-111920771D01*
X122459317Y-111920771D02*
X122478064Y-111883276D01*
X122478064Y-111883276D02*
X122496812Y-111808285D01*
X122496812Y-111808285D02*
X122496812Y-111752042D01*
X122496812Y-111752042D02*
X122478064Y-111677052D01*
X122478064Y-111677052D02*
X122459317Y-111639556D01*
X122459317Y-111639556D02*
X122421821Y-111602061D01*
X122421821Y-111602061D02*
X122365578Y-111583313D01*
X122365578Y-111583313D02*
X122328083Y-111583313D01*
X122328083Y-111583313D02*
X122271840Y-111602061D01*
X122271840Y-111602061D02*
X122253092Y-111620809D01*
X121878139Y-111977014D02*
X122103111Y-111977014D01*
X121990625Y-111977014D02*
X121990625Y-111583313D01*
X121990625Y-111583313D02*
X122028120Y-111639556D01*
X122028120Y-111639556D02*
X122065616Y-111677052D01*
X122065616Y-111677052D02*
X122103111Y-111695799D01*
X121653167Y-111752042D02*
X121690663Y-111733295D01*
X121690663Y-111733295D02*
X121709410Y-111714547D01*
X121709410Y-111714547D02*
X121728158Y-111677052D01*
X121728158Y-111677052D02*
X121728158Y-111658304D01*
X121728158Y-111658304D02*
X121709410Y-111620809D01*
X121709410Y-111620809D02*
X121690663Y-111602061D01*
X121690663Y-111602061D02*
X121653167Y-111583313D01*
X121653167Y-111583313D02*
X121578177Y-111583313D01*
X121578177Y-111583313D02*
X121540681Y-111602061D01*
X121540681Y-111602061D02*
X121521934Y-111620809D01*
X121521934Y-111620809D02*
X121503186Y-111658304D01*
X121503186Y-111658304D02*
X121503186Y-111677052D01*
X121503186Y-111677052D02*
X121521934Y-111714547D01*
X121521934Y-111714547D02*
X121540681Y-111733295D01*
X121540681Y-111733295D02*
X121578177Y-111752042D01*
X121578177Y-111752042D02*
X121653167Y-111752042D01*
X121653167Y-111752042D02*
X121690663Y-111770790D01*
X121690663Y-111770790D02*
X121709410Y-111789538D01*
X121709410Y-111789538D02*
X121728158Y-111827033D01*
X121728158Y-111827033D02*
X121728158Y-111902024D01*
X121728158Y-111902024D02*
X121709410Y-111939519D01*
X121709410Y-111939519D02*
X121690663Y-111958267D01*
X121690663Y-111958267D02*
X121653167Y-111977014D01*
X121653167Y-111977014D02*
X121578177Y-111977014D01*
X121578177Y-111977014D02*
X121540681Y-111958267D01*
X121540681Y-111958267D02*
X121521934Y-111939519D01*
X121521934Y-111939519D02*
X121503186Y-111902024D01*
X121503186Y-111902024D02*
X121503186Y-111827033D01*
X121503186Y-111827033D02*
X121521934Y-111789538D01*
X121521934Y-111789538D02*
X121540681Y-111770790D01*
X121540681Y-111770790D02*
X121578177Y-111752042D01*
D10*
X124783333Y-90477190D02*
X124807142Y-90501000D01*
X124807142Y-90501000D02*
X124878571Y-90524809D01*
X124878571Y-90524809D02*
X124926190Y-90524809D01*
X124926190Y-90524809D02*
X124997618Y-90501000D01*
X124997618Y-90501000D02*
X125045237Y-90453380D01*
X125045237Y-90453380D02*
X125069047Y-90405761D01*
X125069047Y-90405761D02*
X125092856Y-90310523D01*
X125092856Y-90310523D02*
X125092856Y-90239095D01*
X125092856Y-90239095D02*
X125069047Y-90143857D01*
X125069047Y-90143857D02*
X125045237Y-90096238D01*
X125045237Y-90096238D02*
X124997618Y-90048619D01*
X124997618Y-90048619D02*
X124926190Y-90024809D01*
X124926190Y-90024809D02*
X124878571Y-90024809D01*
X124878571Y-90024809D02*
X124807142Y-90048619D01*
X124807142Y-90048619D02*
X124783333Y-90072428D01*
X124497618Y-90239095D02*
X124545237Y-90215285D01*
X124545237Y-90215285D02*
X124569047Y-90191476D01*
X124569047Y-90191476D02*
X124592856Y-90143857D01*
X124592856Y-90143857D02*
X124592856Y-90120047D01*
X124592856Y-90120047D02*
X124569047Y-90072428D01*
X124569047Y-90072428D02*
X124545237Y-90048619D01*
X124545237Y-90048619D02*
X124497618Y-90024809D01*
X124497618Y-90024809D02*
X124402380Y-90024809D01*
X124402380Y-90024809D02*
X124354761Y-90048619D01*
X124354761Y-90048619D02*
X124330952Y-90072428D01*
X124330952Y-90072428D02*
X124307142Y-90120047D01*
X124307142Y-90120047D02*
X124307142Y-90143857D01*
X124307142Y-90143857D02*
X124330952Y-90191476D01*
X124330952Y-90191476D02*
X124354761Y-90215285D01*
X124354761Y-90215285D02*
X124402380Y-90239095D01*
X124402380Y-90239095D02*
X124497618Y-90239095D01*
X124497618Y-90239095D02*
X124545237Y-90262904D01*
X124545237Y-90262904D02*
X124569047Y-90286714D01*
X124569047Y-90286714D02*
X124592856Y-90334333D01*
X124592856Y-90334333D02*
X124592856Y-90429571D01*
X124592856Y-90429571D02*
X124569047Y-90477190D01*
X124569047Y-90477190D02*
X124545237Y-90501000D01*
X124545237Y-90501000D02*
X124497618Y-90524809D01*
X124497618Y-90524809D02*
X124402380Y-90524809D01*
X124402380Y-90524809D02*
X124354761Y-90501000D01*
X124354761Y-90501000D02*
X124330952Y-90477190D01*
X124330952Y-90477190D02*
X124307142Y-90429571D01*
X124307142Y-90429571D02*
X124307142Y-90334333D01*
X124307142Y-90334333D02*
X124330952Y-90286714D01*
X124330952Y-90286714D02*
X124354761Y-90262904D01*
X124354761Y-90262904D02*
X124402380Y-90239095D01*
D11*
X124739519Y-120846907D02*
X124758267Y-120828159D01*
X124758267Y-120828159D02*
X124777014Y-120771916D01*
X124777014Y-120771916D02*
X124777014Y-120734421D01*
X124777014Y-120734421D02*
X124758267Y-120678178D01*
X124758267Y-120678178D02*
X124720771Y-120640683D01*
X124720771Y-120640683D02*
X124683276Y-120621935D01*
X124683276Y-120621935D02*
X124608285Y-120603187D01*
X124608285Y-120603187D02*
X124552042Y-120603187D01*
X124552042Y-120603187D02*
X124477052Y-120621935D01*
X124477052Y-120621935D02*
X124439556Y-120640683D01*
X124439556Y-120640683D02*
X124402061Y-120678178D01*
X124402061Y-120678178D02*
X124383313Y-120734421D01*
X124383313Y-120734421D02*
X124383313Y-120771916D01*
X124383313Y-120771916D02*
X124402061Y-120828159D01*
X124402061Y-120828159D02*
X124420809Y-120846907D01*
X124514547Y-121184365D02*
X124777014Y-121184365D01*
X124364566Y-121090627D02*
X124645781Y-120996888D01*
X124645781Y-120996888D02*
X124645781Y-121240608D01*
X124383313Y-121578066D02*
X124383313Y-121390589D01*
X124383313Y-121390589D02*
X124570790Y-121371841D01*
X124570790Y-121371841D02*
X124552042Y-121390589D01*
X124552042Y-121390589D02*
X124533295Y-121428084D01*
X124533295Y-121428084D02*
X124533295Y-121521823D01*
X124533295Y-121521823D02*
X124552042Y-121559318D01*
X124552042Y-121559318D02*
X124570790Y-121578066D01*
X124570790Y-121578066D02*
X124608285Y-121596813D01*
X124608285Y-121596813D02*
X124702024Y-121596813D01*
X124702024Y-121596813D02*
X124739519Y-121578066D01*
X124739519Y-121578066D02*
X124758267Y-121559318D01*
X124758267Y-121559318D02*
X124777014Y-121521823D01*
X124777014Y-121521823D02*
X124777014Y-121428084D01*
X124777014Y-121428084D02*
X124758267Y-121390589D01*
X124758267Y-121390589D02*
X124739519Y-121371841D01*
D10*
X113221428Y-130524809D02*
X113388094Y-130286714D01*
X113507142Y-130524809D02*
X113507142Y-130024809D01*
X113507142Y-130024809D02*
X113316666Y-130024809D01*
X113316666Y-130024809D02*
X113269047Y-130048619D01*
X113269047Y-130048619D02*
X113245237Y-130072428D01*
X113245237Y-130072428D02*
X113221428Y-130120047D01*
X113221428Y-130120047D02*
X113221428Y-130191476D01*
X113221428Y-130191476D02*
X113245237Y-130239095D01*
X113245237Y-130239095D02*
X113269047Y-130262904D01*
X113269047Y-130262904D02*
X113316666Y-130286714D01*
X113316666Y-130286714D02*
X113507142Y-130286714D01*
X112745237Y-130524809D02*
X113030951Y-130524809D01*
X112888094Y-130524809D02*
X112888094Y-130024809D01*
X112888094Y-130024809D02*
X112935713Y-130096238D01*
X112935713Y-130096238D02*
X112983332Y-130143857D01*
X112983332Y-130143857D02*
X113030951Y-130167666D01*
X112435714Y-130024809D02*
X112388095Y-130024809D01*
X112388095Y-130024809D02*
X112340476Y-130048619D01*
X112340476Y-130048619D02*
X112316666Y-130072428D01*
X112316666Y-130072428D02*
X112292857Y-130120047D01*
X112292857Y-130120047D02*
X112269047Y-130215285D01*
X112269047Y-130215285D02*
X112269047Y-130334333D01*
X112269047Y-130334333D02*
X112292857Y-130429571D01*
X112292857Y-130429571D02*
X112316666Y-130477190D01*
X112316666Y-130477190D02*
X112340476Y-130501000D01*
X112340476Y-130501000D02*
X112388095Y-130524809D01*
X112388095Y-130524809D02*
X112435714Y-130524809D01*
X112435714Y-130524809D02*
X112483333Y-130501000D01*
X112483333Y-130501000D02*
X112507142Y-130477190D01*
X112507142Y-130477190D02*
X112530952Y-130429571D01*
X112530952Y-130429571D02*
X112554761Y-130334333D01*
X112554761Y-130334333D02*
X112554761Y-130215285D01*
X112554761Y-130215285D02*
X112530952Y-130120047D01*
X112530952Y-130120047D02*
X112507142Y-130072428D01*
X112507142Y-130072428D02*
X112483333Y-130048619D01*
X112483333Y-130048619D02*
X112435714Y-130024809D01*
X151683333Y-96624809D02*
X151849999Y-96386714D01*
X151969047Y-96624809D02*
X151969047Y-96124809D01*
X151969047Y-96124809D02*
X151778571Y-96124809D01*
X151778571Y-96124809D02*
X151730952Y-96148619D01*
X151730952Y-96148619D02*
X151707142Y-96172428D01*
X151707142Y-96172428D02*
X151683333Y-96220047D01*
X151683333Y-96220047D02*
X151683333Y-96291476D01*
X151683333Y-96291476D02*
X151707142Y-96339095D01*
X151707142Y-96339095D02*
X151730952Y-96362904D01*
X151730952Y-96362904D02*
X151778571Y-96386714D01*
X151778571Y-96386714D02*
X151969047Y-96386714D01*
X151516666Y-96124809D02*
X151207142Y-96124809D01*
X151207142Y-96124809D02*
X151373809Y-96315285D01*
X151373809Y-96315285D02*
X151302380Y-96315285D01*
X151302380Y-96315285D02*
X151254761Y-96339095D01*
X151254761Y-96339095D02*
X151230952Y-96362904D01*
X151230952Y-96362904D02*
X151207142Y-96410523D01*
X151207142Y-96410523D02*
X151207142Y-96529571D01*
X151207142Y-96529571D02*
X151230952Y-96577190D01*
X151230952Y-96577190D02*
X151254761Y-96601000D01*
X151254761Y-96601000D02*
X151302380Y-96624809D01*
X151302380Y-96624809D02*
X151445237Y-96624809D01*
X151445237Y-96624809D02*
X151492856Y-96601000D01*
X151492856Y-96601000D02*
X151516666Y-96577190D01*
D11*
X119053092Y-84539519D02*
X119071840Y-84558267D01*
X119071840Y-84558267D02*
X119128083Y-84577014D01*
X119128083Y-84577014D02*
X119165578Y-84577014D01*
X119165578Y-84577014D02*
X119221821Y-84558267D01*
X119221821Y-84558267D02*
X119259317Y-84520771D01*
X119259317Y-84520771D02*
X119278064Y-84483276D01*
X119278064Y-84483276D02*
X119296812Y-84408285D01*
X119296812Y-84408285D02*
X119296812Y-84352042D01*
X119296812Y-84352042D02*
X119278064Y-84277052D01*
X119278064Y-84277052D02*
X119259317Y-84239556D01*
X119259317Y-84239556D02*
X119221821Y-84202061D01*
X119221821Y-84202061D02*
X119165578Y-84183313D01*
X119165578Y-84183313D02*
X119128083Y-84183313D01*
X119128083Y-84183313D02*
X119071840Y-84202061D01*
X119071840Y-84202061D02*
X119053092Y-84220809D01*
X118903111Y-84220809D02*
X118884363Y-84202061D01*
X118884363Y-84202061D02*
X118846868Y-84183313D01*
X118846868Y-84183313D02*
X118753130Y-84183313D01*
X118753130Y-84183313D02*
X118715634Y-84202061D01*
X118715634Y-84202061D02*
X118696887Y-84220809D01*
X118696887Y-84220809D02*
X118678139Y-84258304D01*
X118678139Y-84258304D02*
X118678139Y-84295799D01*
X118678139Y-84295799D02*
X118696887Y-84352042D01*
X118696887Y-84352042D02*
X118921859Y-84577014D01*
X118921859Y-84577014D02*
X118678139Y-84577014D01*
X118546906Y-84183313D02*
X118303186Y-84183313D01*
X118303186Y-84183313D02*
X118434420Y-84333295D01*
X118434420Y-84333295D02*
X118378177Y-84333295D01*
X118378177Y-84333295D02*
X118340681Y-84352042D01*
X118340681Y-84352042D02*
X118321934Y-84370790D01*
X118321934Y-84370790D02*
X118303186Y-84408285D01*
X118303186Y-84408285D02*
X118303186Y-84502024D01*
X118303186Y-84502024D02*
X118321934Y-84539519D01*
X118321934Y-84539519D02*
X118340681Y-84558267D01*
X118340681Y-84558267D02*
X118378177Y-84577014D01*
X118378177Y-84577014D02*
X118490663Y-84577014D01*
X118490663Y-84577014D02*
X118528158Y-84558267D01*
X118528158Y-84558267D02*
X118546906Y-84539519D01*
X129753092Y-123877014D02*
X129884326Y-123689538D01*
X129978064Y-123877014D02*
X129978064Y-123483313D01*
X129978064Y-123483313D02*
X129828083Y-123483313D01*
X129828083Y-123483313D02*
X129790588Y-123502061D01*
X129790588Y-123502061D02*
X129771840Y-123520809D01*
X129771840Y-123520809D02*
X129753092Y-123558304D01*
X129753092Y-123558304D02*
X129753092Y-123614547D01*
X129753092Y-123614547D02*
X129771840Y-123652042D01*
X129771840Y-123652042D02*
X129790588Y-123670790D01*
X129790588Y-123670790D02*
X129828083Y-123689538D01*
X129828083Y-123689538D02*
X129978064Y-123689538D01*
X129603111Y-123520809D02*
X129584363Y-123502061D01*
X129584363Y-123502061D02*
X129546868Y-123483313D01*
X129546868Y-123483313D02*
X129453130Y-123483313D01*
X129453130Y-123483313D02*
X129415634Y-123502061D01*
X129415634Y-123502061D02*
X129396887Y-123520809D01*
X129396887Y-123520809D02*
X129378139Y-123558304D01*
X129378139Y-123558304D02*
X129378139Y-123595799D01*
X129378139Y-123595799D02*
X129396887Y-123652042D01*
X129396887Y-123652042D02*
X129621859Y-123877014D01*
X129621859Y-123877014D02*
X129378139Y-123877014D01*
X129153167Y-123652042D02*
X129190663Y-123633295D01*
X129190663Y-123633295D02*
X129209410Y-123614547D01*
X129209410Y-123614547D02*
X129228158Y-123577052D01*
X129228158Y-123577052D02*
X129228158Y-123558304D01*
X129228158Y-123558304D02*
X129209410Y-123520809D01*
X129209410Y-123520809D02*
X129190663Y-123502061D01*
X129190663Y-123502061D02*
X129153167Y-123483313D01*
X129153167Y-123483313D02*
X129078177Y-123483313D01*
X129078177Y-123483313D02*
X129040681Y-123502061D01*
X129040681Y-123502061D02*
X129021934Y-123520809D01*
X129021934Y-123520809D02*
X129003186Y-123558304D01*
X129003186Y-123558304D02*
X129003186Y-123577052D01*
X129003186Y-123577052D02*
X129021934Y-123614547D01*
X129021934Y-123614547D02*
X129040681Y-123633295D01*
X129040681Y-123633295D02*
X129078177Y-123652042D01*
X129078177Y-123652042D02*
X129153167Y-123652042D01*
X129153167Y-123652042D02*
X129190663Y-123670790D01*
X129190663Y-123670790D02*
X129209410Y-123689538D01*
X129209410Y-123689538D02*
X129228158Y-123727033D01*
X129228158Y-123727033D02*
X129228158Y-123802024D01*
X129228158Y-123802024D02*
X129209410Y-123839519D01*
X129209410Y-123839519D02*
X129190663Y-123858267D01*
X129190663Y-123858267D02*
X129153167Y-123877014D01*
X129153167Y-123877014D02*
X129078177Y-123877014D01*
X129078177Y-123877014D02*
X129040681Y-123858267D01*
X129040681Y-123858267D02*
X129021934Y-123839519D01*
X129021934Y-123839519D02*
X129003186Y-123802024D01*
X129003186Y-123802024D02*
X129003186Y-123727033D01*
X129003186Y-123727033D02*
X129021934Y-123689538D01*
X129021934Y-123689538D02*
X129040681Y-123670790D01*
X129040681Y-123670790D02*
X129078177Y-123652042D01*
D10*
X114021428Y-91724809D02*
X114188094Y-91486714D01*
X114307142Y-91724809D02*
X114307142Y-91224809D01*
X114307142Y-91224809D02*
X114116666Y-91224809D01*
X114116666Y-91224809D02*
X114069047Y-91248619D01*
X114069047Y-91248619D02*
X114045237Y-91272428D01*
X114045237Y-91272428D02*
X114021428Y-91320047D01*
X114021428Y-91320047D02*
X114021428Y-91391476D01*
X114021428Y-91391476D02*
X114045237Y-91439095D01*
X114045237Y-91439095D02*
X114069047Y-91462904D01*
X114069047Y-91462904D02*
X114116666Y-91486714D01*
X114116666Y-91486714D02*
X114307142Y-91486714D01*
X113545237Y-91724809D02*
X113830951Y-91724809D01*
X113688094Y-91724809D02*
X113688094Y-91224809D01*
X113688094Y-91224809D02*
X113735713Y-91296238D01*
X113735713Y-91296238D02*
X113783332Y-91343857D01*
X113783332Y-91343857D02*
X113830951Y-91367666D01*
X113116666Y-91224809D02*
X113211904Y-91224809D01*
X113211904Y-91224809D02*
X113259523Y-91248619D01*
X113259523Y-91248619D02*
X113283333Y-91272428D01*
X113283333Y-91272428D02*
X113330952Y-91343857D01*
X113330952Y-91343857D02*
X113354761Y-91439095D01*
X113354761Y-91439095D02*
X113354761Y-91629571D01*
X113354761Y-91629571D02*
X113330952Y-91677190D01*
X113330952Y-91677190D02*
X113307142Y-91701000D01*
X113307142Y-91701000D02*
X113259523Y-91724809D01*
X113259523Y-91724809D02*
X113164285Y-91724809D01*
X113164285Y-91724809D02*
X113116666Y-91701000D01*
X113116666Y-91701000D02*
X113092857Y-91677190D01*
X113092857Y-91677190D02*
X113069047Y-91629571D01*
X113069047Y-91629571D02*
X113069047Y-91510523D01*
X113069047Y-91510523D02*
X113092857Y-91462904D01*
X113092857Y-91462904D02*
X113116666Y-91439095D01*
X113116666Y-91439095D02*
X113164285Y-91415285D01*
X113164285Y-91415285D02*
X113259523Y-91415285D01*
X113259523Y-91415285D02*
X113307142Y-91439095D01*
X113307142Y-91439095D02*
X113330952Y-91462904D01*
X113330952Y-91462904D02*
X113354761Y-91510523D01*
D11*
X124839519Y-81346907D02*
X124858267Y-81328159D01*
X124858267Y-81328159D02*
X124877014Y-81271916D01*
X124877014Y-81271916D02*
X124877014Y-81234421D01*
X124877014Y-81234421D02*
X124858267Y-81178178D01*
X124858267Y-81178178D02*
X124820771Y-81140683D01*
X124820771Y-81140683D02*
X124783276Y-81121935D01*
X124783276Y-81121935D02*
X124708285Y-81103187D01*
X124708285Y-81103187D02*
X124652042Y-81103187D01*
X124652042Y-81103187D02*
X124577052Y-81121935D01*
X124577052Y-81121935D02*
X124539556Y-81140683D01*
X124539556Y-81140683D02*
X124502061Y-81178178D01*
X124502061Y-81178178D02*
X124483313Y-81234421D01*
X124483313Y-81234421D02*
X124483313Y-81271916D01*
X124483313Y-81271916D02*
X124502061Y-81328159D01*
X124502061Y-81328159D02*
X124520809Y-81346907D01*
X124614547Y-81684365D02*
X124877014Y-81684365D01*
X124464566Y-81590627D02*
X124745781Y-81496888D01*
X124745781Y-81496888D02*
X124745781Y-81740608D01*
X124614547Y-82059318D02*
X124877014Y-82059318D01*
X124464566Y-81965580D02*
X124745781Y-81871841D01*
X124745781Y-81871841D02*
X124745781Y-82115561D01*
D10*
X110821428Y-102724809D02*
X110988094Y-102486714D01*
X111107142Y-102724809D02*
X111107142Y-102224809D01*
X111107142Y-102224809D02*
X110916666Y-102224809D01*
X110916666Y-102224809D02*
X110869047Y-102248619D01*
X110869047Y-102248619D02*
X110845237Y-102272428D01*
X110845237Y-102272428D02*
X110821428Y-102320047D01*
X110821428Y-102320047D02*
X110821428Y-102391476D01*
X110821428Y-102391476D02*
X110845237Y-102439095D01*
X110845237Y-102439095D02*
X110869047Y-102462904D01*
X110869047Y-102462904D02*
X110916666Y-102486714D01*
X110916666Y-102486714D02*
X111107142Y-102486714D01*
X110345237Y-102724809D02*
X110630951Y-102724809D01*
X110488094Y-102724809D02*
X110488094Y-102224809D01*
X110488094Y-102224809D02*
X110535713Y-102296238D01*
X110535713Y-102296238D02*
X110583332Y-102343857D01*
X110583332Y-102343857D02*
X110630951Y-102367666D01*
X110178571Y-102224809D02*
X109845238Y-102224809D01*
X109845238Y-102224809D02*
X110059523Y-102724809D01*
X118683333Y-130524809D02*
X118849999Y-130286714D01*
X118969047Y-130524809D02*
X118969047Y-130024809D01*
X118969047Y-130024809D02*
X118778571Y-130024809D01*
X118778571Y-130024809D02*
X118730952Y-130048619D01*
X118730952Y-130048619D02*
X118707142Y-130072428D01*
X118707142Y-130072428D02*
X118683333Y-130120047D01*
X118683333Y-130120047D02*
X118683333Y-130191476D01*
X118683333Y-130191476D02*
X118707142Y-130239095D01*
X118707142Y-130239095D02*
X118730952Y-130262904D01*
X118730952Y-130262904D02*
X118778571Y-130286714D01*
X118778571Y-130286714D02*
X118969047Y-130286714D01*
X118445237Y-130524809D02*
X118349999Y-130524809D01*
X118349999Y-130524809D02*
X118302380Y-130501000D01*
X118302380Y-130501000D02*
X118278571Y-130477190D01*
X118278571Y-130477190D02*
X118230952Y-130405761D01*
X118230952Y-130405761D02*
X118207142Y-130310523D01*
X118207142Y-130310523D02*
X118207142Y-130120047D01*
X118207142Y-130120047D02*
X118230952Y-130072428D01*
X118230952Y-130072428D02*
X118254761Y-130048619D01*
X118254761Y-130048619D02*
X118302380Y-130024809D01*
X118302380Y-130024809D02*
X118397618Y-130024809D01*
X118397618Y-130024809D02*
X118445237Y-130048619D01*
X118445237Y-130048619D02*
X118469047Y-130072428D01*
X118469047Y-130072428D02*
X118492856Y-130120047D01*
X118492856Y-130120047D02*
X118492856Y-130239095D01*
X118492856Y-130239095D02*
X118469047Y-130286714D01*
X118469047Y-130286714D02*
X118445237Y-130310523D01*
X118445237Y-130310523D02*
X118397618Y-130334333D01*
X118397618Y-130334333D02*
X118302380Y-130334333D01*
X118302380Y-130334333D02*
X118254761Y-130310523D01*
X118254761Y-130310523D02*
X118230952Y-130286714D01*
X118230952Y-130286714D02*
X118207142Y-130239095D01*
X113721428Y-63624809D02*
X113888094Y-63386714D01*
X114007142Y-63624809D02*
X114007142Y-63124809D01*
X114007142Y-63124809D02*
X113816666Y-63124809D01*
X113816666Y-63124809D02*
X113769047Y-63148619D01*
X113769047Y-63148619D02*
X113745237Y-63172428D01*
X113745237Y-63172428D02*
X113721428Y-63220047D01*
X113721428Y-63220047D02*
X113721428Y-63291476D01*
X113721428Y-63291476D02*
X113745237Y-63339095D01*
X113745237Y-63339095D02*
X113769047Y-63362904D01*
X113769047Y-63362904D02*
X113816666Y-63386714D01*
X113816666Y-63386714D02*
X114007142Y-63386714D01*
X113530951Y-63172428D02*
X113507142Y-63148619D01*
X113507142Y-63148619D02*
X113459523Y-63124809D01*
X113459523Y-63124809D02*
X113340475Y-63124809D01*
X113340475Y-63124809D02*
X113292856Y-63148619D01*
X113292856Y-63148619D02*
X113269047Y-63172428D01*
X113269047Y-63172428D02*
X113245237Y-63220047D01*
X113245237Y-63220047D02*
X113245237Y-63267666D01*
X113245237Y-63267666D02*
X113269047Y-63339095D01*
X113269047Y-63339095D02*
X113554761Y-63624809D01*
X113554761Y-63624809D02*
X113245237Y-63624809D01*
X113054761Y-63172428D02*
X113030952Y-63148619D01*
X113030952Y-63148619D02*
X112983333Y-63124809D01*
X112983333Y-63124809D02*
X112864285Y-63124809D01*
X112864285Y-63124809D02*
X112816666Y-63148619D01*
X112816666Y-63148619D02*
X112792857Y-63172428D01*
X112792857Y-63172428D02*
X112769047Y-63220047D01*
X112769047Y-63220047D02*
X112769047Y-63267666D01*
X112769047Y-63267666D02*
X112792857Y-63339095D01*
X112792857Y-63339095D02*
X113078571Y-63624809D01*
X113078571Y-63624809D02*
X112769047Y-63624809D01*
D11*
X122053092Y-72739519D02*
X122071840Y-72758267D01*
X122071840Y-72758267D02*
X122128083Y-72777014D01*
X122128083Y-72777014D02*
X122165578Y-72777014D01*
X122165578Y-72777014D02*
X122221821Y-72758267D01*
X122221821Y-72758267D02*
X122259317Y-72720771D01*
X122259317Y-72720771D02*
X122278064Y-72683276D01*
X122278064Y-72683276D02*
X122296812Y-72608285D01*
X122296812Y-72608285D02*
X122296812Y-72552042D01*
X122296812Y-72552042D02*
X122278064Y-72477052D01*
X122278064Y-72477052D02*
X122259317Y-72439556D01*
X122259317Y-72439556D02*
X122221821Y-72402061D01*
X122221821Y-72402061D02*
X122165578Y-72383313D01*
X122165578Y-72383313D02*
X122128083Y-72383313D01*
X122128083Y-72383313D02*
X122071840Y-72402061D01*
X122071840Y-72402061D02*
X122053092Y-72420809D01*
X121903111Y-72420809D02*
X121884363Y-72402061D01*
X121884363Y-72402061D02*
X121846868Y-72383313D01*
X121846868Y-72383313D02*
X121753130Y-72383313D01*
X121753130Y-72383313D02*
X121715634Y-72402061D01*
X121715634Y-72402061D02*
X121696887Y-72420809D01*
X121696887Y-72420809D02*
X121678139Y-72458304D01*
X121678139Y-72458304D02*
X121678139Y-72495799D01*
X121678139Y-72495799D02*
X121696887Y-72552042D01*
X121696887Y-72552042D02*
X121921859Y-72777014D01*
X121921859Y-72777014D02*
X121678139Y-72777014D01*
X121434420Y-72383313D02*
X121396924Y-72383313D01*
X121396924Y-72383313D02*
X121359429Y-72402061D01*
X121359429Y-72402061D02*
X121340681Y-72420809D01*
X121340681Y-72420809D02*
X121321934Y-72458304D01*
X121321934Y-72458304D02*
X121303186Y-72533295D01*
X121303186Y-72533295D02*
X121303186Y-72627033D01*
X121303186Y-72627033D02*
X121321934Y-72702024D01*
X121321934Y-72702024D02*
X121340681Y-72739519D01*
X121340681Y-72739519D02*
X121359429Y-72758267D01*
X121359429Y-72758267D02*
X121396924Y-72777014D01*
X121396924Y-72777014D02*
X121434420Y-72777014D01*
X121434420Y-72777014D02*
X121471915Y-72758267D01*
X121471915Y-72758267D02*
X121490663Y-72739519D01*
X121490663Y-72739519D02*
X121509410Y-72702024D01*
X121509410Y-72702024D02*
X121528158Y-72627033D01*
X121528158Y-72627033D02*
X121528158Y-72533295D01*
X121528158Y-72533295D02*
X121509410Y-72458304D01*
X121509410Y-72458304D02*
X121490663Y-72420809D01*
X121490663Y-72420809D02*
X121471915Y-72402061D01*
X121471915Y-72402061D02*
X121434420Y-72383313D01*
D12*
X116460000Y-87444999D02*
X115400000Y-87444999D01*
X116460000Y-89204999D02*
X115400000Y-89204999D01*
X120725002Y-109220000D02*
X119665002Y-109220000D01*
X120725002Y-110980000D02*
X119665002Y-110980000D01*
X111940002Y-112320000D02*
X110880002Y-112320000D01*
X111940002Y-114080000D02*
X110880002Y-114080000D01*
X122970002Y-126920000D02*
X121910002Y-126920000D01*
X122970002Y-128680000D02*
X121910002Y-128680000D01*
D13*
X116675003Y-116375002D02*
X117110003Y-116375002D01*
X116675003Y-116810002D02*
X116675003Y-116375002D01*
X116675003Y-121824998D02*
X116675003Y-121624999D01*
X116675003Y-121824998D02*
X116875002Y-121824998D01*
X121925005Y-116375002D02*
X122125004Y-116375002D01*
X121925005Y-121824998D02*
X122125004Y-121824998D01*
X122125004Y-116575001D02*
X122125004Y-116375002D01*
X122125004Y-121824998D02*
X122125004Y-121624999D01*
D12*
X116330002Y-123643700D02*
X115270002Y-123643700D01*
X116330002Y-125403700D02*
X115270002Y-125403700D01*
X127550000Y-70147599D02*
X126490000Y-70147599D01*
X127550000Y-71907599D02*
X126490000Y-71907599D01*
X127275002Y-110620000D02*
X126215002Y-110620000D01*
X127275002Y-112380000D02*
X126215002Y-112380000D01*
D14*
X119879750Y-69126999D02*
X120264650Y-69126999D01*
X120264650Y-68072999D02*
X119879750Y-68072999D01*
D12*
X112205000Y-70121299D02*
X111145000Y-70121299D01*
X112205000Y-71881299D02*
X111145000Y-71881299D01*
X111930002Y-109220000D02*
X110870002Y-109220000D01*
X111930002Y-110980000D02*
X110870002Y-110980000D01*
D13*
X116675002Y-76975002D02*
X117110002Y-76975002D01*
X116675002Y-77410002D02*
X116675002Y-76975002D01*
X116675002Y-82424998D02*
X116675002Y-82224999D01*
X116675002Y-82424998D02*
X116875001Y-82424998D01*
X121925004Y-76975002D02*
X122125003Y-76975002D01*
X121925004Y-82424998D02*
X122125003Y-82424998D01*
X122125003Y-77175001D02*
X122125003Y-76975002D01*
X122125003Y-82424998D02*
X122125003Y-82224999D01*
D12*
X123200000Y-87457156D02*
X122140000Y-87457156D01*
X123200000Y-89217156D02*
X122140000Y-89217156D01*
D14*
X126882550Y-69178299D02*
X127267450Y-69178299D01*
X127267450Y-68124299D02*
X126882550Y-68124299D01*
X111482550Y-69128299D02*
X111867450Y-69128299D01*
X111867450Y-68074299D02*
X111482550Y-68074299D01*
X120057552Y-108227000D02*
X120442452Y-108227000D01*
X120442452Y-107173000D02*
X120057552Y-107173000D01*
D12*
X123200000Y-84357156D02*
X122140000Y-84357156D01*
X123200000Y-86117156D02*
X122140000Y-86117156D01*
X122970002Y-123620000D02*
X121910002Y-123620000D01*
X122970002Y-125380000D02*
X121910002Y-125380000D01*
X112260000Y-73221299D02*
X111200000Y-73221299D01*
X112260000Y-74981299D02*
X111200000Y-74981299D01*
X127275002Y-107520000D02*
X126215002Y-107520000D01*
X127275002Y-109280000D02*
X126215002Y-109280000D01*
X127550000Y-73247599D02*
X126490000Y-73247599D01*
X127550000Y-75007599D02*
X126490000Y-75007599D01*
X116325002Y-126943700D02*
X115265002Y-126943700D01*
X116325002Y-128703700D02*
X115265002Y-128703700D01*
D14*
X111235352Y-108227000D02*
X111620252Y-108227000D01*
X111620252Y-107173000D02*
X111235352Y-107173000D01*
D12*
X120575000Y-70119999D02*
X119515000Y-70119999D01*
X120575000Y-71879999D02*
X119515000Y-71879999D01*
D14*
X115765350Y-91251999D02*
X116150250Y-91251999D01*
X116150250Y-90197999D02*
X115765350Y-90197999D01*
D12*
X120725002Y-112320000D02*
X119665002Y-112320000D01*
X120725002Y-114080000D02*
X119665002Y-114080000D01*
D14*
X122550350Y-91264156D02*
X122935250Y-91264156D01*
X122935250Y-90210156D02*
X122550350Y-90210156D01*
D12*
X116405000Y-84344999D02*
X115345000Y-84344999D01*
X116405000Y-86104999D02*
X115345000Y-86104999D01*
X120575000Y-73219999D02*
X119515000Y-73219999D01*
X120575000Y-74979999D02*
X119515000Y-74979999D01*
%LPC*%
D15*
X164997500Y-84986750D03*
D16*
X164997500Y-87266750D03*
X164997500Y-89546750D03*
X164997500Y-91826750D03*
X164997500Y-94106750D03*
X167537500Y-83846750D03*
X167537500Y-86126750D03*
X167537500Y-88406750D03*
X167537500Y-90686750D03*
X167537500Y-92966750D03*
X170077500Y-84986750D03*
X170077500Y-87266750D03*
X170077500Y-89546750D03*
X170077500Y-91826750D03*
X170077500Y-94106750D03*
D17*
X167537500Y-101786750D03*
X167537500Y-76796750D03*
D18*
X83800000Y-43900000D03*
X83800000Y-135200000D03*
D15*
X164997500Y-52136750D03*
D16*
X164997500Y-54416750D03*
X164997500Y-56696750D03*
X164997500Y-58976750D03*
X164997500Y-61256750D03*
X167537500Y-50996750D03*
X167537500Y-53276750D03*
X167537500Y-55556750D03*
X167537500Y-57836750D03*
X167537500Y-60116750D03*
X170077500Y-52136750D03*
X170077500Y-54416750D03*
X170077500Y-56696750D03*
X170077500Y-58976750D03*
X170077500Y-61256750D03*
D17*
X167537500Y-68936750D03*
X167537500Y-43946750D03*
D18*
X159400000Y-43800000D03*
D15*
X164997500Y-118126750D03*
D16*
X164997500Y-120406750D03*
X164997500Y-122686750D03*
X164997500Y-124966750D03*
X164997500Y-127246750D03*
X167537500Y-116986750D03*
X167537500Y-119266750D03*
X167537500Y-121546750D03*
X167537500Y-123826750D03*
X167537500Y-126106750D03*
X170077500Y-118126750D03*
X170077500Y-120406750D03*
X170077500Y-122686750D03*
X170077500Y-124966750D03*
X170077500Y-127246750D03*
D17*
X167537500Y-134926750D03*
X167537500Y-109936750D03*
D18*
X159400000Y-135200000D03*
D19*
X91595000Y-44700000D03*
D20*
X89055000Y-44700000D03*
D21*
X121295002Y-132802600D03*
X121295002Y-131050000D03*
D22*
X108675000Y-79265685D03*
X108675000Y-77465685D03*
X109445002Y-118562000D03*
X109445002Y-116762000D03*
D23*
X114485000Y-88324999D03*
X117375000Y-88324999D03*
X118750002Y-110100000D03*
X121640002Y-110100000D03*
D24*
X111125000Y-79140685D03*
X111125000Y-77590685D03*
D23*
X109965002Y-113200000D03*
X112855002Y-113200000D03*
X120995002Y-127800000D03*
X123885002Y-127800000D03*
D25*
X123920000Y-116900000D03*
X125450000Y-116900000D03*
D26*
X117650002Y-116700000D03*
X118150001Y-116700000D03*
X118650003Y-116700000D03*
X119150001Y-116700000D03*
X119650003Y-116700000D03*
X120150002Y-116700000D03*
X120650001Y-116700000D03*
X121150003Y-116700000D03*
D27*
X121800004Y-117350001D03*
X121800004Y-117850000D03*
X121800004Y-118350002D03*
X121800004Y-118850000D03*
X121800004Y-119350002D03*
X121800004Y-119850001D03*
X121800004Y-120350000D03*
X121800004Y-120850002D03*
D26*
X121150003Y-121500000D03*
X120650001Y-121500000D03*
X120150002Y-121500000D03*
X119650003Y-121500000D03*
X119150001Y-121500000D03*
X118650003Y-121500000D03*
X118150001Y-121500000D03*
X117650002Y-121500000D03*
D27*
X117000003Y-120850002D03*
X117000003Y-120350000D03*
X117000003Y-119850001D03*
X117000003Y-119350002D03*
X117000003Y-118850000D03*
X117000003Y-118350002D03*
X117000003Y-117850000D03*
X117000003Y-117350001D03*
D28*
X119400001Y-119100000D03*
D29*
X119400001Y-118299999D03*
X120200002Y-119100000D03*
X119400001Y-119100000D03*
X118600000Y-119100000D03*
X119400001Y-119900001D03*
D21*
X128275000Y-64774999D03*
X128275000Y-66527599D03*
D23*
X114355002Y-124523700D03*
X117245002Y-124523700D03*
X125575000Y-71027599D03*
X128465000Y-71027599D03*
D30*
X114145002Y-122056000D03*
X114145002Y-120568000D03*
D21*
X116650002Y-105652600D03*
X116650002Y-103900000D03*
D23*
X125300002Y-111500000D03*
X128190002Y-111500000D03*
D21*
X125875000Y-64774999D03*
X125875000Y-66527599D03*
D31*
X119244400Y-68599999D03*
X120900000Y-68599999D03*
D23*
X110230000Y-71001299D03*
X113120000Y-71001299D03*
X109955002Y-110100000D03*
X112845002Y-110100000D03*
D21*
X112700002Y-105652600D03*
X112700002Y-103900000D03*
D26*
X117650001Y-77300000D03*
X118150000Y-77300000D03*
X118650002Y-77300000D03*
X119150000Y-77300000D03*
X119650002Y-77300000D03*
X120150001Y-77300000D03*
X120650000Y-77300000D03*
X121150002Y-77300000D03*
D27*
X121800003Y-77950001D03*
X121800003Y-78450000D03*
X121800003Y-78950002D03*
X121800003Y-79450000D03*
X121800003Y-79950002D03*
X121800003Y-80450001D03*
X121800003Y-80950000D03*
X121800003Y-81450002D03*
D26*
X121150002Y-82100000D03*
X120650000Y-82100000D03*
X120150001Y-82100000D03*
X119650002Y-82100000D03*
X119150000Y-82100000D03*
X118650002Y-82100000D03*
X118150000Y-82100000D03*
X117650001Y-82100000D03*
D27*
X117000002Y-81450002D03*
X117000002Y-80950000D03*
X117000002Y-80450001D03*
X117000002Y-79950002D03*
X117000002Y-79450000D03*
X117000002Y-78950002D03*
X117000002Y-78450000D03*
X117000002Y-77950001D03*
D28*
X119400000Y-79700000D03*
D29*
X119400000Y-78899999D03*
X120200001Y-79700000D03*
X119400000Y-79700000D03*
X118599999Y-79700000D03*
X119400000Y-80500001D03*
D21*
X125550002Y-103900000D03*
X125550002Y-105652600D03*
D30*
X113325000Y-82665685D03*
X113325000Y-81177685D03*
D21*
X123750002Y-132802600D03*
X123750002Y-131050000D03*
D23*
X121225000Y-88337156D03*
X124115000Y-88337156D03*
D21*
X117030000Y-94677599D03*
X117030000Y-92924999D03*
D31*
X126247200Y-68651299D03*
X127902800Y-68651299D03*
D24*
X111895002Y-118462000D03*
X111895002Y-116912000D03*
D31*
X110847200Y-68601299D03*
X112502800Y-68601299D03*
D21*
X118900000Y-66552599D03*
X118900000Y-64799999D03*
D31*
X119422202Y-107700000D03*
X121077802Y-107700000D03*
D32*
X128315000Y-84800000D03*
X126785000Y-84800000D03*
D24*
X125825000Y-82346685D03*
X125825000Y-80796685D03*
X125745002Y-121875000D03*
X125745002Y-120325000D03*
D21*
X123915000Y-94689756D03*
X123915000Y-92937156D03*
D23*
X121225000Y-85237156D03*
X124115000Y-85237156D03*
D22*
X128275000Y-82446685D03*
X128275000Y-80646685D03*
D21*
X152200000Y-65696500D03*
X152200000Y-63943900D03*
D23*
X120995002Y-124500000D03*
X123885002Y-124500000D03*
D24*
X111075000Y-82715685D03*
X111075000Y-81165685D03*
D21*
X127950002Y-103900000D03*
X127950002Y-105652600D03*
D23*
X110285000Y-74101299D03*
X113175000Y-74101299D03*
D21*
X119050002Y-105652600D03*
X119050002Y-103900000D03*
D23*
X125300002Y-108400000D03*
X128190002Y-108400000D03*
D33*
X141000000Y-63700000D03*
X92000000Y-63700000D03*
D34*
X141000000Y-121700000D03*
D33*
X92000000Y-121700000D03*
D35*
X93270000Y-68570000D03*
D36*
X90730000Y-68570000D03*
X93270000Y-71110000D03*
X90730000Y-71110000D03*
X93270000Y-73650000D03*
X90730000Y-73650000D03*
X93270000Y-76190000D03*
X90730000Y-76190000D03*
X93270000Y-78730000D03*
X90730000Y-78730000D03*
X93270000Y-81270000D03*
X90730000Y-81270000D03*
X93270000Y-83810000D03*
X90730000Y-83810000D03*
X93270000Y-86350000D03*
X90730000Y-86350000D03*
X93270000Y-88890000D03*
X90730000Y-88890000D03*
X93270000Y-91430000D03*
X90730000Y-91430000D03*
X93270000Y-93970000D03*
X90730000Y-93970000D03*
X93270000Y-96510000D03*
X90730000Y-96510000D03*
X93270000Y-99050000D03*
X90730000Y-99050000D03*
X93270000Y-101590000D03*
X90730000Y-101590000D03*
X93270000Y-104130000D03*
X90730000Y-104130000D03*
X93270000Y-106670000D03*
X90730000Y-106670000D03*
X93270000Y-109210000D03*
X90730000Y-109210000D03*
X93270000Y-111750000D03*
X90730000Y-111750000D03*
X93270000Y-114290000D03*
X90730000Y-114290000D03*
X93270000Y-116830000D03*
X90730000Y-116830000D03*
D30*
X113375000Y-79090685D03*
X113375000Y-77602685D03*
D23*
X125575000Y-74127599D03*
X128465000Y-74127599D03*
D30*
X114145002Y-118400000D03*
X114145002Y-116912000D03*
D21*
X110475000Y-66601299D03*
X110475000Y-64848699D03*
D22*
X108675000Y-82821685D03*
X108675000Y-81021685D03*
D23*
X114350002Y-127823700D03*
X117240002Y-127823700D03*
D21*
X116600000Y-66576299D03*
X116600000Y-64823699D03*
D25*
X123935000Y-77475000D03*
X125465000Y-77475000D03*
D21*
X121300000Y-66552599D03*
X121300000Y-64799999D03*
D22*
X128145002Y-122000000D03*
X128145002Y-120200000D03*
D31*
X110600002Y-107700000D03*
X112255602Y-107700000D03*
D22*
X109445002Y-122212000D03*
X109445002Y-120412000D03*
D21*
X121450002Y-105652600D03*
X121450002Y-103900000D03*
D24*
X111895002Y-122112000D03*
X111895002Y-120562000D03*
D23*
X118600000Y-70999999D03*
X121490000Y-70999999D03*
D31*
X116785600Y-90724999D03*
X115130000Y-90724999D03*
D21*
X121515000Y-94689756D03*
X121515000Y-92937156D03*
D23*
X118750002Y-113200000D03*
X121640002Y-113200000D03*
D31*
X123570600Y-90737156D03*
X121915000Y-90737156D03*
D30*
X123495002Y-121850000D03*
X123495002Y-120362000D03*
D21*
X114650002Y-132826300D03*
X114650002Y-131073700D03*
X151550000Y-97843900D03*
X151550000Y-99596500D03*
D23*
X114430000Y-85224999D03*
X117320000Y-85224999D03*
D32*
X128130000Y-124100000D03*
X126600000Y-124100000D03*
D21*
X114630000Y-94677599D03*
X114630000Y-92924999D03*
D30*
X123575000Y-82334685D03*
X123575000Y-80846685D03*
D21*
X110300002Y-105652600D03*
X110300002Y-103900000D03*
X117050002Y-132826300D03*
X117050002Y-131073700D03*
X112875000Y-66577599D03*
X112875000Y-64824999D03*
D23*
X118600000Y-74099999D03*
X121490000Y-74099999D03*
%LPD*%
M02*
